<svg width="277" height="190" viewBox="0 0 277 190" fill="none" xmlns="http://www.w3.org/2000/svg">
<path d="M0.128464 171.629C0.128464 179.523 6.53815 185.922 14.4449 185.922H261.803C269.71 185.922 276.119 179.523 276.119 171.629V26.59H0.128464V171.629Z" fill="url(#paint0_linear_302_179)"/>
<path d="M261.803 0.113525H14.4449C6.53815 0.113525 0.128464 6.51294 0.128464 14.407V26.59H276.119V14.407C276.119 6.51294 269.71 0.113525 261.803 0.113525Z" fill="url(#paint1_linear_302_179)"/>
<ellipse cx="9.98749" cy="14.9286" rx="2.75453" ry="2.75011" fill="white"/>
<ellipse cx="20.9013" cy="14.9286" rx="2.75453" ry="2.75011" fill="white"/>
<ellipse cx="31.8151" cy="14.9286" rx="2.75453" ry="2.75011" fill="white"/>
<rect x="23.4036" y="46.4816" width="69.7841" height="93.4398" rx="7.84336" fill="white"/>
<rect x="29.4165" y="54.158" width="57.7583" height="52.3307" rx="4.68238" fill="url(#paint2_linear_302_179)"/>
<rect x="33.6881" y="115.839" width="47.5426" height="5.30708" rx="2.65354" fill="url(#paint3_linear_302_179)"/>
<rect x="33.6881" y="123.95" width="34.5779" height="5.30708" rx="2.65354" fill="url(#paint4_linear_302_179)"/>
<path opacity="0.56" d="M44.7948 69.5022C42.9478 78.451 42.4936 87.8184 42.4125 97.2985H47.9713C48.1165 91.5647 48.0386 85.5338 49.2947 81.2827L49.857 81.5463L49.6666 87.4663L53.3486 88.0253V89.333L49.6247 88.768L49.4958 92.7991C51.127 94.2685 54.2467 95.0599 57.4815 95.1739V65.2186C56.3567 65.2828 55.2288 65.1714 54.1384 64.8881C56.5637 63.8463 60.0881 64.0124 61.5511 64.4908C60.9035 65.0552 59.9656 65.294 58.92 65.4176V95.1792C62.2233 95.089 65.4321 94.296 67.095 92.7986L66.9661 88.7733L63.2831 89.333V88.0253L66.9241 87.4726L66.7337 81.5463L67.296 81.2827C68.5522 85.5343 68.4763 91.5652 68.62 97.2985H74.1788C74.0998 87.8184 73.6452 78.451 71.7971 69.5022C69.5244 68.195 66.8563 67.1172 63.7195 66.313V64.1424C59.9268 63.109 56.2168 63.0582 52.601 64.1424V66.3846C49.5828 67.1804 47.0031 68.2327 44.7947 69.5022H44.7948Z" fill="url(#paint5_linear_302_179)"/>
<rect x="195.996" y="46.4816" width="69.7841" height="93.4398" rx="7.84336" fill="white"/>
<rect x="202.009" y="54.158" width="57.7583" height="52.3307" rx="4.68238" fill="url(#paint6_linear_302_179)"/>
<rect x="206.281" y="115.839" width="47.5426" height="5.30708" rx="2.65354" fill="url(#paint7_linear_302_179)"/>
<rect x="206.281" y="123.95" width="34.5779" height="5.30708" rx="2.65354" fill="url(#paint8_linear_302_179)"/>
<path opacity="0.44" d="M239.706 72.2926V68.0846H231.899V78.1021C231.897 78.659 231.445 79.1095 230.888 79.1095C230.332 79.1095 229.88 78.659 229.878 78.1021V68.0845H222.072V72.3686C222.072 75.6892 220.148 78.7092 217.139 80.1132L215.61 80.8271V97.0438C215.61 97.3467 215.73 97.6371 215.945 97.8513C216.159 98.0654 216.449 98.1857 216.752 98.1857H227.088C227.63 98.1858 228.098 97.8048 228.207 97.2738L230.33 86.9538H231.446L233.569 97.2738C233.678 97.8048 234.146 98.1858 234.688 98.1857H245.024C245.327 98.1858 245.618 98.0655 245.832 97.8513C246.046 97.6372 246.166 97.3467 246.166 97.0438V80.7515L244.638 80.0379C241.628 78.6338 239.705 75.6134 239.706 72.2926Z" fill="url(#paint9_linear_302_179)"/>
<path opacity="0.44" d="M241.815 68.0845V72.2925C241.82 74.792 243.267 77.0641 245.53 78.1262L246.167 78.4235V68.0845L241.815 68.0845Z" fill="url(#paint10_linear_302_179)"/>
<path opacity="0.44" d="M219.962 72.3691V68.0845H215.61V78.4991L216.247 78.2018C218.509 77.1399 219.956 74.8682 219.962 72.3691Z" fill="url(#paint11_linear_302_179)"/>
<path opacity="0.44" d="M246.029 63.9751C246.029 63.1389 245.351 62.461 244.515 62.4609H217.262C216.425 62.461 215.748 63.1389 215.748 63.9751V66.5453H246.029V63.9751Z" fill="url(#paint12_linear_302_179)"/>
<rect x="109.7" y="46.4816" width="69.7841" height="93.4398" rx="7.84336" fill="white"/>
<rect x="115.713" y="54.158" width="57.7583" height="52.3307" rx="4.68238" fill="url(#paint13_linear_302_179)"/>
<rect x="119.984" y="115.839" width="47.5426" height="5.30708" rx="2.65354" fill="url(#paint14_linear_302_179)"/>
<rect x="119.984" y="123.95" width="34.5779" height="5.30708" rx="2.65354" fill="url(#paint15_linear_302_179)"/>
<path opacity="0.57" d="M160.376 97.6806L156.13 66.8765C156.044 66.2535 155.429 65.7843 154.698 65.7843H134.485C133.755 65.7843 133.14 66.2535 133.054 66.8765L128.808 97.6802C128.706 98.4165 129.376 99.0639 130.239 99.0639H141.361C142.119 99.0639 142.748 98.5596 142.799 97.9101L144.28 79.2487C144.309 78.8834 144.935 78.8838 144.963 79.2495L146.388 97.9076C146.437 98.5584 147.067 99.0643 147.826 99.0643H158.945C159.808 99.0643 160.478 98.4169 160.376 97.6806Z" fill="#FE7A80"/>
<path opacity="0.57" d="M134.613 63.7187H154.478C155.068 63.7187 155.546 63.2405 155.546 62.6505C155.546 62.0606 155.068 61.5823 154.478 61.5823H134.613C134.023 61.5823 133.545 62.0606 133.545 62.6505C133.545 63.2405 134.023 63.7187 134.613 63.7187Z" fill="#FE7A80"/>
<path d="M201.667 147.179H221.857C222.408 147.177 222.933 146.943 223.301 146.534C223.67 146.124 223.849 145.578 223.794 145.03C223.559 142.586 222.918 140.199 221.898 137.966C221.67 137.466 221.242 137.086 220.719 136.918C220.196 136.75 219.626 136.811 219.15 137.085L201.667 147.179L201.667 147.179Z" fill="url(#paint16_linear_302_179)"/>
<path d="M201.667 147.179L219.147 137.087C219.623 136.811 219.961 136.346 220.076 135.808C220.191 135.269 220.073 134.707 219.752 134.26C218.325 132.266 216.58 130.521 214.586 129.094C214.139 128.773 213.577 128.655 213.038 128.77C212.5 128.885 212.035 129.223 211.759 129.699L201.667 147.179H201.667Z" fill="url(#paint17_linear_302_179)"/>
<path d="M188.748 129.094C186.755 130.521 185.009 132.266 183.583 134.26C183.261 134.707 183.143 135.269 183.258 135.808C183.374 136.346 183.711 136.811 184.188 137.087L195.378 143.548C197.102 144.543 199.031 142.614 198.036 140.889L191.575 129.699C191.299 129.223 190.834 128.885 190.296 128.77C189.757 128.655 189.195 128.773 188.748 129.094Z" fill="url(#paint18_linear_302_179)"/>
<path d="M201.667 147.179L184.184 137.085C183.708 136.811 183.138 136.75 182.615 136.918C182.092 137.086 181.664 137.466 181.437 137.966C180.416 140.199 179.775 142.586 179.541 145.03C179.485 145.578 179.664 146.124 180.033 146.534C180.402 146.943 180.926 147.177 181.478 147.179L201.667 147.179Z" fill="url(#paint19_linear_302_179)"/>
<circle cx="201.667" cy="147.179" r="7.06521" fill="url(#paint20_linear_302_179)"/>
<path d="M172.52 151.109H230.814V183.08C230.814 185.65 228.73 187.733 226.16 187.733H177.174C174.604 187.733 172.52 185.65 172.52 183.08V151.109Z" fill="url(#paint21_linear_302_179)"/>
<mask id="mask0_302_179" style="mask-type:luminance" maskUnits="userSpaceOnUse" x="172" y="151" width="59" height="37">
<path fill-rule="evenodd" clip-rule="evenodd" d="M172.52 151.109H230.814V183.08C230.814 185.65 228.73 187.733 226.16 187.733H177.174C174.604 187.733 172.52 185.65 172.52 183.08V151.109Z" fill="white"/>
</mask>
<g mask="url(#mask0_302_179)">
<rect opacity="0.09" x="148.351" y="173.533" width="75.3275" height="6.16551" transform="rotate(-27.3702 148.351 173.533)" fill="white"/>
<rect opacity="0.09" x="157.508" y="181.81" width="75.3275" height="6.16551" transform="rotate(-27.3702 157.508 181.81)" fill="white"/>
<rect opacity="0.09" x="167.701" y="188.875" width="75.3275" height="6.16551" transform="rotate(-27.3702 167.701 188.875)" fill="white"/>
<rect opacity="0.09" x="178.758" y="194.506" width="75.3275" height="6.16551" transform="rotate(-27.3702 178.758 194.506)" fill="white"/>
<rect opacity="0.09" x="186.546" y="202.311" width="75.3275" height="6.16551" transform="rotate(-27.3702 186.546 202.311)" fill="white"/>
</g>
<rect x="168.225" y="143.611" width="66.8841" height="12.5791" rx="2.43501" fill="url(#paint22_linear_302_179)"/>
<rect x="193.763" y="143.385" width="15.8084" height="44.348" fill="url(#paint23_linear_302_179)"/>
<path d="M238.643 163.515H249.329C249.621 163.514 249.899 163.39 250.094 163.173C250.289 162.957 250.384 162.668 250.354 162.378C250.23 161.084 249.891 159.821 249.351 158.639C249.23 158.374 249.004 158.173 248.727 158.084C248.45 157.995 248.148 158.027 247.896 158.172L238.643 163.515Z" fill="url(#paint24_linear_302_179)"/>
<path d="M238.643 163.515L247.895 158.173C248.147 158.027 248.325 157.781 248.386 157.496C248.447 157.211 248.385 156.914 248.215 156.677C247.46 155.622 246.536 154.698 245.481 153.943C245.244 153.773 244.947 153.71 244.662 153.771C244.376 153.832 244.13 154.011 243.984 154.263L238.643 163.515H238.643Z" fill="url(#paint25_linear_302_179)"/>
<path d="M231.805 153.943C230.749 154.698 229.826 155.622 229.071 156.677C228.9 156.914 228.838 157.211 228.899 157.496C228.96 157.781 229.139 158.027 229.391 158.173L235.314 161.593C236.226 162.12 237.248 161.099 236.721 160.186L233.301 154.263C233.155 154.011 232.909 153.832 232.624 153.771C232.339 153.71 232.041 153.773 231.805 153.943Z" fill="url(#paint26_linear_302_179)"/>
<path d="M238.643 163.515V152.829C238.642 152.537 238.518 152.259 238.301 152.064C238.085 151.869 237.795 151.774 237.505 151.803C236.212 151.928 234.948 152.267 233.767 152.807C233.502 152.927 233.3 153.154 233.212 153.431C233.123 153.708 233.155 154.009 233.3 154.261L238.643 163.515H238.643Z" fill="url(#paint27_linear_302_179)"/>
<path d="M243.519 152.807C242.337 152.267 241.074 151.928 239.78 151.803C239.49 151.774 239.201 151.869 238.984 152.064C238.768 152.259 238.644 152.537 238.643 152.829V159.671C238.643 160.725 240.038 161.099 240.565 160.186L243.985 154.261C244.131 154.009 244.163 153.708 244.074 153.431C243.985 153.154 243.784 152.927 243.519 152.807Z" fill="url(#paint28_linear_302_179)"/>
<path d="M238.643 163.515L229.389 158.172C229.137 158.027 228.835 157.995 228.559 158.084C228.282 158.173 228.055 158.374 227.935 158.639C227.395 159.821 227.055 161.084 226.931 162.378C226.902 162.668 226.996 162.957 227.192 163.173C227.387 163.39 227.665 163.514 227.956 163.515H238.643Z" fill="url(#paint29_linear_302_179)"/>
<circle cx="238.643" cy="163.515" r="3.73962" fill="url(#paint30_linear_302_179)"/>
<path d="M221.547 166.251H255.739V185.004C255.739 186.511 254.517 187.733 253.009 187.733H224.276C222.769 187.733 221.547 186.511 221.547 185.004V166.251Z" fill="url(#paint31_linear_302_179)"/>
<mask id="mask1_302_179" style="mask-type:luminance" maskUnits="userSpaceOnUse" x="221" y="166" width="35" height="22">
<path fill-rule="evenodd" clip-rule="evenodd" d="M221.547 166.251H255.739V185.004C255.739 186.511 254.517 187.733 253.009 187.733H224.276C222.769 187.733 221.547 186.511 221.547 185.004V166.251Z" fill="white"/>
</mask>
<g mask="url(#mask1_302_179)">
<rect opacity="0.09" x="218.236" y="168.869" width="46.9185" height="4.5631" fill="white"/>
<rect opacity="0.09" x="218.236" y="182.276" width="46.9185" height="4.5631" fill="white"/>
<rect opacity="0.09" x="218.236" y="176.164" width="46.9185" height="2.80772" fill="white"/>
<rect opacity="0.09" x="235.516" y="201.313" width="46.9185" height="4.5631" transform="rotate(-90 235.516 201.313)" fill="white"/>
<rect opacity="0.09" x="248.923" y="201.313" width="46.9185" height="4.5631" transform="rotate(-90 248.923 201.313)" fill="white"/>
<rect opacity="0.09" x="242.811" y="201.313" width="46.9185" height="2.80772" transform="rotate(-90 242.811 201.313)" fill="white"/>
<rect opacity="0.09" x="228.599" y="201.313" width="46.9185" height="4.5631" transform="rotate(-90 228.599 201.313)" fill="white"/>
<rect opacity="0.09" x="222.487" y="201.313" width="46.9185" height="2.80772" transform="rotate(-90 222.487 201.313)" fill="white"/>
</g>
<rect x="219.027" y="161.854" width="39.2305" height="7.37821" rx="1.42824" fill="url(#paint32_linear_302_179)"/>
<rect x="234.007" y="161.775" width="9.27233" height="25.9582" fill="url(#paint33_linear_302_179)"/>
<mask id="mask2_302_179" style="mask-type:luminance" maskUnits="userSpaceOnUse" x="234" y="161" width="10" height="27">
<rect x="234.007" y="161.775" width="9.27233" height="25.9582" fill="white"/>
</mask>
<g mask="url(#mask2_302_179)">
<rect x="232.569" y="169.232" width="12.1473" height="7.2516" fill="url(#paint34_linear_302_179)"/>
</g>
<path d="M244.011 161.64L245.946 162.572C246.824 162.995 247.341 163.663 247.341 164.373V176.824L249.734 174.392L253.168 176.621V164.254C253.168 163.461 252.523 162.727 251.471 162.324L250.02 161.767L244.011 161.64Z" fill="url(#paint35_linear_302_179)"/>
<path d="M70.6901 138.986H70.0524V133.048C70.0524 128.666 73.6049 125.113 77.9871 125.113C82.3694 125.113 85.9219 128.666 85.9219 133.048V138.589H85.2841V133.048C85.2841 129.018 82.0172 125.751 77.9871 125.751C73.9571 125.751 70.6901 129.018 70.6901 133.048L70.6901 138.986Z" fill="url(#paint36_linear_302_179)"/>
<path d="M99.0013 187.291H60.4762L64.3909 136.771H95.0865L99.0013 187.291Z" fill="url(#paint37_linear_302_179)"/>
<path d="M91.7113 187.291H53.1862L57.101 136.771H87.7965L91.7113 187.291Z" fill="url(#paint38_linear_302_179)"/>
<mask id="mask3_302_179" style="mask-type:luminance" maskUnits="userSpaceOnUse" x="53" y="136" width="39" height="52">
<path fill-rule="evenodd" clip-rule="evenodd" d="M91.7113 187.291H53.1862L57.101 136.771H87.7965L91.7113 187.291Z" fill="white"/>
</mask>
<g mask="url(#mask3_302_179)">
<path d="M60.4761 135.18C63.278 181.298 70.7348 185.674 91.7112 187.291C112.688 188.908 53.1861 203.113 53.1861 203.113L39.4806 172.305L57.6327 125.113" fill="url(#paint39_linear_302_179)"/>
</g>
<path d="M65.1517 138.986H64.5139V133.048C64.5139 128.666 68.0665 125.113 72.4487 125.113C76.8309 125.113 80.3835 128.666 80.3835 133.048V138.589H79.7457V133.048C79.7457 129.018 76.4787 125.751 72.4487 125.751C68.4187 125.751 65.1517 129.018 65.1517 133.048L65.1517 138.986Z" fill="url(#paint40_linear_302_179)"/>
<path d="M40.0151 146.807H39.4806V141.83C39.4806 138.158 42.4579 135.18 46.1306 135.18C49.8034 135.18 52.7807 138.158 52.7807 141.83V146.474H52.2462V141.83C52.2462 138.453 49.5082 135.715 46.1306 135.715C42.7531 135.715 40.0151 138.453 40.0151 141.83L40.0151 146.807Z" fill="url(#paint41_linear_302_179)"/>
<path d="M63.7425 187.291H31.4548L34.7358 144.951H60.4615L63.7425 187.291Z" fill="url(#paint42_linear_302_179)"/>
<path d="M57.6328 187.291H25.3452L28.6261 144.951H54.3518L57.6328 187.291Z" fill="url(#paint43_linear_302_179)"/>
<mask id="mask4_302_179" style="mask-type:luminance" maskUnits="userSpaceOnUse" x="25" y="144" width="33" height="44">
<path fill-rule="evenodd" clip-rule="evenodd" d="M57.6328 187.291H25.3452L28.6261 144.951H54.3518L57.6328 187.291Z" fill="white"/>
</mask>
<g mask="url(#mask4_302_179)">
<path d="M31.4548 138.986C25.8033 209.059 83.9465 189.238 83.9465 189.238L4.33002 209.792L14.5711 136.771" fill="url(#paint44_linear_302_179)"/>
</g>
<path d="M35.3734 146.807H34.8389V141.83C34.8389 138.158 37.8162 135.18 41.4889 135.18C45.1617 135.18 48.139 138.158 48.139 141.83V146.474H47.6045V141.83C47.6002 138.456 44.8634 135.722 41.4889 135.722C38.1145 135.722 35.3777 138.456 35.3734 141.83V146.807Z" fill="url(#paint45_linear_302_179)"/>
<rect x="77.5135" y="112.606" width="112.601" height="75.0673" rx="6.94766" fill="url(#paint46_linear_302_179)"/>
<mask id="mask5_302_179" style="mask-type:luminance" maskUnits="userSpaceOnUse" x="77" y="112" width="114" height="76">
<rect x="77.5135" y="112.606" width="112.601" height="75.0673" rx="6.94766" fill="white"/>
</mask>
<g mask="url(#mask5_302_179)">
<rect x="54.3763" y="124.946" width="147.05" height="13.3681" fill="url(#paint47_linear_302_179)"/>
<rect x="118.261" y="150.14" width="40.8757" height="7.06969" fill="url(#paint48_linear_302_179)"/>
<rect x="165.435" y="150.14" width="15.2511" height="7.06969" fill="url(#paint49_linear_302_179)"/>
<path d="M190.114 138.314C187.835 205.478 72.0105 177.809 72.0105 177.809L71.0452 210.011L157.913 212.327L193.948 200.33L193.626 145.635" fill="url(#paint50_linear_302_179)"/>
</g>
<path d="M187.085 131.654C187.085 131.654 181.364 146.017 184.496 154.203L183.67 156.368L176.231 145.912L177.748 139.416L179.389 127.446L185.849 131.557L187.085 131.654Z" fill="url(#paint51_linear_302_179)"/>
<mask id="mask6_302_179" style="mask-type:luminance" maskUnits="userSpaceOnUse" x="176" y="127" width="12" height="30">
<path fill-rule="evenodd" clip-rule="evenodd" d="M187.085 131.654C187.085 131.654 181.364 146.017 184.496 154.203L183.67 156.368L176.231 145.912L177.748 139.416L179.389 127.446L185.849 131.557L187.085 131.654Z" fill="white"/>
</mask>
<g mask="url(#mask6_302_179)">
<path opacity="0.34" d="M177.576 137.342C178.067 132.068 184.708 134.87 187.085 134.153C189.462 133.436 176.786 130.965 176.786 130.965L176.534 133.295" fill="url(#paint52_linear_302_179)"/>
</g>
<path d="M177.748 139.416L174.538 141.5C173.681 142.048 173.256 143.07 173.471 144.064L177.33 153.977C177.735 155.005 178.564 155.808 179.604 156.181L188.625 159.462C188.625 159.462 190.481 157.436 184.496 154.203C175.795 151.155 177.748 139.416 177.748 139.416Z" fill="url(#paint53_linear_302_179)"/>
<path d="M175.639 131.946C175.639 131.946 186.819 135.275 189.299 134.395L193.626 108.935C194.166 105.755 192.151 102.692 188.965 101.85L158.861 93.8926L161.729 83.7384L148.715 84.8677L145.333 99.8358L147.813 108.861L178.251 113.043L175.639 131.946Z" fill="url(#paint54_linear_302_179)"/>
<mask id="mask7_302_179" style="mask-type:luminance" maskUnits="userSpaceOnUse" x="145" y="83" width="49" height="52">
<path fill-rule="evenodd" clip-rule="evenodd" d="M175.639 131.946C175.639 131.946 186.819 135.275 189.299 134.395L193.626 108.935C194.166 105.755 192.151 102.692 188.965 101.85L158.861 93.8926L161.729 83.7384L148.715 84.8677L145.333 99.8358L147.813 108.861L178.251 113.043L175.639 131.946Z" fill="white"/>
</mask>
<g mask="url(#mask7_302_179)">
<path opacity="0.51" d="M154.955 94.1852C154.955 94.1852 158.308 100.787 161.535 101.711C168.303 103.651 168.016 105.076 167.099 108.81C166.183 112.543 176.231 113.85 176.231 113.85L167.51 116.79L157.138 110.37L154.955 94.1852Z" fill="url(#paint55_linear_302_179)"/>
</g>
<path d="M171.149 163.56C171.149 163.56 170.924 178.969 176.786 185.572V187.884L166.076 180.62L165.174 174.016L162.432 162.24L169.956 163.891L171.149 163.56Z" fill="url(#paint56_linear_302_179)"/>
<mask id="mask8_302_179" style="mask-type:luminance" maskUnits="userSpaceOnUse" x="162" y="162" width="15" height="26">
<path fill-rule="evenodd" clip-rule="evenodd" d="M171.149 163.56C171.149 163.56 170.924 178.969 176.786 185.572V187.884L166.076 180.62L165.174 174.016L162.432 162.24L169.956 163.891L171.149 163.56Z" fill="white"/>
</mask>
<g mask="url(#mask8_302_179)">
<path opacity="0.34" d="M164.905 172.86C163.852 168.335 170.284 168.068 171.6 166.717C172.916 165.366 160.59 166.224 160.59 166.224L161.326 170.517" fill="url(#paint57_linear_302_179)"/>
</g>
<path d="M165.174 174.016L162.912 177.063C162.304 177.876 162.271 178.982 162.829 179.829L169.989 187.803C170.735 188.628 171.796 189.097 172.908 189.094H182.535C182.535 189.094 183.55 186.563 176.786 185.572C167.542 185.682 165.174 174.016 165.174 174.016Z" fill="url(#paint58_linear_302_179)"/>
<path d="M179.83 70.2043C179.896 74.3964 175.588 74.0689 175.81 75.903L163.651 76.689L161.385 83.9596L181.206 79.833V69.5493L179.83 70.2043Z" fill="url(#paint59_linear_302_179)"/>
<mask id="mask9_302_179" style="mask-type:luminance" maskUnits="userSpaceOnUse" x="161" y="69" width="21" height="15">
<path fill-rule="evenodd" clip-rule="evenodd" d="M179.83 70.2043C179.896 74.3964 175.588 74.0689 175.81 75.903L163.651 76.689L161.385 83.9596L181.206 79.833V69.5493L179.83 70.2043Z" fill="white"/>
</mask>
<g mask="url(#mask9_302_179)">
<path opacity="0.34" d="M166.068 75.1419C165.335 79.1377 167.174 82.7457 169.523 82.9092C171.873 83.0727 161.385 86.3895 161.385 86.3895L158.873 78.6576L166.068 75.1419Z" fill="url(#paint60_linear_302_179)"/>
</g>
<ellipse cx="182.085" cy="80.5567" rx="3.26999" ry="0.49755" fill="url(#paint61_linear_302_179)"/>
<path d="M185.355 80.5567H178.815L177.887 66.5822H186.284L185.355 80.5567Z" fill="url(#paint62_linear_302_179)"/>
<mask id="mask10_302_179" style="mask-type:luminance" maskUnits="userSpaceOnUse" x="177" y="66" width="10" height="15">
<path fill-rule="evenodd" clip-rule="evenodd" d="M185.355 80.5567H178.815L177.887 66.5822H186.284L185.355 80.5567Z" fill="white"/>
</mask>
<g mask="url(#mask10_302_179)">
<path d="M181.959 71.6633C180.391 71.6732 178.824 71.5978 177.265 71.4375V77.1373C180.387 77.4382 183.531 77.4382 186.653 77.1373V71.4375C185.094 71.5978 183.527 71.6732 181.959 71.6633Z" fill="url(#paint63_linear_302_179)"/>
</g>
<ellipse cx="182.085" cy="66.5822" rx="4.41436" ry="0.61299" fill="url(#paint64_linear_302_179)"/>
<path d="M177.57 69.0581C179.306 68.7306 180.027 70.6301 178.553 74.4292L176.686 77.3767L174.917 76.4597L175.81 75.903C175.703 73.2829 178.153 73.6688 177.57 69.0581Z" fill="url(#paint65_linear_302_179)"/>
<path d="M185.405 77.7842C185.663 77.6884 185.896 77.5968 186.009 77.5403L187.18 72.5444C187.34 71.8624 186.68 71.1729 185.983 71.1111L185.911 72.1365C184.495 72.776 184.29 75.4543 184.295 77.0167C184.296 77.2858 184.428 77.5375 184.649 77.6905C184.87 77.8435 185.153 77.8785 185.405 77.7842Z" fill="url(#paint66_linear_302_179)"/>
<path d="M159.763 168.953C159.763 168.953 170.811 168.575 173.516 165.352L170.901 124.79C170.841 123.871 170.516 122.99 169.965 122.254L151.775 97.8548L155.479 84.8678L142.702 84.4118L141.5 88.6098L135.839 100.369C132.985 106.299 134.902 113.374 140.388 117.149L158.41 129.552L159.763 168.953Z" fill="url(#paint67_linear_302_179)"/>
<mask id="mask11_302_179" style="mask-type:luminance" maskUnits="userSpaceOnUse" x="134" y="84" width="40" height="85">
<path fill-rule="evenodd" clip-rule="evenodd" d="M159.763 168.953C159.763 168.953 170.811 168.575 173.516 165.352L170.901 124.79C170.841 123.871 170.516 122.99 169.965 122.254L151.775 97.8547L155.479 84.8677L142.702 84.4117L141.5 88.6098L135.839 100.369C132.985 106.299 134.902 113.374 140.388 117.149L158.41 129.552L159.763 168.953Z" fill="white"/>
</mask>
<g mask="url(#mask11_302_179)">
<path d="M151.681 80.0592C139.429 115.366 137.671 110.973 155.519 126.91C169.523 139.416 126.419 129.543 126.419 129.543L131.355 95.9654L132.031 92.0216" fill="url(#paint68_linear_302_179)"/>
</g>
<path d="M147.554 82.4161L161.729 83.7384C161.729 83.7384 170.418 60.1984 161.46 51.4853L144.205 53.1327L148.009 86.3895L147.554 82.4161Z" fill="url(#paint69_linear_302_179)"/>
<path d="M140.646 82.3398C149.727 86.7576 163.058 84.72 165.512 81.7747C163.897 64.3274 171.954 61.8002 163.359 52.5472C162.838 51.9907 162.154 51.615 161.405 51.4749C158.258 50.8759 149.333 49.731 141.505 53.9917L140.646 82.3398Z" fill="url(#paint70_linear_302_179)"/>
<mask id="mask12_302_179" style="mask-type:luminance" maskUnits="userSpaceOnUse" x="140" y="50" width="28" height="35">
<path fill-rule="evenodd" clip-rule="evenodd" d="M140.646 82.3398C149.727 86.7576 163.058 84.72 165.512 81.7747C163.897 64.3274 171.954 61.8002 163.359 52.5472C162.838 51.9907 162.154 51.615 161.405 51.4749C158.258 50.8759 149.333 49.731 141.505 53.9917L140.646 82.3398Z" fill="white"/>
</mask>
<g mask="url(#mask12_302_179)">
<ellipse cx="154.767" cy="52.2622" rx="3.9707" ry="6.99497" transform="rotate(-62.2285 154.767 52.2622)" fill="url(#paint71_linear_302_179)"/>
<path d="M149.972 60.4958C154.323 84.8775 161.385 85.1623 167.276 81.7262L171.295 86.3895C171.295 86.3895 147.164 86.5198 142.678 87.6818C138.191 88.8439 134.205 85.4077 134.205 85.4077L139.541 72.0314L148.886 62.3366" fill="url(#paint72_linear_302_179)"/>
</g>
<path d="M151.131 48.7736C124.027 56.4556 148.886 27.9802 154.918 29.823C165.457 25.6578 167.855 50.9646 157.284 48.7557L151.131 48.7736Z" fill="url(#paint73_linear_302_179)"/>
<mask id="mask13_302_179" style="mask-type:luminance" maskUnits="userSpaceOnUse" x="138" y="29" width="27" height="22">
<path fill-rule="evenodd" clip-rule="evenodd" d="M151.131 48.7736C124.027 56.4556 148.886 27.9802 154.918 29.823C165.457 25.6578 167.855 50.9646 157.284 48.7557L151.131 48.7736Z" fill="white"/>
</mask>
<g mask="url(#mask13_302_179)">
<path d="M140.339 42.7016C148.41 49.4176 150.447 46.3302 151.038 43.5955C151.629 40.8608 151.936 47.733 151.936 47.733L151.813 49.7579L143.162 48.8927L139.419 44.481" fill="url(#paint74_linear_302_179)"/>
</g>
<path d="M157.379 44.5274L156.811 53.4258L150.316 51.6288L151.114 40.5739L157.379 44.5274Z" fill="url(#paint75_linear_302_179)"/>
<mask id="mask14_302_179" style="mask-type:luminance" maskUnits="userSpaceOnUse" x="150" y="40" width="8" height="14">
<path fill-rule="evenodd" clip-rule="evenodd" d="M157.379 44.5274L156.811 53.4258L150.316 51.6288L151.114 40.5739L157.379 44.5274Z" fill="white"/>
</mask>
<g mask="url(#mask14_302_179)">
<path opacity="0.34" d="M151.557 43.3878C155.692 48.5528 152.477 49.3318 157.554 50.2813C162.63 51.2308 156.109 44.7009 156.109 44.7009L152.038 43.5955" fill="url(#paint76_linear_302_179)"/>
</g>
<path d="M151.699 36.0708L150.752 43.3599C150.752 43.3599 153.676 47.886 157.284 48.7557C161.017 49.6556 162.661 39.8573 161.582 36.7334C160.503 33.6095 155.391 33.0416 155.391 33.0416L150.752 36.7334L151.699 36.0708Z" fill="url(#paint77_linear_302_179)"/>
<path d="M149.743 38.2165C149.743 38.2165 159.299 41.6846 160.624 35.2474C160.624 35.2474 163.869 42.7312 163.244 35.9466C163.244 35.9466 159.462 29.3812 154.602 30.959C149.743 32.5367 149.743 38.2165 149.743 38.2165Z" fill="url(#paint78_linear_302_179)"/>
<path d="M152.619 39.5569C148.018 35.5964 147.887 42.0854 151.038 43.5955L152.619 39.5569Z" fill="url(#paint79_linear_302_179)"/>
<path d="M138.224 61.8566C138.224 61.8566 139.821 85.2948 140.305 85.9804L161.13 112.253C161.13 112.253 163.091 112.506 160.945 106.467C159.677 102.897 161.425 103.626 160.579 102.409C159.732 101.193 156.081 98.4995 156.081 98.4995L149 83.7284L147.404 56.1685L138.224 61.8566Z" fill="url(#paint80_linear_302_179)"/>
<mask id="mask15_302_179" style="mask-type:luminance" maskUnits="userSpaceOnUse" x="138" y="56" width="24" height="57">
<path fill-rule="evenodd" clip-rule="evenodd" d="M138.224 61.8566C138.224 61.8566 139.821 85.2948 140.305 85.9804L161.13 112.253C161.13 112.253 163.091 112.506 160.945 106.467C159.677 102.897 161.425 103.626 160.579 102.409C159.732 101.193 156.081 98.4995 156.081 98.4995L149 83.7284L147.404 56.1685L138.224 61.8566Z" fill="white"/>
</mask>
<g mask="url(#mask15_302_179)">
<path opacity="0.34" d="M138.842 81.0543C139.25 74.3243 144.825 77.7377 148.872 75.1283C152.919 72.5189 135.98 72.2802 135.98 72.2802L136.307 75.8858L134.525 80.5568" fill="url(#paint81_linear_302_179)"/>
</g>
<path d="M134.205 72.7741C145.508 79.2767 151.681 73.5695 151.681 73.5695L150.143 57.989C149.595 54.9427 146.751 52.8638 143.682 53.2662V53.2662C141.424 53.5624 139.548 55.1532 138.887 57.3327L134.205 72.7741Z" fill="url(#paint82_linear_302_179)"/>
<path d="M180.763 65.1617H179.643L178.31 55.7105H179.43L180.763 65.1617Z" fill="url(#paint83_linear_302_179)"/>
<path d="M116.601 53.795C122.183 55.2597 119.967 70.0917 119.967 70.0917L130.481 57.6379L123.541 47.941L116.601 53.795Z" fill="url(#paint84_linear_302_179)"/>
<mask id="mask16_302_179" style="mask-type:luminance" maskUnits="userSpaceOnUse" x="116" y="47" width="15" height="24">
<path fill-rule="evenodd" clip-rule="evenodd" d="M116.601 53.795C122.183 55.2597 119.967 70.0917 119.967 70.0917L130.481 57.6379L123.541 47.941L116.601 53.795Z" fill="white"/>
</mask>
<g mask="url(#mask16_302_179)">
<path opacity="0.34" d="M118.863 61.2911C124.461 56.3586 120.05 54.3342 122.647 51.2555C125.243 48.1767 117.596 50.9738 117.596 50.9738L115.182 55.0373L117.596 58.5606" fill="url(#paint85_linear_302_179)"/>
</g>
<path d="M115.322 37.485C109.321 50.8727 112.894 59.1244 120.187 54.2831C127.764 49.2544 124.597 45.7469 124.597 45.7469L119.241 38.4361L115.322 37.485Z" fill="url(#paint86_linear_302_179)"/>
<path d="M123.239 46.6569C119.92 47.5966 116.148 41.1666 117.808 38.7884C106.04 38.4361 111.205 31.3015 113.828 34.5605C108.755 23.7265 116.978 30.0683 117.732 34.4724C118.487 38.8765 124.899 41.4123 124.899 41.4123C124.899 41.4123 127.313 45.4826 127.313 45.7469C127.313 46.0111 125.352 51.6483 125.352 51.6483C125.352 51.6483 121.086 51.0627 123.239 46.6569Z" fill="url(#paint87_linear_302_179)"/>
<path d="M119.468 34.3822C109.525 14.2556 114.843 29.7139 117.597 35.0428C120.35 40.3718 119.468 34.3822 119.468 34.3822Z" fill="url(#paint88_linear_302_179)"/>
<path d="M117.596 35.0428C123.405 29.0532 134.771 39.7705 126.063 49.585L117.596 35.0428Z" fill="url(#paint89_linear_302_179)"/>
<path d="M117.481 62.7087L126.458 52.6288C127.571 51.2714 129.535 52.0652 129.691 53.9354L129.837 55.6916L117.481 62.7087Z" fill="url(#paint90_linear_302_179)"/>
<path d="M108.141 74.3906L100.167 68.6878C100.167 68.6878 97.8412 57.7477 97.4092 57.5149C96.9773 57.2822 90.1993 53.3251 90.1993 53.3251C90.1993 53.3251 88.3765 54.4045 93.5883 57.8641C93.5883 57.8641 92.4919 62.2867 92.5916 62.7522C92.6912 63.2178 97.7747 74.3906 97.7747 74.3906L103.556 81.1409L108.141 74.3906Z" fill="url(#paint91_linear_302_179)"/>
<path d="M86.8003 56.1293L84.8924 57.4727L77.0295 42.2481C76.4955 41.2142 76.7805 39.8706 77.666 39.2471L77.9705 39.0327L86.8003 56.1293Z" fill="url(#paint92_linear_302_179)"/>
<mask id="mask17_302_179" style="mask-type:luminance" maskUnits="userSpaceOnUse" x="76" y="39" width="11" height="19">
<path fill-rule="evenodd" clip-rule="evenodd" d="M86.8003 56.1293L84.8924 57.4727L77.0295 42.2481C76.4955 41.2142 76.7805 39.8706 77.666 39.2471L77.9706 39.0327L86.8003 56.1293Z" fill="white"/>
</mask>
<g mask="url(#mask17_302_179)">
<path d="M88.2357 55.3931L86.3278 56.7365L78.4649 41.5119C77.9309 40.478 78.2159 39.1344 79.1014 38.5109L79.4059 38.2965L88.2357 55.3931Z" fill="url(#paint93_linear_302_179)"/>
</g>
<path d="M95.4538 69.4519L89.7307 62.5232C89.7307 62.5232 88.1414 54.9219 88.0875 54.5314C88.0336 54.1408 84.9985 49.2712 84.4073 51.1087L85.3594 53.3231C85.5931 53.8667 85.4441 54.5284 85.0116 54.8674C84.5846 55.2022 84.0118 55.1196 83.6673 54.6737L79.7351 49.5837C79.7351 49.5837 77.9097 50.5129 80.5174 54.199C80.5174 54.199 80.116 60.4706 80.8779 61.591C81.6398 62.7115 85.6342 65.814 86.1205 67.233L95.4538 82.1383V69.4519Z" fill="url(#paint94_linear_302_179)"/>
<mask id="mask18_302_179" style="mask-type:luminance" maskUnits="userSpaceOnUse" x="79" y="49" width="17" height="34">
<path fill-rule="evenodd" clip-rule="evenodd" d="M95.4538 69.4519L89.7307 62.5232C89.7307 62.5232 88.1414 54.9219 88.0875 54.5314C88.0336 54.1408 84.9985 49.2712 84.4073 51.1087L85.3594 53.3231C85.5931 53.8667 85.4441 54.5284 85.0116 54.8674C84.5846 55.2022 84.0118 55.1196 83.6673 54.6737L79.7351 49.5837C79.7351 49.5837 77.9097 50.5129 80.5174 54.199C80.5174 54.199 80.116 60.4706 80.8779 61.591C81.6398 62.7115 85.6342 65.814 86.1205 67.233L95.4538 82.1383V69.4519Z" fill="white"/>
</mask>
<g mask="url(#mask18_302_179)">
<path opacity="0.34" d="M93.5603 66.269C89.113 65.7837 90.4919 72.4528 88.4101 70.8896C86.3283 69.3264 87.4505 75.1625 87.4505 75.1625L90.8587 76.2176L93.4771 75.1625" fill="url(#paint95_linear_302_179)"/>
</g>
<path d="M87.2981 132.299L92.9528 154.517C92.9528 154.517 85.4867 160.809 85.7919 160.009C86.3158 158.636 79.6789 142.867 79.6789 142.867L87.2981 132.299Z" fill="url(#paint96_linear_302_179)"/>
<mask id="mask19_302_179" style="mask-type:luminance" maskUnits="userSpaceOnUse" x="79" y="132" width="14" height="29">
<path fill-rule="evenodd" clip-rule="evenodd" d="M87.2981 132.299L92.9528 154.517C92.9528 154.517 85.4867 160.809 85.7919 160.009C86.3158 158.636 79.6789 142.867 79.6789 142.867L87.2981 132.299Z" fill="white"/>
</mask>
<g mask="url(#mask19_302_179)">
<path opacity="0.34" d="M83.876 155.419C82.837 151.779 90.6508 150.663 91.6068 148.139C92.5627 145.615 83.6682 147.896 83.6682 147.896L81.8562 149.983" fill="url(#paint97_linear_302_179)"/>
</g>
<path d="M81.9402 151.279C90.4096 151.279 94.2094 146.189 94.2094 146.189L82.048 106.419L69.5029 112.418L81.9402 151.279Z" fill="url(#paint98_linear_302_179)"/>
<path d="M84.5985 156.358C84.5985 156.358 90.4402 154.777 92.2305 150.778L95.5748 159.534C96.0217 160.704 95.688 162.132 94.8203 162.763L83.3216 171.127C83.0632 171.321 82.7488 171.427 82.4256 171.427L67.7198 171.294C68.6749 163.949 87.2981 169.044 84.5985 156.358Z" fill="url(#paint99_linear_302_179)"/>
<path d="M39.9172 163.538L54.3227 133.723L63.7994 137.804L51.9174 157.385L49.9424 167.832L39.9172 163.538Z" fill="url(#paint100_linear_302_179)"/>
<mask id="mask20_302_179" style="mask-type:luminance" maskUnits="userSpaceOnUse" x="39" y="133" width="25" height="35">
<path fill-rule="evenodd" clip-rule="evenodd" d="M39.9172 163.538L54.3227 133.723L63.7994 137.804L51.9174 157.385L49.9424 167.832L39.9172 163.538Z" fill="white"/>
</mask>
<g mask="url(#mask20_302_179)">
<path opacity="0.34" d="M49.3518 144.011C44.8067 143.383 55.4884 149.689 53.244 155.199C50.9996 160.708 56.2781 151.876 56.2781 151.876L55.1143 146.538" fill="url(#paint101_linear_302_179)"/>
</g>
<path d="M20.5508 171.539C21.9355 165.248 30.8564 166.923 36.566 162.988C42.2756 159.054 41.8728 155.537 41.8728 155.537L51.9174 158.859L50.4636 167.307C50.1771 168.972 48.8772 170.393 47.5936 170.445L20.5508 171.539Z" fill="url(#paint102_linear_302_179)"/>
<path d="M48.2087 143.29C48.2087 143.29 54.7878 153.872 60.5667 154.205L76.3497 118.659L118.121 119.083C122.373 119.127 126.016 115.067 126.712 109.511L128.612 94.3605L110.521 87.0377L104.742 97.0234L71.2722 100.364C69.253 100.566 67.4288 102.036 66.3653 104.318L48.2087 143.29Z" fill="url(#paint103_linear_302_179)"/>
<mask id="mask21_302_179" style="mask-type:luminance" maskUnits="userSpaceOnUse" x="48" y="87" width="81" height="68">
<path fill-rule="evenodd" clip-rule="evenodd" d="M48.2087 143.29C48.2087 143.29 54.7878 153.872 60.5667 154.205L76.3497 118.659L118.121 119.083C122.373 119.127 126.016 115.067 126.712 109.511L128.612 94.3605L110.521 87.0377L104.742 97.0234L71.2722 100.364C69.253 100.566 67.4288 102.036 66.3653 104.318L48.2087 143.29Z" fill="white"/>
</mask>
<g mask="url(#mask21_302_179)">
<path d="M104.742 97.0234C138.739 120.621 105.578 116.717 105.821 120.621C106.065 124.525 141.067 119.603 141.067 119.603L110.521 87.0377" fill="url(#paint104_linear_302_179)"/>
</g>
<path d="M97.4092 92.0034C97.4092 92.0034 116.794 106.59 127.426 106.59C127.426 106.59 141.533 74.6234 129.837 55.6916L117.481 62.7087L97.4092 92.0034Z" fill="url(#paint105_linear_302_179)"/>
<mask id="mask22_302_179" style="mask-type:luminance" maskUnits="userSpaceOnUse" x="97" y="55" width="38" height="52">
<path fill-rule="evenodd" clip-rule="evenodd" d="M97.4092 92.0034C97.4092 92.0034 116.794 106.59 127.426 106.59C127.426 106.59 141.533 74.6234 129.837 55.6916L117.481 62.7087L97.4092 92.0034Z" fill="white"/>
</mask>
<g mask="url(#mask22_302_179)">
<path d="M128.545 73.3239C109.645 93.3972 127.426 106.59 127.426 106.59C127.426 106.59 92.3549 110.286 91.8562 108.83C91.3574 107.374 89.3077 81.1409 89.3077 81.1409L110.361 79.1294" fill="url(#paint106_linear_302_179)"/>
</g>
<path d="M93.4437 65.792C93.4437 65.792 88.7884 69.9357 89.3556 77.1039L100.614 89.5693C102.726 91.9081 105.962 92.1699 108.331 90.1934L128.545 73.324C131.572 70.798 132.321 65.914 130.232 62.3192V62.3192C128.047 58.5588 123.622 57.6745 120.49 60.3722L104.616 74.0468L93.4437 65.792Z" fill="url(#paint107_linear_302_179)"/>
<defs>
<linearGradient id="paint0_linear_302_179" x1="0.128464" y1="185.922" x2="276.119" y2="185.922" gradientUnits="userSpaceOnUse">
<stop offset="0.1035" stop-color="#F6FBFF"/>
<stop offset="0.8866" stop-color="#E9EFFC"/>
</linearGradient>
<linearGradient id="paint1_linear_302_179" x1="0.128464" y1="26.59" x2="276.119" y2="26.59" gradientUnits="userSpaceOnUse">
<stop offset="0.0083" stop-color="#DE0D4F"/>
<stop offset="1" stop-color="#DE0D4F"/>
</linearGradient>
<linearGradient id="paint2_linear_302_179" x1="29.4165" y1="106.489" x2="87.1748" y2="106.489" gradientUnits="userSpaceOnUse">
<stop offset="0.1035" stop-color="#F6FBFF"/>
<stop offset="0.8866" stop-color="#E9EFFC"/>
</linearGradient>
<linearGradient id="paint3_linear_302_179" x1="33.6881" y1="121.146" x2="81.2307" y2="121.146" gradientUnits="userSpaceOnUse">
<stop offset="0.1035" stop-color="#F6FBFF"/>
<stop offset="0.8866" stop-color="#E9EFFC"/>
</linearGradient>
<linearGradient id="paint4_linear_302_179" x1="33.6881" y1="129.257" x2="68.266" y2="129.257" gradientUnits="userSpaceOnUse">
<stop offset="0.1035" stop-color="#F6FBFF"/>
<stop offset="0.8866" stop-color="#E9EFFC"/>
</linearGradient>
<linearGradient id="paint5_linear_302_179" x1="65.6442" y1="117.482" x2="93.3501" y2="78.61" gradientUnits="userSpaceOnUse">
<stop offset="0.0035" stop-color="#4AAAFD"/>
<stop offset="1" stop-color="#DE0D4F"/>
</linearGradient>
<linearGradient id="paint6_linear_302_179" x1="202.009" y1="106.489" x2="259.767" y2="106.489" gradientUnits="userSpaceOnUse">
<stop offset="0.1035" stop-color="#F6FBFF"/>
<stop offset="0.8866" stop-color="#E9EFFC"/>
</linearGradient>
<linearGradient id="paint7_linear_302_179" x1="206.281" y1="121.146" x2="253.823" y2="121.146" gradientUnits="userSpaceOnUse">
<stop offset="0.1035" stop-color="#F6FBFF"/>
<stop offset="0.8866" stop-color="#E9EFFC"/>
</linearGradient>
<linearGradient id="paint8_linear_302_179" x1="206.281" y1="129.257" x2="240.859" y2="129.257" gradientUnits="userSpaceOnUse">
<stop offset="0.1035" stop-color="#F6FBFF"/>
<stop offset="0.8866" stop-color="#E9EFFC"/>
</linearGradient>
<linearGradient id="paint9_linear_302_179" x1="215.61" y1="98.1858" x2="246.166" y2="98.1858" gradientUnits="userSpaceOnUse">
<stop offset="0.0048" stop-color="#B68BFF"/>
<stop offset="0.9986" stop-color="#8948FF"/>
</linearGradient>
<linearGradient id="paint10_linear_302_179" x1="241.815" y1="78.4236" x2="246.167" y2="78.4236" gradientUnits="userSpaceOnUse">
<stop offset="0.0048" stop-color="#B68BFF"/>
<stop offset="0.9986" stop-color="#8948FF"/>
</linearGradient>
<linearGradient id="paint11_linear_302_179" x1="215.61" y1="78.4991" x2="219.962" y2="78.4991" gradientUnits="userSpaceOnUse">
<stop offset="0.0048" stop-color="#B68BFF"/>
<stop offset="0.9986" stop-color="#8948FF"/>
</linearGradient>
<linearGradient id="paint12_linear_302_179" x1="215.748" y1="66.5453" x2="246.029" y2="66.5453" gradientUnits="userSpaceOnUse">
<stop offset="0.0048" stop-color="#B68BFF"/>
<stop offset="0.9986" stop-color="#8948FF"/>
</linearGradient>
<linearGradient id="paint13_linear_302_179" x1="115.713" y1="106.489" x2="173.471" y2="106.489" gradientUnits="userSpaceOnUse">
<stop offset="0.1035" stop-color="#F6FBFF"/>
<stop offset="0.8866" stop-color="#E9EFFC"/>
</linearGradient>
<linearGradient id="paint14_linear_302_179" x1="119.984" y1="121.146" x2="167.527" y2="121.146" gradientUnits="userSpaceOnUse">
<stop offset="0.1035" stop-color="#F6FBFF"/>
<stop offset="0.8866" stop-color="#E9EFFC"/>
</linearGradient>
<linearGradient id="paint15_linear_302_179" x1="119.984" y1="129.257" x2="154.562" y2="129.257" gradientUnits="userSpaceOnUse">
<stop offset="0.1035" stop-color="#F6FBFF"/>
<stop offset="0.8866" stop-color="#E9EFFC"/>
</linearGradient>
<linearGradient id="paint16_linear_302_179" x1="201.667" y1="147.178" x2="223.803" y2="147.178" gradientUnits="userSpaceOnUse">
<stop offset="0.1011" stop-color="#FFDF94"/>
<stop offset="1" stop-color="#FFA200"/>
</linearGradient>
<linearGradient id="paint17_linear_302_179" x1="201.667" y1="147.179" x2="220.119" y2="147.179" gradientUnits="userSpaceOnUse">
<stop offset="0.1011" stop-color="#FFDF94"/>
<stop offset="1" stop-color="#FFA200"/>
</linearGradient>
<linearGradient id="paint18_linear_302_179" x1="183.216" y1="143.82" x2="198.308" y2="143.82" gradientUnits="userSpaceOnUse">
<stop offset="0.1011" stop-color="#FFDF94"/>
<stop offset="1" stop-color="#FFA200"/>
</linearGradient>
<linearGradient id="paint19_linear_302_179" x1="179.531" y1="147.178" x2="201.667" y2="147.178" gradientUnits="userSpaceOnUse">
<stop offset="0.1011" stop-color="#FFDF94"/>
<stop offset="1" stop-color="#FFA200"/>
</linearGradient>
<linearGradient id="paint20_linear_302_179" x1="199.071" y1="148.448" x2="199.244" y2="153.718" gradientUnits="userSpaceOnUse">
<stop offset="0.1011" stop-color="#FFDF94"/>
<stop offset="1" stop-color="#FFA200"/>
</linearGradient>
<linearGradient id="paint21_linear_302_179" x1="229.217" y1="199.314" x2="229.081" y2="165.105" gradientUnits="userSpaceOnUse">
<stop offset="0.0048" stop-color="#FF88D6"/>
<stop offset="0.9986" stop-color="#FF16B4"/>
</linearGradient>
<linearGradient id="paint22_linear_302_179" x1="252.007" y1="163.02" x2="251.971" y2="144.359" gradientUnits="userSpaceOnUse">
<stop offset="0.0048" stop-color="#FF88D6"/>
<stop offset="0.9986" stop-color="#FF16B4"/>
</linearGradient>
<linearGradient id="paint23_linear_302_179" x1="210.258" y1="189.694" x2="210.258" y2="141.491" gradientUnits="userSpaceOnUse">
<stop offset="0.1011" stop-color="#FFDF94"/>
<stop offset="1" stop-color="#FFA200"/>
</linearGradient>
<linearGradient id="paint24_linear_302_179" x1="234.339" y1="168.327" x2="234.524" y2="178.255" gradientUnits="userSpaceOnUse">
<stop offset="0.1011" stop-color="#FFDF94"/>
<stop offset="1" stop-color="#FFA200"/>
</linearGradient>
<linearGradient id="paint25_linear_302_179" x1="238.643" y1="163.515" x2="248.409" y2="163.515" gradientUnits="userSpaceOnUse">
<stop offset="0.1011" stop-color="#FFDF94"/>
<stop offset="1" stop-color="#FFA200"/>
</linearGradient>
<linearGradient id="paint26_linear_302_179" x1="228.771" y1="169.505" x2="229.615" y2="179.422" gradientUnits="userSpaceOnUse">
<stop offset="0.1011" stop-color="#FFDF94"/>
<stop offset="1" stop-color="#FFA200"/>
</linearGradient>
<linearGradient id="paint27_linear_302_179" x1="233.162" y1="163.516" x2="238.643" y2="163.516" gradientUnits="userSpaceOnUse">
<stop offset="0.1011" stop-color="#FFDF94"/>
<stop offset="1" stop-color="#FFA200"/>
</linearGradient>
<linearGradient id="paint28_linear_302_179" x1="239.322" y1="169.033" x2="241.483" y2="178.654" gradientUnits="userSpaceOnUse">
<stop offset="0.1011" stop-color="#FFDF94"/>
<stop offset="1" stop-color="#FFA200"/>
</linearGradient>
<linearGradient id="paint29_linear_302_179" x1="226.926" y1="163.515" x2="238.643" y2="163.515" gradientUnits="userSpaceOnUse">
<stop offset="0.1011" stop-color="#FFDF94"/>
<stop offset="1" stop-color="#FFA200"/>
</linearGradient>
<linearGradient id="paint30_linear_302_179" x1="243.505" y1="168.985" x2="243.322" y2="159.474" gradientUnits="userSpaceOnUse">
<stop stop-color="#FFB926"/>
<stop offset="1" stop-color="#FE6325"/>
</linearGradient>
<linearGradient id="paint31_linear_302_179" x1="259.677" y1="194.344" x2="260.941" y2="165.379" gradientUnits="userSpaceOnUse">
<stop offset="0.0048" stop-color="#B68BFF"/>
<stop offset="0.9986" stop-color="#8948FF"/>
</linearGradient>
<linearGradient id="paint32_linear_302_179" x1="206.205" y1="157.262" x2="206.2" y2="169.499" gradientUnits="userSpaceOnUse">
<stop offset="0.0048" stop-color="#B68BFF"/>
<stop offset="0.9986" stop-color="#8948FF"/>
</linearGradient>
<linearGradient id="paint33_linear_302_179" x1="234.007" y1="187.733" x2="243.279" y2="187.733" gradientUnits="userSpaceOnUse">
<stop offset="0.1011" stop-color="#FFDF94"/>
<stop offset="1" stop-color="#FFA200"/>
</linearGradient>
<linearGradient id="paint34_linear_302_179" x1="243.752" y1="175.232" x2="243.752" y2="169.131" gradientUnits="userSpaceOnUse">
<stop offset="0.0012" stop-color="#FFED15" stop-opacity="0.01"/>
<stop offset="0.6163" stop-color="#FEA415"/>
</linearGradient>
<linearGradient id="paint35_linear_302_179" x1="244.011" y1="176.824" x2="253.168" y2="176.824" gradientUnits="userSpaceOnUse">
<stop offset="0.1011" stop-color="#FFDF94"/>
<stop offset="1" stop-color="#FFA200"/>
</linearGradient>
<linearGradient id="paint36_linear_302_179" x1="70.0524" y1="138.986" x2="85.9219" y2="138.986" gradientUnits="userSpaceOnUse">
<stop offset="0.1011" stop-color="#FFDF94"/>
<stop offset="1" stop-color="#FFA200"/>
</linearGradient>
<linearGradient id="paint37_linear_302_179" x1="60.4761" y1="187.291" x2="99.0012" y2="187.291" gradientUnits="userSpaceOnUse">
<stop offset="0.0338" stop-color="#2F7CFF"/>
<stop offset="1" stop-color="#0457F7"/>
</linearGradient>
<linearGradient id="paint38_linear_302_179" x1="53.1861" y1="187.291" x2="91.7112" y2="187.291" gradientUnits="userSpaceOnUse">
<stop offset="0.0083" stop-color="#00CAFE"/>
<stop offset="1" stop-color="#0088FA"/>
</linearGradient>
<linearGradient id="paint39_linear_302_179" x1="39.4806" y1="203.113" x2="96.1908" y2="203.113" gradientUnits="userSpaceOnUse">
<stop offset="0.0083" stop-color="#DE0D4F"/>
<stop offset="1" stop-color="#DE0D4F"/>
</linearGradient>
<linearGradient id="paint40_linear_302_179" x1="64.5139" y1="138.986" x2="80.3835" y2="138.986" gradientUnits="userSpaceOnUse">
<stop offset="0.1011" stop-color="#FFDF94"/>
<stop offset="1" stop-color="#FFA200"/>
</linearGradient>
<linearGradient id="paint41_linear_302_179" x1="25.1434" y1="132.745" x2="26.3975" y2="168.47" gradientUnits="userSpaceOnUse">
<stop offset="0.1011" stop-color="#FF7638"/>
<stop offset="0.8855" stop-color="#FF3929"/>
</linearGradient>
<linearGradient id="paint42_linear_302_179" x1="2.22255" y1="177.153" x2="46.4685" y2="188.941" gradientUnits="userSpaceOnUse">
<stop offset="0.1011" stop-color="#FFDF94"/>
<stop offset="1" stop-color="#FFA200"/>
</linearGradient>
<linearGradient id="paint43_linear_302_179" x1="11.2255" y1="145.482" x2="33.6484" y2="197.168" gradientUnits="userSpaceOnUse">
<stop offset="0.1011" stop-color="#FFDF94"/>
<stop offset="1" stop-color="#FFA200"/>
</linearGradient>
<linearGradient id="paint44_linear_302_179" x1="21.0659" y1="111.713" x2="5.65627" y2="183.989" gradientUnits="userSpaceOnUse">
<stop offset="0.1011" stop-color="#FFDF94"/>
<stop offset="1" stop-color="#FFA200"/>
</linearGradient>
<linearGradient id="paint45_linear_302_179" x1="59.1065" y1="153.758" x2="53.7287" y2="129.063" gradientUnits="userSpaceOnUse">
<stop offset="0.1011" stop-color="#FF7638"/>
<stop offset="0.8855" stop-color="#FF3929"/>
</linearGradient>
<linearGradient id="paint46_linear_302_179" x1="48.9379" y1="68.0828" x2="36.3447" y2="203.046" gradientUnits="userSpaceOnUse">
<stop offset="0.0048" stop-color="#B68BFF"/>
<stop offset="0.9986" stop-color="#8948FF"/>
</linearGradient>
<linearGradient id="paint47_linear_302_179" x1="-232.213" y1="87.7704" x2="-232.498" y2="157.203" gradientUnits="userSpaceOnUse">
<stop offset="0.1023" stop-color="#915758"/>
<stop offset="0.8855" stop-color="#2C090B"/>
</linearGradient>
<linearGradient id="paint48_linear_302_179" x1="118.261" y1="157.209" x2="159.136" y2="157.209" gradientUnits="userSpaceOnUse">
<stop offset="0.1023" stop-color="#DCDFF8"/>
<stop offset="0.8855" stop-color="#F5F7FE"/>
</linearGradient>
<linearGradient id="paint49_linear_302_179" x1="165.435" y1="157.209" x2="180.686" y2="157.209" gradientUnits="userSpaceOnUse">
<stop offset="0.1023" stop-color="#DCDFF8"/>
<stop offset="0.8855" stop-color="#F5F7FE"/>
</linearGradient>
<linearGradient id="paint50_linear_302_179" x1="50.9961" y1="84.3725" x2="51.3461" y2="181.217" gradientUnits="userSpaceOnUse">
<stop offset="0.0048" stop-color="#DE0D4F"/>
<stop offset="0.9986" stop-color="#DE0D4F"/>
</linearGradient>
<linearGradient id="paint51_linear_302_179" x1="176.231" y1="156.368" x2="187.085" y2="156.368" gradientUnits="userSpaceOnUse">
<stop offset="0.1023" stop-color="#FCADBA"/>
<stop offset="0.8855" stop-color="#FBDAD9"/>
</linearGradient>
<linearGradient id="paint52_linear_302_179" x1="176.534" y1="137.342" x2="187.382" y2="137.342" gradientUnits="userSpaceOnUse">
<stop offset="0.1011" stop-color="#FF7638"/>
<stop offset="0.8855" stop-color="#FF3929"/>
</linearGradient>
<linearGradient id="paint53_linear_302_179" x1="160.561" y1="196.96" x2="164.429" y2="192.468" gradientUnits="userSpaceOnUse">
<stop offset="0.1011" stop-color="#FFC0A0"/>
<stop offset="0.8855" stop-color="#FF3513"/>
</linearGradient>
<linearGradient id="paint54_linear_302_179" x1="242.16" y1="162.431" x2="203.912" y2="74.084" gradientUnits="userSpaceOnUse">
<stop offset="0.0048" stop-color="#FFD6A4"/>
<stop offset="0.9986" stop-color="#FF8734"/>
</linearGradient>
<linearGradient id="paint55_linear_302_179" x1="166.662" y1="123.723" x2="166.662" y2="121.452" gradientUnits="userSpaceOnUse">
<stop offset="0.0048" stop-color="#F9C491"/>
<stop offset="0.9986" stop-color="#F96F24"/>
</linearGradient>
<linearGradient id="paint56_linear_302_179" x1="162.432" y1="187.884" x2="176.786" y2="187.884" gradientUnits="userSpaceOnUse">
<stop offset="0.1023" stop-color="#FCADBA"/>
<stop offset="0.8855" stop-color="#FBDAD9"/>
</linearGradient>
<linearGradient id="paint57_linear_302_179" x1="160.59" y1="172.86" x2="171.698" y2="172.86" gradientUnits="userSpaceOnUse">
<stop offset="0.1011" stop-color="#FF7638"/>
<stop offset="0.8855" stop-color="#FF3929"/>
</linearGradient>
<linearGradient id="paint58_linear_302_179" x1="168.403" y1="199.515" x2="170.047" y2="193.795" gradientUnits="userSpaceOnUse">
<stop offset="0.1011" stop-color="#FFC0A0"/>
<stop offset="0.8855" stop-color="#FF3513"/>
</linearGradient>
<linearGradient id="paint59_linear_302_179" x1="183.465" y1="104.025" x2="203.795" y2="62.9568" gradientUnits="userSpaceOnUse">
<stop offset="0.1023" stop-color="#FCADBA"/>
<stop offset="0.8855" stop-color="#FBDAD9"/>
</linearGradient>
<linearGradient id="paint60_linear_302_179" x1="165.955" y1="95.763" x2="181.838" y2="79.5615" gradientUnits="userSpaceOnUse">
<stop offset="0.1011" stop-color="#FF7638"/>
<stop offset="0.8855" stop-color="#FF3929"/>
</linearGradient>
<linearGradient id="paint61_linear_302_179" x1="185.34" y1="71.0932" x2="185.234" y2="74.2632" gradientUnits="userSpaceOnUse">
<stop offset="0.0048" stop-color="#B68BFF"/>
<stop offset="0.9986" stop-color="#8948FF"/>
</linearGradient>
<linearGradient id="paint62_linear_302_179" x1="184.273" y1="56.203" x2="172.441" y2="63.0331" gradientUnits="userSpaceOnUse">
<stop offset="0.0048" stop-color="#B68BFF"/>
<stop offset="0.9986" stop-color="#8948FF"/>
</linearGradient>
<linearGradient id="paint63_linear_302_179" x1="179.035" y1="68.3399" x2="175.371" y2="77.8687" gradientUnits="userSpaceOnUse">
<stop offset="0.0048" stop-color="#FFD6A4"/>
<stop offset="0.9986" stop-color="#FF8734"/>
</linearGradient>
<linearGradient id="paint64_linear_302_179" x1="180.719" y1="81.2739" x2="180.728" y2="80.0839" gradientUnits="userSpaceOnUse">
<stop offset="0.0048" stop-color="#B68BFF"/>
<stop offset="0.9986" stop-color="#8948FF"/>
</linearGradient>
<linearGradient id="paint65_linear_302_179" x1="169.358" y1="120.015" x2="206.809" y2="108.773" gradientUnits="userSpaceOnUse">
<stop offset="0.1023" stop-color="#FCADBA"/>
<stop offset="0.8855" stop-color="#FBDAD9"/>
</linearGradient>
<linearGradient id="paint66_linear_302_179" x1="174.718" y1="122.567" x2="204.838" y2="116.547" gradientUnits="userSpaceOnUse">
<stop offset="0.1023" stop-color="#FCADBA"/>
<stop offset="0.8855" stop-color="#FBDAD9"/>
</linearGradient>
<linearGradient id="paint67_linear_302_179" x1="201.389" y1="149.81" x2="136.815" y2="114.822" gradientUnits="userSpaceOnUse">
<stop offset="0.0048" stop-color="#FFD6A4"/>
<stop offset="0.9986" stop-color="#FF8734"/>
</linearGradient>
<linearGradient id="paint68_linear_302_179" x1="127.718" y1="141.43" x2="131.801" y2="139.294" gradientUnits="userSpaceOnUse">
<stop offset="0.0048" stop-color="#FFD6A4"/>
<stop offset="0.9986" stop-color="#FF8734"/>
</linearGradient>
<linearGradient id="paint69_linear_302_179" x1="144.205" y1="86.3895" x2="165.512" y2="86.3895" gradientUnits="userSpaceOnUse">
<stop offset="0.1023" stop-color="#FCADBA"/>
<stop offset="0.8855" stop-color="#FBDAD9"/>
</linearGradient>
<linearGradient id="paint70_linear_302_179" x1="148.673" y1="44.3353" x2="140.084" y2="67.2808" gradientUnits="userSpaceOnUse">
<stop offset="0.0035" stop-color="#008AEE"/>
<stop offset="1" stop-color="#DE0D4F"/>
</linearGradient>
<linearGradient id="paint71_linear_302_179" x1="154.152" y1="38.9036" x2="146.013" y2="47.6277" gradientUnits="userSpaceOnUse">
<stop offset="0.1023" stop-color="#FCADBA"/>
<stop offset="0.8855" stop-color="#FBDAD9"/>
</linearGradient>
<linearGradient id="paint72_linear_302_179" x1="162.224" y1="110.504" x2="177.662" y2="72.4004" gradientUnits="userSpaceOnUse">
<stop offset="0.0035" stop-color="#DE0D4F"/>
<stop offset="1" stop-color="#DE0D4F"/>
</linearGradient>
<linearGradient id="paint73_linear_302_179" x1="164.818" y1="22.1728" x2="146.684" y2="37.2315" gradientUnits="userSpaceOnUse">
<stop offset="0.1023" stop-color="#915758"/>
<stop offset="0.8855" stop-color="#2C090B"/>
</linearGradient>
<linearGradient id="paint74_linear_302_179" x1="140.545" y1="55.0851" x2="140.63" y2="54.683" gradientUnits="userSpaceOnUse">
<stop stop-color="#262C61"/>
<stop offset="1" stop-color="#030319"/>
</linearGradient>
<linearGradient id="paint75_linear_302_179" x1="146.725" y1="51.369" x2="157.12" y2="54.4546" gradientUnits="userSpaceOnUse">
<stop offset="0.1023" stop-color="#FCADBA"/>
<stop offset="0.8855" stop-color="#FBDAD9"/>
</linearGradient>
<linearGradient id="paint76_linear_302_179" x1="154.968" y1="55.2264" x2="162.572" y2="46.2222" gradientUnits="userSpaceOnUse">
<stop offset="0.1011" stop-color="#FF7638"/>
<stop offset="0.8855" stop-color="#FF3929"/>
</linearGradient>
<linearGradient id="paint77_linear_302_179" x1="149.157" y1="61.5992" x2="167.664" y2="54.7016" gradientUnits="userSpaceOnUse">
<stop offset="0.1023" stop-color="#FCADBA"/>
<stop offset="0.8855" stop-color="#FBDAD9"/>
</linearGradient>
<linearGradient id="paint78_linear_302_179" x1="162.268" y1="24.144" x2="153.076" y2="37.3335" gradientUnits="userSpaceOnUse">
<stop offset="0.1023" stop-color="#915758"/>
<stop offset="0.8855" stop-color="#2C090B"/>
</linearGradient>
<linearGradient id="paint79_linear_302_179" x1="146.632" y1="58.907" x2="165.419" y2="51.9623" gradientUnits="userSpaceOnUse">
<stop offset="0.1023" stop-color="#FCADBA"/>
<stop offset="0.8855" stop-color="#FBDAD9"/>
</linearGradient>
<linearGradient id="paint80_linear_302_179" x1="175.75" y1="25.7437" x2="126.485" y2="25.8417" gradientUnits="userSpaceOnUse">
<stop offset="0.1023" stop-color="#FCADBA"/>
<stop offset="0.8855" stop-color="#FBDAD9"/>
</linearGradient>
<linearGradient id="paint81_linear_302_179" x1="158.439" y1="67.0646" x2="126.498" y2="68.098" gradientUnits="userSpaceOnUse">
<stop offset="0.1011" stop-color="#FF7638"/>
<stop offset="0.8855" stop-color="#FF3929"/>
</linearGradient>
<linearGradient id="paint82_linear_302_179" x1="139.96" y1="42.1643" x2="131.055" y2="65.0441" gradientUnits="userSpaceOnUse">
<stop offset="0.0035" stop-color="#008AEE"/>
<stop offset="1" stop-color="#DE0D4F"/>
</linearGradient>
<linearGradient id="paint83_linear_302_179" x1="178.563" y1="47.2564" x2="170.53" y2="48.8865" gradientUnits="userSpaceOnUse">
<stop offset="0.0048" stop-color="#FF88D6"/>
<stop offset="0.9986" stop-color="#FF16B4"/>
</linearGradient>
<linearGradient id="paint84_linear_302_179" x1="134.627" y1="63.089" x2="123.088" y2="36.8412" gradientUnits="userSpaceOnUse">
<stop offset="0.1023" stop-color="#FCADBA"/>
<stop offset="0.8855" stop-color="#FBDAD9"/>
</linearGradient>
<linearGradient id="paint85_linear_302_179" x1="115.182" y1="61.2911" x2="123.185" y2="61.2911" gradientUnits="userSpaceOnUse">
<stop offset="0.1011" stop-color="#FF7638"/>
<stop offset="0.8855" stop-color="#FF3929"/>
</linearGradient>
<linearGradient id="paint86_linear_302_179" x1="129.516" y1="60.9694" x2="122.098" y2="39.1513" gradientUnits="userSpaceOnUse">
<stop offset="0.1023" stop-color="#FCADBA"/>
<stop offset="0.8855" stop-color="#FBDAD9"/>
</linearGradient>
<linearGradient id="paint87_linear_302_179" x1="127.631" y1="29.6229" x2="119.308" y2="31.8972" gradientUnits="userSpaceOnUse">
<stop offset="0.1023" stop-color="#915758"/>
<stop offset="0.8855" stop-color="#2C090B"/>
</linearGradient>
<linearGradient id="paint88_linear_302_179" x1="121.31" y1="28.2053" x2="120.818" y2="28.2496" gradientUnits="userSpaceOnUse">
<stop offset="0.0014" stop-color="#FFB65C"/>
<stop offset="0.9609" stop-color="#F65550"/>
</linearGradient>
<linearGradient id="paint89_linear_302_179" x1="117.596" y1="49.585" x2="129.235" y2="49.585" gradientUnits="userSpaceOnUse">
<stop offset="0.0014" stop-color="#FFB65C"/>
<stop offset="0.9609" stop-color="#F65550"/>
</linearGradient>
<linearGradient id="paint90_linear_302_179" x1="117.481" y1="62.7087" x2="129.837" y2="62.7087" gradientUnits="userSpaceOnUse">
<stop offset="0.0035" stop-color="#4A6FFD"/>
<stop offset="1" stop-color="#0093DE"/>
</linearGradient>
<linearGradient id="paint91_linear_302_179" x1="89.8905" y1="81.1409" x2="108.141" y2="81.1409" gradientUnits="userSpaceOnUse">
<stop offset="0.1023" stop-color="#FCADBA"/>
<stop offset="0.8855" stop-color="#FBDAD9"/>
</linearGradient>
<linearGradient id="paint92_linear_302_179" x1="76.3888" y1="57.7933" x2="86.9831" y2="57.9114" gradientUnits="userSpaceOnUse">
<stop offset="0.1023" stop-color="#915758"/>
<stop offset="0.8855" stop-color="#2C090B"/>
</linearGradient>
<linearGradient id="paint93_linear_302_179" x1="77.8242" y1="57.0571" x2="88.4185" y2="57.1752" gradientUnits="userSpaceOnUse">
<stop offset="0.0035" stop-color="#4A9FFD"/>
<stop offset="1" stop-color="#00D7DE"/>
</linearGradient>
<linearGradient id="paint94_linear_302_179" x1="78.3973" y1="82.946" x2="95.8934" y2="83.1117" gradientUnits="userSpaceOnUse">
<stop offset="0.1023" stop-color="#FCADBA"/>
<stop offset="0.8855" stop-color="#FBDAD9"/>
</linearGradient>
<linearGradient id="paint95_linear_302_179" x1="87.1484" y1="76.2176" x2="93.5603" y2="76.2176" gradientUnits="userSpaceOnUse">
<stop offset="0.1011" stop-color="#FF7638"/>
<stop offset="0.8855" stop-color="#FF3929"/>
</linearGradient>
<linearGradient id="paint96_linear_302_179" x1="79.6789" y1="160.079" x2="92.9528" y2="160.079" gradientUnits="userSpaceOnUse">
<stop offset="0.1023" stop-color="#FCADBA"/>
<stop offset="0.8855" stop-color="#FBDAD9"/>
</linearGradient>
<linearGradient id="paint97_linear_302_179" x1="81.8562" y1="155.419" x2="91.6787" y2="155.419" gradientUnits="userSpaceOnUse">
<stop offset="0.1011" stop-color="#FF7638"/>
<stop offset="0.8855" stop-color="#FF3929"/>
</linearGradient>
<linearGradient id="paint98_linear_302_179" x1="70.7376" y1="219.086" x2="134.561" y2="187.835" gradientUnits="userSpaceOnUse">
<stop offset="0.1011" stop-color="#FFA9E1"/>
<stop offset="0.8855" stop-color="#E814FF"/>
</linearGradient>
<linearGradient id="paint99_linear_302_179" x1="67.7198" y1="171.427" x2="95.7729" y2="171.427" gradientUnits="userSpaceOnUse">
<stop offset="0.1023" stop-color="#915758"/>
<stop offset="0.8855" stop-color="#2C090B"/>
</linearGradient>
<linearGradient id="paint100_linear_302_179" x1="43.6352" y1="162.472" x2="60.0141" y2="162.472" gradientUnits="userSpaceOnUse">
<stop offset="0.1023" stop-color="#FCADBA"/>
<stop offset="0.8855" stop-color="#FBDAD9"/>
</linearGradient>
<linearGradient id="paint101_linear_302_179" x1="48.2132" y1="157.008" x2="56.2781" y2="157.008" gradientUnits="userSpaceOnUse">
<stop offset="0.1011" stop-color="#FF7638"/>
<stop offset="0.8855" stop-color="#FF3929"/>
</linearGradient>
<linearGradient id="paint102_linear_302_179" x1="22.8654" y1="170.862" x2="51.5877" y2="170.862" gradientUnits="userSpaceOnUse">
<stop offset="0.1023" stop-color="#915758"/>
<stop offset="0.8855" stop-color="#2C090B"/>
</linearGradient>
<linearGradient id="paint103_linear_302_179" x1="48.2087" y1="154.205" x2="128.611" y2="154.205" gradientUnits="userSpaceOnUse">
<stop offset="0.1011" stop-color="#FFA9E1"/>
<stop offset="0.8855" stop-color="#E814FF"/>
</linearGradient>
<linearGradient id="paint104_linear_302_179" x1="113.506" y1="128.584" x2="114.051" y2="127.415" gradientUnits="userSpaceOnUse">
<stop offset="0.1011" stop-color="#FF9DE8"/>
<stop offset="0.8855" stop-color="#CC08FF"/>
</linearGradient>
<linearGradient id="paint105_linear_302_179" x1="97.4092" y1="106.59" x2="134.476" y2="106.59" gradientUnits="userSpaceOnUse">
<stop offset="0.0035" stop-color="#4A91FD"/>
<stop offset="1" stop-color="#DE0D4F"/>
</linearGradient>
<linearGradient id="paint106_linear_302_179" x1="54.6456" y1="75.6807" x2="71.9484" y2="167.576" gradientUnits="userSpaceOnUse">
<stop offset="0.0035" stop-color="#4A91FD"/>
<stop offset="1" stop-color="#DE0D4F"/>
</linearGradient>
<linearGradient id="paint107_linear_302_179" x1="94.4359" y1="97.5844" x2="136.189" y2="97.5844" gradientUnits="userSpaceOnUse">
<stop offset="0.0035" stop-color="#4A9FFD"/>
<stop offset="1" stop-color="#DE0D4F"/>
</linearGradient>
</defs>
</svg>
