<?xml version="1.0" encoding="UTF-8"?>
<!DOCTYPE svg PUBLIC "-//W3C//DTD SVG 1.1//EN" "http://www.w3.org/Graphics/SVG/1.1/DTD/svg11.dtd">
<svg xmlns="http://www.w3.org/2000/svg" version="1.1" width="604px" height="364px" style="shape-rendering:geometricPrecision; text-rendering:geometricPrecision; image-rendering:optimizeQuality; fill-rule:evenodd; clip-rule:evenodd" xmlns:xlink="http://www.w3.org/1999/xlink">
<g><path style="opacity:1" fill="#fefefe" d="M -0.5,-0.5 C 200.833,-0.5 402.167,-0.5 603.5,-0.5C 603.5,120.833 603.5,242.167 603.5,363.5C 402.167,363.5 200.833,363.5 -0.5,363.5C -0.5,242.167 -0.5,120.833 -0.5,-0.5 Z"/></g>
<g><path style="opacity:1" fill="#d9d9d9" d="M 67.5,16.5 C 227.5,16.3333 387.5,16.5 547.5,17C 571.83,23.4798 582.997,39.3131 581,64.5C 576.161,82.3402 564.661,92.8402 546.5,96C 387.167,96.6667 227.833,96.6667 68.5,96C 46.8011,91.7974 35.1344,78.6307 33.5,56.5C 35.2095,34.8029 46.5429,21.4696 67.5,16.5 Z"/></g>
<g><path style="opacity:1" fill="#e4e4e4" d="M 458.5,146.5 C 326.823,146.182 195.156,146.516 63.5,147.5C 65.9686,146.683 68.6353,146.183 71.5,146C 200.667,145.167 329.667,145.334 458.5,146.5 Z"/></g>
<g><path style="opacity:1" fill="#d9d9d9" d="M 458.5,146.5 C 482.215,149.048 494.882,162.215 496.5,186C 495.279,206.787 484.612,219.787 464.5,225C 331.5,225.667 198.5,225.667 65.5,225C 49.36,220.693 39.0266,210.526 34.5,194.5C 34.2946,188.122 34.6279,181.789 35.5,175.5C 39.4933,160.84 48.8266,151.507 63.5,147.5C 195.156,146.516 326.823,146.182 458.5,146.5 Z"/></g>
<g><path style="opacity:1" fill="#eeeeee" d="M 35.5,175.5 C 34.6279,181.789 34.2946,188.122 34.5,194.5C 33.3483,189.015 33.1816,183.349 34,177.5C 34.2784,176.584 34.7784,175.918 35.5,175.5 Z"/></g>
<g><path style="opacity:1" fill="#d9d9d9" d="M 374.5,275.5 C 378.737,276.401 383.07,277.401 387.5,278.5C 404.113,286.032 412.446,299.032 412.5,317.5C 410.797,336.032 401.131,348.199 383.5,354C 330.031,355.154 276.531,355.654 223,355.5C 169.797,355.656 116.631,355.156 63.5,354C 45.1136,347.772 35.1136,334.939 33.5,315.5C 34.7157,297.244 43.7157,284.41 60.5,277C 165.136,275.513 269.803,275.013 374.5,275.5 Z"/></g>
<g><path style="opacity:1" fill="#eeeeee" d="M 374.5,275.5 C 379.312,274.965 383.645,275.965 387.5,278.5C 383.07,277.401 378.737,276.401 374.5,275.5 Z"/></g>
</svg>
