<svg xmlns="http://www.w3.org/2000/svg" width="173.555" height="143.848" viewBox="0 0 173.555 143.848">
  <defs>
    <style>
      .cls-1 {
        fill: #DE0D4F;
      }

      .cls-2 {
        fill: #e05b36;
      }

      .cls-3 {
        opacity: 0.5;
      }

      .cls-4 {
        fill: #fff;
      }
    </style>
  </defs>
  <g id="login-invalid-pic" transform="translate(-149.386 -71.457)">
    <g id="freepik--background-simple--inject-72" transform="translate(149.386 71.457)">
      <path id="Path_2121" data-name="Path 2121" class="cls-1" d="M149.89,107.627c-3.321,26.121,10.079,52.9,31.248,68.562s49.027,20.831,75.094,17.078c18.608-2.667,37.064-9.962,50.18-23.428s20.029-33.7,14.746-51.737c-2-6.813-5.917-13.415-12.138-16.837-9.935-5.45-22.19-1.456-32.771,2.639s-22.816,8.128-32.774,2.725c-7.65-4.162-11.581-12.73-17.187-19.394A45.19,45.19,0,0,0,186.58,71.813a42.213,42.213,0,0,0-5.45,1.086,43.3,43.3,0,0,0-30.844,32.841Z" transform="translate(-149.386 -71.457)"/>
    </g>
    <g id="freepik--Folder--inject-72" transform="translate(158.432 116.908)">
      <path id="Path_2122" data-name="Path 2122" class="cls-2" d="M274.572,227.059l-13.781,70.773L259,307.1l91.873-.444c4.126-.019,7.786-3.683,9.105-9.125l16.3-66.814c1.008-4.13-1.2-8.428-4.333-8.424l-93.009.1C276.907,222.383,275.093,224.3,274.572,227.059Z" transform="translate(-225.374 -209.023)"/>
      <g id="Group_313" data-name="Group 313" class="cls-3" transform="translate(33.626 13.267)">
        <path id="Path_2123" data-name="Path 2123" d="M274.572,227.059l-13.781,70.773L259,307.1l91.873-.444c4.126-.019,7.786-3.683,9.105-9.125l16.3-66.814c1.008-4.13-1.2-8.428-4.333-8.424l-93.009.1C276.907,222.383,275.093,224.3,274.572,227.059Z" transform="translate(-259 -222.29)"/>
      </g>
      <path id="Path_2124" data-name="Path 2124" class="cls-2" d="M289.319,272.215l-9.732-78.407a6.16,6.16,0,0,0-5.979-5.6l-21.333.066a5.839,5.839,0,0,0-4.216,1.869l-10.122,10.772-59.328.319a6.318,6.318,0,0,0-5.933,7.307l9.035,72.467a6.168,6.168,0,0,0,5.972,5.6L291.1,286.4c11.515.237,12.617-3.161,12.617-3.161C290.495,286.163,289.319,272.234,289.319,272.215Z" transform="translate(-172.622 -188.21)"/>
      <g id="Group_314" data-name="Group 314" class="cls-3" transform="translate(41.754 43.328)">
        <path id="Path_2125" data-name="Path 2125" class="cls-4" d="M310.229,325.807l-3.488,3.745L279.88,305.385l3.488-3.745Z" transform="translate(-279.88 -300.811)"/>
        <path id="Path_2126" data-name="Path 2126" class="cls-4" d="M307,299.51l3.854,3.469-24.3,26.1-3.858-3.469Z" transform="translate(-281.596 -299.51)"/>
      </g>
    </g>
  </g>
</svg>
