<svg width="266" height="257" viewBox="0 0 266 257" fill="none" xmlns="http://www.w3.org/2000/svg">
<ellipse cx="133" cy="128.5" rx="133" ry="128.5" fill="#DE0D4F"/>
<line x1="94.5" y1="21" x2="94.5" y2="84" stroke="#F8E6E6" stroke-width="3"/>
<line x1="171.5" y1="21" x2="171.5" y2="84" stroke="#F8E6E6" stroke-width="3"/>
<line x1="94.8442" y1="19.5001" x2="199.383" y2="107.777" stroke="#F8E6E6" stroke-width="3"/>
<line y1="-1.5" x2="136.825" y2="-1.5" transform="matrix(-0.76403 0.645181 0.645181 0.76403 172.861 20.6461)" stroke="#F8E6E6" stroke-width="3"/>
<mask id="path-6-outside-1_864_7565" maskUnits="userSpaceOnUse" x="66" y="106.4" width="135" height="63" fill="black">
<rect fill="white" x="66" y="106.4" width="135" height="63"/>
<path fill-rule="evenodd" clip-rule="evenodd" d="M69.0051 108C72.4091 141.396 100.004 167.4 133.5 167.4C166.996 167.4 194.591 141.396 197.995 108H199C195.591 141.932 167.567 168.4 133.5 168.4C99.4332 168.4 71.4086 141.932 68 108H69.0051Z"/>
</mask>
<path fill-rule="evenodd" clip-rule="evenodd" d="M69.0051 108C72.4091 141.396 100.004 167.4 133.5 167.4C166.996 167.4 194.591 141.396 197.995 108H199C195.591 141.932 167.567 168.4 133.5 168.4C99.4332 168.4 71.4086 141.932 68 108H69.0051Z" fill="#F8E6E6"/>
<path d="M69.0051 108L69.9999 107.899L69.9083 107H69.0051V108ZM197.995 108V107H197.092L197 107.899L197.995 108ZM199 108L199.995 108.1L200.105 107H199V108ZM68 108V107H66.8945L67.005 108.1L68 108ZM68.0102 108.101C71.4639 141.984 99.4675 168.4 133.5 168.4V166.4C100.54 166.4 73.3543 140.808 69.9999 107.899L68.0102 108.101ZM133.5 168.4C167.532 168.4 195.536 141.984 198.99 108.101L197 107.899C193.646 140.808 166.46 166.4 133.5 166.4V168.4ZM199 107H197.995V109H199V107ZM133.5 169.4C168.104 169.4 196.537 142.52 199.995 108.1L198.005 107.9C194.645 141.345 167.03 167.4 133.5 167.4V169.4ZM67.005 108.1C70.4626 142.52 98.8961 169.4 133.5 169.4V167.4C99.9703 167.4 72.3547 141.345 68.995 107.9L67.005 108.1ZM69.0051 107H68V109H69.0051V107Z" fill="#F8E6E6" mask="url(#path-6-outside-1_864_7565)"/>
<line x1="94.8442" y1="19.5001" x2="199.383" y2="107.777" stroke="#F8E6E6" stroke-width="3"/>
<line x1="72.6708" y1="73.6584" x2="94.6708" y2="84.6584" stroke="#F8E6E6" stroke-width="3"/>
<line x1="173.111" y1="84.2339" x2="193.554" y2="74.0793" stroke="#F8E6E6" stroke-width="3"/>
<mask id="path-11-outside-2_864_7565" maskUnits="userSpaceOnUse" x="70.9131" y="13" width="125" height="63" fill="black">
<rect fill="white" x="70.9131" y="13" width="125" height="63"/>
<path fill-rule="evenodd" clip-rule="evenodd" d="M73.9161 74.3578C75.3275 57.0038 82.9582 41.6338 94.338 30.8842L93.8058 30.0104C82.1406 40.9596 74.334 56.6605 72.9131 74.3578H73.9161ZM133.4 15C121.985 15 111.302 18.504 102.217 24.5881L101.695 23.7309C110.924 17.5586 121.781 14 133.4 14C145.469 14 156.715 17.8389 166.167 24.4577L165.596 25.2819C156.297 18.7712 145.243 15 133.4 15ZM173.089 31.4843C184.122 42.202 191.499 57.3242 192.885 74.3578H193.888C192.494 57.0025 184.959 41.5672 173.667 30.6505L173.089 31.4843Z"/>
</mask>
<path fill-rule="evenodd" clip-rule="evenodd" d="M73.9161 74.3578C75.3275 57.0038 82.9582 41.6338 94.338 30.8842L93.8058 30.0104C82.1406 40.9596 74.334 56.6605 72.9131 74.3578H73.9161ZM133.4 15C121.985 15 111.302 18.504 102.217 24.5881L101.695 23.7309C110.924 17.5586 121.781 14 133.4 14C145.469 14 156.715 17.8389 166.167 24.4577L165.596 25.2819C156.297 18.7712 145.243 15 133.4 15ZM173.089 31.4843C184.122 42.202 191.499 57.3242 192.885 74.3578H193.888C192.494 57.0025 184.959 41.5672 173.667 30.6505L173.089 31.4843Z" fill="#F8E6E6"/>
<path d="M94.338 30.8842L95.0247 31.6111L95.6131 31.0553L95.1921 30.364L94.338 30.8842ZM73.9161 74.3578V75.3578H74.838L74.9128 74.4389L73.9161 74.3578ZM93.8058 30.0104L94.6599 29.4902L94.0194 28.4385L93.1215 29.2813L93.8058 30.0104ZM72.9131 74.3578L71.9163 74.2778L71.8296 75.3578H72.9131V74.3578ZM102.217 24.5881L101.363 25.1082L101.906 25.9999L102.774 25.419L102.217 24.5881ZM101.695 23.7309L101.139 22.8997L100.343 23.4325L100.841 24.251L101.695 23.7309ZM166.167 24.4577L166.989 25.0272L167.556 24.2093L166.741 23.6386L166.167 24.4577ZM165.596 25.2819L165.023 26.101L165.846 26.6774L166.418 25.8513L165.596 25.2819ZM173.089 31.4843L172.267 30.9148L171.785 31.6113L172.392 32.2016L173.089 31.4843ZM192.885 74.3578L191.888 74.4389L191.963 75.3578H192.885V74.3578ZM193.888 74.3578V75.3578H194.971L194.884 74.2778L193.888 74.3578ZM173.667 30.6505L174.362 29.9315L173.515 29.1131L172.845 30.081L173.667 30.6505ZM93.6513 30.1572C82.0892 41.0791 74.3505 56.6803 72.9194 74.2768L74.9128 74.4389C76.3045 57.3273 83.8272 42.1885 95.0247 31.6111L93.6513 30.1572ZM92.9518 30.5305L93.4839 31.4043L95.1921 30.364L94.6599 29.4902L92.9518 30.5305ZM73.9099 74.4379C75.3112 56.9843 83.009 41.516 94.4902 30.7395L93.1215 29.2813C81.2722 40.4032 73.3568 56.3368 71.9163 74.2778L73.9099 74.4379ZM73.9161 73.3578H72.9131V75.3578H73.9161V73.3578ZM102.774 25.419C111.703 19.4388 122.194 16 133.4 16V14C121.776 14 110.901 17.5692 101.661 23.7572L102.774 25.419ZM100.841 24.251L101.363 25.1082L103.071 24.0679L102.549 23.2107L100.841 24.251ZM133.4 13C121.572 13 110.523 16.6236 101.139 22.8997L102.251 24.5621C111.324 18.4937 121.99 15 133.4 15V13ZM166.741 23.6386C157.13 16.909 145.686 13 133.4 13V15C145.252 15 156.299 18.7687 165.594 25.2769L166.741 23.6386ZM166.418 25.8513L166.989 25.0272L165.345 23.8883L164.774 24.7124L166.418 25.8513ZM133.4 16C145.026 16 155.882 19.7009 165.023 26.101L166.17 24.4627C156.713 17.8414 145.46 14 133.4 14V16ZM172.392 32.2016C183.249 42.7482 190.522 57.6433 191.888 74.4389L193.881 74.2768C192.477 57.0051 184.995 41.6559 173.786 30.767L172.392 32.2016ZM192.885 75.3578H193.888V73.3578H192.885V75.3578ZM194.884 74.2778C193.472 56.6834 185.832 41.0198 174.362 29.9315L172.972 31.3694C184.087 42.1146 191.517 57.3217 192.891 74.4379L194.884 74.2778ZM172.845 30.081L172.267 30.9148L173.911 32.0538L174.489 31.2199L172.845 30.081Z" fill="#F8E6E6" mask="url(#path-11-outside-2_864_7565)"/>
<path d="M72.124 228.288C70.204 228.288 68.368 228 66.616 227.424C64.864 226.824 63.484 226.056 62.476 225.12L63.808 222.312C64.768 223.152 65.992 223.848 67.48 224.4C68.968 224.952 70.516 225.228 72.124 225.228C73.588 225.228 74.776 225.06 75.688 224.724C76.6 224.388 77.272 223.932 77.704 223.356C78.136 222.756 78.352 222.084 78.352 221.34C78.352 220.476 78.064 219.78 77.488 219.252C76.936 218.724 76.204 218.304 75.292 217.992C74.404 217.656 73.42 217.368 72.34 217.128C71.26 216.888 70.168 216.612 69.064 216.3C67.984 215.964 66.988 215.544 66.076 215.04C65.188 214.536 64.468 213.864 63.916 213.024C63.364 212.16 63.088 211.056 63.088 209.712C63.088 208.416 63.424 207.228 64.096 206.148C64.792 205.044 65.848 204.168 67.264 203.52C68.704 202.848 70.528 202.512 72.736 202.512C74.2 202.512 75.652 202.704 77.092 203.088C78.532 203.472 79.78 204.024 80.836 204.744L79.648 207.624C78.568 206.904 77.428 206.388 76.228 206.076C75.028 205.74 73.864 205.572 72.736 205.572C71.32 205.572 70.156 205.752 69.244 206.112C68.332 206.472 67.66 206.952 67.228 207.552C66.82 208.152 66.616 208.824 66.616 209.568C66.616 210.456 66.892 211.164 67.444 211.692C68.02 212.22 68.752 212.64 69.64 212.952C70.552 213.264 71.548 213.552 72.628 213.816C73.708 214.056 74.788 214.332 75.868 214.644C76.972 214.956 77.968 215.364 78.856 215.868C79.768 216.372 80.5 217.044 81.052 217.884C81.604 218.724 81.88 219.804 81.88 221.124C81.88 222.396 81.532 223.584 80.836 224.688C80.14 225.768 79.06 226.644 77.596 227.316C76.156 227.964 74.332 228.288 72.124 228.288ZM93.1874 228.216C91.2674 228.216 89.7794 227.7 88.7234 226.668C87.6674 225.636 87.1394 224.16 87.1394 222.24V204.744H90.5954V222.096C90.5954 223.128 90.8474 223.92 91.3514 224.472C91.8794 225.024 92.6234 225.3 93.5834 225.3C94.6634 225.3 95.5634 225 96.2834 224.4L97.3634 226.884C96.8354 227.34 96.1994 227.676 95.4554 227.892C94.7354 228.108 93.9794 228.216 93.1874 228.216ZM83.8994 211.764V208.92H96.0674V211.764H83.8994ZM102.018 235.2C101.106 235.2 100.218 235.044 99.3541 234.732C98.4901 234.444 97.7461 234.012 97.1221 233.436L98.5981 230.844C99.0781 231.3 99.6061 231.648 100.182 231.888C100.758 232.128 101.37 232.248 102.018 232.248C102.858 232.248 103.554 232.032 104.106 231.6C104.658 231.168 105.174 230.4 105.654 229.296L106.842 226.668L107.202 226.236L114.69 208.92H118.074L108.822 229.908C108.27 231.252 107.646 232.308 106.95 233.076C106.278 233.844 105.534 234.384 104.718 234.696C103.902 235.032 103.002 235.2 102.018 235.2ZM106.554 228.612L97.8421 208.92H101.442L108.858 225.912L106.554 228.612ZM121.299 228V201.288H124.755V228H121.299ZM139.85 228.216C137.81 228.216 136.01 227.796 134.45 226.956C132.914 226.116 131.714 224.964 130.85 223.5C130.01 222.036 129.59 220.356 129.59 218.46C129.59 216.564 129.998 214.884 130.814 213.42C131.654 211.956 132.794 210.816 134.234 210C135.698 209.16 137.342 208.74 139.166 208.74C141.014 208.74 142.646 209.148 144.062 209.964C145.478 210.78 146.582 211.932 147.374 213.42C148.19 214.884 148.598 216.6 148.598 218.568C148.598 218.712 148.586 218.88 148.562 219.072C148.562 219.264 148.55 219.444 148.526 219.612H132.29V217.128H146.726L145.322 217.992C145.346 216.768 145.094 215.676 144.566 214.716C144.038 213.756 143.306 213.012 142.37 212.484C141.458 211.932 140.39 211.656 139.166 211.656C137.966 211.656 136.898 211.932 135.962 212.484C135.026 213.012 134.294 213.768 133.766 214.752C133.238 215.712 132.974 216.816 132.974 218.064V218.64C132.974 219.912 133.262 221.052 133.838 222.06C134.438 223.044 135.266 223.812 136.322 224.364C137.378 224.916 138.59 225.192 139.958 225.192C141.086 225.192 142.106 225 143.018 224.616C143.954 224.232 144.77 223.656 145.466 222.888L147.374 225.12C146.51 226.128 145.43 226.896 144.134 227.424C142.862 227.952 141.434 228.216 139.85 228.216ZM153.901 228V202.8H156.853L168.157 221.844H166.573L177.733 202.8H180.685L180.721 228H177.265L177.229 208.236H178.057L168.121 224.94H166.465L156.457 208.236H157.357V228H153.901ZM196.276 228.216C194.236 228.216 192.436 227.796 190.876 226.956C189.34 226.116 188.14 224.964 187.276 223.5C186.436 222.036 186.016 220.356 186.016 218.46C186.016 216.564 186.424 214.884 187.24 213.42C188.08 211.956 189.22 210.816 190.66 210C192.124 209.16 193.768 208.74 195.592 208.74C197.44 208.74 199.072 209.148 200.488 209.964C201.904 210.78 203.008 211.932 203.8 213.42C204.616 214.884 205.024 216.6 205.024 218.568C205.024 218.712 205.012 218.88 204.988 219.072C204.988 219.264 204.976 219.444 204.952 219.612H188.716V217.128H203.152L201.748 217.992C201.772 216.768 201.52 215.676 200.992 214.716C200.464 213.756 199.732 213.012 198.796 212.484C197.884 211.932 196.816 211.656 195.592 211.656C194.392 211.656 193.324 211.932 192.388 212.484C191.452 213.012 190.72 213.768 190.192 214.752C189.664 215.712 189.4 216.816 189.4 218.064V218.64C189.4 219.912 189.688 221.052 190.264 222.06C190.864 223.044 191.692 223.812 192.748 224.364C193.804 224.916 195.016 225.192 196.384 225.192C197.512 225.192 198.532 225 199.444 224.616C200.38 224.232 201.196 223.656 201.892 222.888L203.8 225.12C202.936 226.128 201.856 226.896 200.56 227.424C199.288 227.952 197.86 228.216 196.276 228.216Z" fill="#F8E6E6"/>
</svg>
