<svg width="143" height="167" viewBox="0 0 143 167" fill="none" xmlns="http://www.w3.org/2000/svg">
<rect width="143" height="167" fill="#DE0D4F"/>
<line x1="31.5" y1="14" x2="31.5" y2="77" stroke="#F8E6E6" stroke-width="3"/>
<line x1="108.5" y1="14" x2="108.5" y2="77" stroke="#F8E6E6" stroke-width="3"/>
<line x1="31.8442" y1="12.5001" x2="136.383" y2="100.777" stroke="#F8E6E6" stroke-width="3"/>
<line y1="-1.5" x2="136.825" y2="-1.5" transform="matrix(-0.76403 0.645181 0.645181 0.76403 109.861 13.6461)" stroke="#F8E6E6" stroke-width="3"/>
<mask id="path-6-outside-1_875_6735" maskUnits="userSpaceOnUse" x="3" y="99.4" width="135" height="63" fill="black">
<rect fill="white" x="3" y="99.4" width="135" height="63"/>
<path fill-rule="evenodd" clip-rule="evenodd" d="M6.00506 101C9.40909 134.396 37.004 160.4 70.5 160.4C103.996 160.4 131.591 134.396 134.995 101H136C132.591 134.932 104.567 161.4 70.5 161.4C36.4332 161.4 8.40863 134.932 5.00001 101H6.00506Z"/>
</mask>
<path fill-rule="evenodd" clip-rule="evenodd" d="M6.00506 101C9.40909 134.396 37.004 160.4 70.5 160.4C103.996 160.4 131.591 134.396 134.995 101H136C132.591 134.932 104.567 161.4 70.5 161.4C36.4332 161.4 8.40863 134.932 5.00001 101H6.00506Z" fill="#F8E6E6"/>
<path d="M6.00506 101L6.9999 100.899L6.90831 100H6.00506V101ZM134.995 101V100H134.092L134 100.899L134.995 101ZM136 101L136.995 101.1L137.105 100H136V101ZM5.00001 101V100H3.89452L4.00502 101.1L5.00001 101ZM5.01021 101.101C8.46385 134.984 36.4675 161.4 70.5 161.4V159.4C37.5404 159.4 10.3543 133.808 6.9999 100.899L5.01021 101.101ZM70.5 161.4C104.532 161.4 132.536 134.984 135.99 101.101L134 100.899C130.646 133.808 103.46 159.4 70.5 159.4V161.4ZM136 100H134.995V102H136V100ZM70.5 162.4C105.104 162.4 133.537 135.52 136.995 101.1L135.005 100.9C131.645 134.345 104.03 160.4 70.5 160.4V162.4ZM4.00502 101.1C7.46259 135.52 35.8961 162.4 70.5 162.4V160.4C36.9703 160.4 9.35468 134.345 5.995 100.9L4.00502 101.1ZM6.00506 100H5.00001V102H6.00506V100Z" fill="#F8E6E6" mask="url(#path-6-outside-1_875_6735)"/>
<line x1="31.8442" y1="12.5001" x2="136.383" y2="100.777" stroke="#F8E6E6" stroke-width="3"/>
<line x1="9.67082" y1="66.6584" x2="31.6708" y2="77.6584" stroke="#F8E6E6" stroke-width="3"/>
<line x1="110.111" y1="77.2339" x2="130.554" y2="67.0793" stroke="#F8E6E6" stroke-width="3"/>
<mask id="path-11-outside-2_875_6735" maskUnits="userSpaceOnUse" x="7.91309" y="6" width="125" height="63" fill="black">
<rect fill="white" x="7.91309" y="6" width="125" height="63"/>
<path fill-rule="evenodd" clip-rule="evenodd" d="M10.9161 67.3578C12.3275 50.0038 19.9582 34.6338 31.338 23.8842L30.8058 23.0104C19.1406 33.9596 11.334 49.6605 9.91309 67.3578H10.9161ZM70.4004 8C58.9849 8 48.302 11.504 39.2173 17.5881L38.6953 16.7309C47.9235 10.5586 58.7808 7 70.4004 7C82.4687 7 93.7147 10.8389 103.167 17.4577L102.596 18.2819C93.2972 11.7712 82.243 8 70.4004 8ZM110.089 24.4843C121.122 35.202 128.499 50.3242 129.885 67.3578H130.888C129.494 50.0025 121.959 34.5672 110.667 23.6505L110.089 24.4843Z"/>
</mask>
<path fill-rule="evenodd" clip-rule="evenodd" d="M10.9161 67.3578C12.3275 50.0038 19.9582 34.6338 31.338 23.8842L30.8058 23.0104C19.1406 33.9596 11.334 49.6605 9.91309 67.3578H10.9161ZM70.4004 8C58.9849 8 48.302 11.504 39.2173 17.5881L38.6953 16.7309C47.9235 10.5586 58.7808 7 70.4004 7C82.4687 7 93.7147 10.8389 103.167 17.4577L102.596 18.2819C93.2972 11.7712 82.243 8 70.4004 8ZM110.089 24.4843C121.122 35.202 128.499 50.3242 129.885 67.3578H130.888C129.494 50.0025 121.959 34.5672 110.667 23.6505L110.089 24.4843Z" fill="#F8E6E6"/>
<path d="M31.338 23.8842L32.0247 24.6111L32.6131 24.0553L32.1921 23.364L31.338 23.8842ZM10.9161 67.3578V68.3578H11.838L11.9128 67.4389L10.9161 67.3578ZM30.8058 23.0104L31.6599 22.4902L31.0194 21.4385L30.1215 22.2813L30.8058 23.0104ZM9.91309 67.3578L8.91629 67.2778L8.82958 68.3578H9.91309V67.3578ZM39.2173 17.5881L38.3633 18.1082L38.9063 18.9999L39.7738 18.419L39.2173 17.5881ZM38.6953 16.7309L38.1393 15.8997L37.3427 16.4325L37.8412 17.251L38.6953 16.7309ZM103.167 17.4577L103.989 18.0272L104.556 17.2093L103.741 16.6386L103.167 17.4577ZM102.596 18.2819L102.023 19.101L102.846 19.6774L103.418 18.8513L102.596 18.2819ZM110.089 24.4843L109.267 23.9148L108.785 24.6113L109.392 25.2016L110.089 24.4843ZM129.885 67.3578L128.888 67.4389L128.963 68.3578H129.885V67.3578ZM130.888 67.3578V68.3578H131.971L131.884 67.2778L130.888 67.3578ZM110.667 23.6505L111.362 22.9315L110.515 22.1131L109.845 23.081L110.667 23.6505ZM30.6513 23.1572C19.0892 34.0791 11.3505 49.6803 9.91935 67.2768L11.9128 67.4389C13.3045 50.3273 20.8272 35.1885 32.0247 24.6111L30.6513 23.1572ZM29.9518 23.5305L30.4839 24.4043L32.1921 23.364L31.6599 22.4902L29.9518 23.5305ZM10.9099 67.4379C12.3112 49.9843 20.009 34.516 31.4902 23.7395L30.1215 22.2813C18.2722 33.4032 10.3568 49.3368 8.91629 67.2778L10.9099 67.4379ZM10.9161 66.3578H9.91309V68.3578H10.9161V66.3578ZM39.7738 18.419C48.7032 12.4388 59.1941 9 70.4004 9V7C58.7757 7 47.9008 10.5692 38.6609 16.7572L39.7738 18.419ZM37.8412 17.251L38.3633 18.1082L40.0714 17.0679L39.5494 16.2107L37.8412 17.251ZM70.4004 6C58.572 6 47.5229 9.62358 38.1393 15.8997L39.2512 17.5621C48.3242 11.4937 58.9896 8 70.4004 8V6ZM103.741 16.6386C94.1302 9.90901 82.6858 6 70.4004 6V8C82.2516 8 93.2992 11.7687 102.594 18.2769L103.741 16.6386ZM103.418 18.8513L103.989 18.0272L102.345 16.8883L101.774 17.7124L103.418 18.8513ZM70.4004 9C82.0257 9 92.8816 12.7009 102.023 19.101L103.17 17.4627C93.7128 10.8414 82.4602 7 70.4004 7V9ZM109.392 25.2016C120.249 35.7482 127.522 50.6433 128.888 67.4389L130.881 67.2768C129.477 50.0051 121.995 34.6559 110.786 23.767L109.392 25.2016ZM129.885 68.3578H130.888V66.3578H129.885V68.3578ZM131.884 67.2778C130.472 49.6834 122.832 34.0198 111.362 22.9315L109.972 24.3694C121.087 35.1146 128.517 50.3217 129.891 67.4379L131.884 67.2778ZM109.845 23.081L109.267 23.9148L110.911 25.0538L111.489 24.2199L109.845 23.081Z" fill="#F8E6E6" mask="url(#path-11-outside-2_875_6735)"/>
</svg>
