<?xml version="1.0" encoding="UTF-8"?>
<!DOCTYPE svg PUBLIC "-//W3C//DTD SVG 1.1//EN" "http://www.w3.org/Graphics/SVG/1.1/DTD/svg11.dtd">
<svg xmlns="http://www.w3.org/2000/svg" version="1.1" width="832px" height="319px" style="shape-rendering:geometricPrecision; text-rendering:geometricPrecision; image-rendering:optimizeQuality; fill-rule:evenodd; clip-rule:evenodd" xmlns:xlink="http://www.w3.org/1999/xlink">
<g><path style="opacity:1" fill="#fefefe" d="M -0.5,-0.5 C 276.833,-0.5 554.167,-0.5 831.5,-0.5C 831.5,105.833 831.5,212.167 831.5,318.5C 554.167,318.5 276.833,318.5 -0.5,318.5C -0.5,212.167 -0.5,105.833 -0.5,-0.5 Z"/></g>
<g><path style="opacity:1" fill="#efa1b2" d="M 107.5,91.5 C 107.5,91.1667 107.5,90.8333 107.5,90.5C 126.167,90.5 144.833,90.5 163.5,90.5C 160.375,91.4794 157.042,91.8128 153.5,91.5C 153.238,92.9778 153.571,94.3112 154.5,95.5C 155.086,95.2907 155.586,94.9574 156,94.5C 156.711,96.8991 156.544,99.2324 155.5,101.5C 156.083,103.002 156.916,104.335 158,105.5C 160.472,103.121 162.472,100.454 164,97.5C 164.383,98.056 164.883,98.3893 165.5,98.5C 166.537,99.9303 167.204,101.597 167.5,103.5C 167.672,104.492 167.338,105.158 166.5,105.5C 164.932,104.527 163.265,104.36 161.5,105C 159.576,106.75 157.909,108.583 156.5,110.5C 155.833,110.5 155.5,110.833 155.5,111.5C 155.167,111.5 154.833,111.5 154.5,111.5C 153.773,104.842 153.107,98.175 152.5,91.5C 148.5,91.5 144.5,91.5 140.5,91.5C 139.788,98.1426 139.454,104.809 139.5,111.5C 138.268,104.976 138.268,98.309 139.5,91.5C 136.833,91.5 134.167,91.5 131.5,91.5C 132.226,95.307 130.893,97.9737 127.5,99.5C 127.466,96.8015 128.133,94.3015 129.5,92C 125.833,91.3333 122.167,91.3333 118.5,92C 114.774,98.6197 111.44,105.453 108.5,112.5C 108.167,112.5 107.833,112.5 107.5,112.5C 108.167,107.833 108.833,103.167 109.5,98.5C 110.833,98.5 112.167,98.5 113.5,98.5C 113.244,96.2075 113.577,94.0408 114.5,92C 112.19,91.5034 109.857,91.3367 107.5,91.5 Z"/></g>
<g><path style="opacity:1" fill="#f2a1a5" d="M 163.5,90.5 C 171.167,90.5 178.833,90.5 186.5,90.5C 190.569,96.9564 194.902,103.29 199.5,109.5C 200.167,111.167 200.833,112.833 201.5,114.5C 200.833,114.5 200.167,114.5 199.5,114.5C 198.5,114.833 197.833,115.5 197.5,116.5C 197.167,116.5 196.833,116.5 196.5,116.5C 193.865,117.729 191.199,117.729 188.5,116.5C 187.591,114.625 186.257,113.292 184.5,112.5C 184.585,109.351 183.585,106.684 181.5,104.5C 180.362,100.891 178.696,97.5578 176.5,94.5C 176.586,93.5041 176.252,92.6708 175.5,92C 171.848,91.5014 168.182,91.3347 164.5,91.5C 164.629,93.2161 164.962,94.8828 165.5,96.5C 165.5,97.1667 165.5,97.8333 165.5,98.5C 164.883,98.3893 164.383,98.056 164,97.5C 162.472,100.454 160.472,103.121 158,105.5C 156.916,104.335 156.083,103.002 155.5,101.5C 156.544,99.2324 156.711,96.8991 156,94.5C 155.586,94.9574 155.086,95.2907 154.5,95.5C 153.571,94.3112 153.238,92.9778 153.5,91.5C 157.042,91.8128 160.375,91.4794 163.5,90.5 Z"/></g>
<g><path style="opacity:1" fill="#c62f55" d="M 176.5,94.5 C 176.5,95.8333 176.5,97.1667 176.5,98.5C 172.706,99.0744 169.039,98.4077 165.5,96.5C 164.962,94.8828 164.629,93.2161 164.5,91.5C 168.182,91.3347 171.848,91.5014 175.5,92C 176.252,92.6708 176.586,93.5041 176.5,94.5 Z"/></g>
<g><path style="opacity:1" fill="#9f2a72" d="M 107.5,90.5 C 107.5,90.8333 107.5,91.1667 107.5,91.5C 101.227,98.3909 96.2269,106.058 92.5,114.5C 87.6309,119.022 83.6309,118.355 80.5,112.5C 84.7092,104.294 90.3759,97.2937 97.5,91.5C 100.768,90.513 104.102,90.1796 107.5,90.5 Z"/></g>
<g><path style="opacity:1" fill="#a02571" d="M 127.5,99.5 C 125.425,103.474 124.425,107.808 124.5,112.5C 119.087,119.089 113.754,119.089 108.5,112.5C 111.44,105.453 114.774,98.6197 118.5,92C 122.167,91.3333 125.833,91.3333 129.5,92C 128.133,94.3015 127.466,96.8015 127.5,99.5 Z"/></g>
<g><path style="opacity:1" fill="#a7286f" d="M 154.5,111.5 C 152.157,117.002 148.157,118.669 142.5,116.5C 141.479,115.099 140.479,113.765 139.5,112.5C 139.5,112.167 139.5,111.833 139.5,111.5C 139.454,104.809 139.788,98.1426 140.5,91.5C 144.5,91.5 148.5,91.5 152.5,91.5C 153.107,98.175 153.773,104.842 154.5,111.5 Z"/></g>
<g><path style="opacity:1" fill="#c53359" d="M 186.5,90.5 C 188.857,90.3367 191.19,90.5034 193.5,91C 198.731,94.7296 203.065,99.2296 206.5,104.5C 203.973,104.647 201.307,104.98 198.5,105.5C 199.246,106.736 199.579,108.07 199.5,109.5C 194.902,103.29 190.569,96.9564 186.5,90.5 Z"/></g>
<g><path style="opacity:1" fill="#b62768" d="M 176.5,94.5 C 178.696,97.5578 180.362,100.891 181.5,104.5C 180.54,105.515 179.373,105.515 178,104.5C 175.167,101.032 172.167,101.032 169,104.5C 168.617,103.944 168.117,103.611 167.5,103.5C 167.204,101.597 166.537,99.9303 165.5,98.5C 165.5,97.8333 165.5,97.1667 165.5,96.5C 169.039,98.4077 172.706,99.0744 176.5,98.5C 176.5,97.1667 176.5,95.8333 176.5,94.5 Z"/></g>
<g><path style="opacity:1" fill="#f2a1a4" d="M 107.5,91.5 C 109.857,91.3367 112.19,91.5034 114.5,92C 113.577,94.0408 113.244,96.2075 113.5,98.5C 112.167,98.5 110.833,98.5 109.5,98.5C 108.833,103.167 108.167,107.833 107.5,112.5C 106.22,116.92 103.22,118.587 98.5,117.5C 98.1583,116.662 97.4916,116.328 96.5,116.5C 96.1583,115.662 95.4916,115.328 94.5,115.5C 94.1583,114.662 93.4916,114.328 92.5,114.5C 96.2269,106.058 101.227,98.3909 107.5,91.5 Z"/></g>
<g><path style="opacity:1" fill="#f2a1a5" d="M 139.5,111.5 C 139.5,111.833 139.5,112.167 139.5,112.5C 134.458,119.091 129.458,119.091 124.5,112.5C 124.425,107.808 125.425,103.474 127.5,99.5C 130.893,97.9737 132.226,95.307 131.5,91.5C 134.167,91.5 136.833,91.5 139.5,91.5C 138.268,98.309 138.268,104.976 139.5,111.5 Z"/></g>
<g><path style="opacity:1" fill="#2e2a49" d="M 165.5,111.5 C 164.22,112.931 162.553,113.598 160.5,113.5C 160.66,115.199 160.494,116.866 160,118.5C 159.329,119.252 158.496,119.586 157.5,119.5C 157.037,116.779 156.371,114.112 155.5,111.5C 155.5,110.833 155.833,110.5 156.5,110.5C 159.811,107.987 162.811,108.321 165.5,111.5 Z"/></g>
<g><path style="opacity:1" fill="#55285c" d="M 166.5,105.5 C 166.611,106.117 166.944,106.617 167.5,107C 169.81,107.497 172.143,107.663 174.5,107.5C 175.055,111.012 174.388,114.012 172.5,116.5C 170.753,114.097 168.42,112.431 165.5,111.5C 162.811,108.321 159.811,107.987 156.5,110.5C 157.909,108.583 159.576,106.75 161.5,105C 163.265,104.36 164.932,104.527 166.5,105.5 Z"/></g>
<g><path style="opacity:1" fill="#96286e" d="M 181.5,104.5 C 183.585,106.684 184.585,109.351 184.5,112.5C 184.084,114.752 182.751,116.252 180.5,117C 177.633,117.801 174.966,117.634 172.5,116.5C 174.388,114.012 175.055,111.012 174.5,107.5C 172.143,107.663 169.81,107.497 167.5,107C 166.944,106.617 166.611,106.117 166.5,105.5C 167.338,105.158 167.672,104.492 167.5,103.5C 168.117,103.611 168.617,103.944 169,104.5C 172.167,101.032 175.167,101.032 178,104.5C 179.373,105.515 180.54,105.515 181.5,104.5 Z"/></g>
<g><path style="opacity:1" fill="#fdfdfd" d="M 154.5,111.5 C 154.833,111.5 155.167,111.5 155.5,111.5C 156.371,114.112 157.037,116.779 157.5,119.5C 156.431,121.969 155.098,124.302 153.5,126.5C 151.413,127.585 150.08,129.251 149.5,131.5C 149.5,131.833 149.5,132.167 149.5,132.5C 147.375,136.438 146.375,140.772 146.5,145.5C 146.54,149.74 147.206,153.74 148.5,157.5C 149.134,163.145 149.468,168.811 149.5,174.5C 149.5,174.833 149.5,175.167 149.5,175.5C 149.5,175.833 149.5,176.167 149.5,176.5C 149.5,178.5 149.5,180.5 149.5,182.5C 149.5,183.833 149.5,185.167 149.5,186.5C 132.325,186.83 115.325,186.497 98.5,185.5C 98.5,162.833 98.5,140.167 98.5,117.5C 103.22,118.587 106.22,116.92 107.5,112.5C 107.833,112.5 108.167,112.5 108.5,112.5C 113.754,119.089 119.087,119.089 124.5,112.5C 129.458,119.091 134.458,119.091 139.5,112.5C 140.479,113.765 141.479,115.099 142.5,116.5C 148.157,118.669 152.157,117.002 154.5,111.5 Z"/></g>
<g><path style="opacity:1" fill="#992a6c" d="M 206.5,104.5 C 210.962,106.442 213.129,109.775 213,114.5C 209.921,117.485 206.421,118.152 202.5,116.5C 202.672,115.508 202.338,114.842 201.5,114.5C 200.833,112.833 200.167,111.167 199.5,109.5C 199.579,108.07 199.246,106.736 198.5,105.5C 201.307,104.98 203.973,104.647 206.5,104.5 Z"/></g>
<g><path style="opacity:1" fill="#797979" d="M 349.5,117.5 C 350.167,120.167 350.833,122.833 351.5,125.5C 351.5,125.833 351.5,126.167 351.5,126.5C 351.5,127.167 351.167,127.5 350.5,127.5C 349.521,124.375 349.187,121.042 349.5,117.5 Z"/></g>
<g><path style="opacity:1" fill="#202020" d="M 564.5,117.5 C 566.465,117.948 566.798,118.948 565.5,120.5C 563.481,119.867 563.147,118.867 564.5,117.5 Z"/></g>
<g><path style="opacity:1" fill="#0b0b0b" d="M 363.5,118.5 C 364.5,118.5 365.5,118.5 366.5,118.5C 365.502,135.822 364.502,135.822 363.5,118.5 Z"/></g>
<g><path style="opacity:1" fill="#121212" d="M 453.5,117.5 C 453.176,124.354 453.509,131.021 454.5,137.5C 453.688,138.633 452.021,138.8 449.5,138C 450.776,135.276 451.442,132.276 451.5,129C 451.333,126.167 451.167,123.333 451,120.5C 450.5,120 450,119.5 449.5,119C 450.901,118.59 452.234,118.09 453.5,117.5 Z"/></g>
<g><path style="opacity:1" fill="#262626" d="M 600.5,117.5 C 604.31,118.754 604.31,119.754 600.5,120.5C 600.5,119.5 600.5,118.5 600.5,117.5 Z"/></g>
<g><path style="opacity:1" fill="#040404" d="M 643.5,117.5 C 643.83,124.2 643.497,130.866 642.5,137.5C 641.833,131.346 641.167,125.346 640.5,119.5C 640.555,118.531 641.555,117.864 643.5,117.5 Z"/></g>
<g><path style="opacity:1" fill="#141414" d="M 663.5,117.5 C 664.328,123.653 664.828,129.987 665,136.5C 666.831,138.043 666.331,138.71 663.5,138.5C 660.669,138.71 660.169,138.043 662,136.5C 662.667,131.167 662.667,125.833 662,120.5C 661.5,120 661,119.5 660.5,119C 661.737,118.768 662.737,118.268 663.5,117.5 Z"/></g>
<g><path style="opacity:1" fill="#202020" d="M 319.5,126.5 C 319.09,130.808 317.756,134.808 315.5,138.5C 313.04,132.62 310.873,126.62 309,120.5C 308.25,119.874 307.416,119.374 306.5,119C 308.833,118.333 311.167,118.333 313.5,119C 312.856,123.629 313.689,128.129 316,132.5C 317.082,130.382 318.249,128.382 319.5,126.5 Z"/></g>
<g><path style="opacity:1" fill="#1c1c1c" d="M 326.5,133.5 C 326.509,135.308 326.009,136.975 325,138.5C 323.231,134.31 321.398,130.31 319.5,126.5C 319.854,123.039 318.521,120.539 315.5,119C 318.167,118.333 320.833,118.333 323.5,119C 322.484,119.519 321.818,120.353 321.5,121.5C 322.8,125.757 324.467,129.757 326.5,133.5 Z"/></g>
<g><path style="opacity:1" fill="#1a1a1a" d="M 383.5,137.5 C 381.854,132.073 380.854,126.406 380.5,120.5C 380.082,119.778 379.416,119.278 378.5,119C 383.098,117.976 387.432,118.476 391.5,120.5C 393.865,127.807 391.198,130.807 383.5,129.5C 383.5,132.167 383.5,134.833 383.5,137.5 Z"/></g>
<g><path style="opacity:1" fill="#121212" d="M 349.5,117.5 C 349.187,121.042 349.521,124.375 350.5,127.5C 350.5,127.833 350.5,128.167 350.5,128.5C 350.11,131.797 349.11,134.797 347.5,137.5C 348.097,131.04 347.43,124.874 345.5,119C 346.901,118.59 348.234,118.09 349.5,117.5 Z"/></g>
<g><path style="opacity:1" fill="#ebebeb" d="M 383.5,119.5 C 389.651,120.103 390.984,122.936 387.5,128C 386.207,128.49 384.873,128.657 383.5,128.5C 383.5,125.5 383.5,122.5 383.5,119.5 Z"/></g>
<g><path style="opacity:1" fill="#a8a8a8" d="M 643.5,117.5 C 644.183,124.234 644.85,131.068 645.5,138C 643.5,138.667 641.5,138.667 639.5,138C 640.476,131.924 640.81,125.758 640.5,119.5C 641.167,125.346 641.833,131.346 642.5,137.5C 643.497,130.866 643.83,124.2 643.5,117.5 Z"/></g>
<g><path style="opacity:1" fill="#454545" d="M 380.5,120.5 C 380.854,126.406 381.854,132.073 383.5,137.5C 382.688,138.633 381.021,138.8 378.5,138C 380.425,132.464 381.092,126.631 380.5,120.5 Z"/></g>
<g><path style="opacity:1" fill="#f1a6ab" d="M 165.5,111.5 C 168.42,112.431 170.753,114.097 172.5,116.5C 170.153,120.158 166.82,122.825 162.5,124.5C 161.534,126.396 161.201,128.396 161.5,130.5C 160.833,130.167 160.167,129.833 159.5,129.5C 158.077,127.455 156.077,126.455 153.5,126.5C 155.098,124.302 156.431,121.969 157.5,119.5C 158.496,119.586 159.329,119.252 160,118.5C 160.494,116.866 160.66,115.199 160.5,113.5C 162.553,113.598 164.22,112.931 165.5,111.5 Z"/></g>
<g><path style="opacity:1" fill="#121212" d="M 710.5,122.5 C 711.167,126.833 711.833,131.167 712.5,135.5C 713.091,136.151 713.757,136.818 714.5,137.5C 712.994,138.747 711.494,138.747 710,137.5C 709.8,133.247 709.3,129.08 708.5,125C 709.381,124.292 710.047,123.458 710.5,122.5 Z"/></g>
<g><path style="opacity:1" fill="#3b3b3b" d="M 326.5,133.5 C 327.392,129.655 328.392,125.821 329.5,122C 328.196,118.623 329.529,117.623 333.5,119C 330.868,123.755 328.534,128.588 326.5,133.5 Z"/></g>
<g><path style="opacity:1" fill="#0c0c0c" d="M 357.5,128.5 C 358.055,132.012 357.388,135.012 355.5,137.5C 355.665,134.15 355.498,130.817 355,127.5C 353.989,126.663 352.822,126.33 351.5,126.5C 351.5,126.167 351.5,125.833 351.5,125.5C 354.853,123.843 356.853,124.843 357.5,128.5 Z"/></g>
<g><path style="opacity:1" fill="#636363" d="M 458.5,127.5 C 458.586,126.504 458.252,125.671 457.5,125C 464.892,124.094 465.226,124.928 458.5,127.5 Z"/></g>
<g><path style="opacity:1" fill="#151515" d="M 476.5,126.5 C 476.185,130.371 476.518,134.038 477.5,137.5C 476.054,138.613 474.387,138.78 472.5,138C 473.72,136.475 474.387,134.641 474.5,132.5C 475.295,128.849 473.962,126.683 470.5,126C 472.67,124.112 474.67,124.279 476.5,126.5 Z"/></g>
<g><path style="opacity:1" fill="#131313" d="M 478.5,126.5 C 480.198,123.876 482.031,123.876 484,126.5C 484.333,129.833 484.667,133.167 485,136.5C 486.831,138.043 486.331,138.71 483.5,138.5C 482.5,138.333 481.5,138.167 480.5,138C 482.377,134.506 483.044,130.673 482.5,126.5C 481.167,126.5 479.833,126.5 478.5,126.5 Z"/></g>
<g><path style="opacity:1" fill="#161616" d="M 530.5,137.5 C 528.881,134.452 527.881,131.119 527.5,127.5C 526.328,126.295 524.995,126.295 523.5,127.5C 523.167,129.167 522.833,130.833 522.5,132.5C 522.613,134.641 523.28,136.475 524.5,138C 522.833,138.667 521.167,138.667 519.5,138C 520.622,134.591 520.789,131.091 520,127.5C 518.062,126.14 516.396,126.473 515,128.5C 514.502,131.482 514.335,134.482 514.5,137.5C 512.875,134.109 511.875,130.442 511.5,126.5C 511.062,126.565 510.728,126.399 510.5,126C 512.419,124.066 513.919,124.233 515,126.5C 517.544,123.92 520.044,123.92 522.5,126.5C 525.131,124.092 527.631,124.092 530,126.5C 530.499,130.152 530.665,133.818 530.5,137.5 Z"/></g>
<g><path style="opacity:1" fill="#171717" d="M 544.5,127.5 C 544.631,128.376 544.298,129.043 543.5,129.5C 542.818,128.757 542.151,128.091 541.5,127.5C 540.942,126.21 539.942,125.377 538.5,125C 541.294,124.028 543.294,124.861 544.5,127.5 Z"/></g>
<g><path style="opacity:1" fill="#070707" d="M 558.5,129.5 C 559.036,132.698 558.369,135.365 556.5,137.5C 556.665,134.15 556.498,130.817 556,127.5C 554.989,126.663 553.822,126.33 552.5,126.5C 552.5,126.167 552.5,125.833 552.5,125.5C 556.28,123.928 558.28,125.262 558.5,129.5 Z"/></g>
<g><path style="opacity:1" fill="#585858" d="M 602.5,124.5 C 603.486,128.97 603.819,133.637 603.5,138.5C 601.452,138.84 600.452,138.507 600.5,137.5C 602.43,133.627 603.097,129.294 602.5,124.5 Z"/></g>
<g><path style="opacity:1" fill="#848484" d="M 689.5,124.5 C 690.5,124.5 691.5,124.5 692.5,124.5C 692.888,130.699 691.888,131.033 689.5,125.5C 689.5,125.167 689.5,124.833 689.5,124.5 Z"/></g>
<g><path style="opacity:1" fill="#252525" d="M 397.5,124.5 C 399.205,125.535 400.872,125.535 402.5,124.5C 403.5,124.833 404.167,125.5 404.5,126.5C 402.922,127.072 401.422,127.406 400,127.5C 399.211,131.091 399.378,134.591 400.5,138C 398.5,138.667 396.5,138.667 394.5,138C 395.733,136.302 396.4,134.302 396.5,132C 396.4,129.698 395.733,127.698 394.5,126C 395.737,125.768 396.737,125.268 397.5,124.5 Z"/></g>
<g><path style="opacity:1" fill="#070707" d="M 439.5,136.5 C 440.167,137.167 440.833,137.833 441.5,138.5C 439.856,138.714 438.356,138.38 437,137.5C 436.173,133.459 436.34,129.459 437.5,125.5C 438.167,129.313 438.834,132.979 439.5,136.5 Z"/></g>
<g><path style="opacity:1" fill="#070707" d="M 447.5,136.5 C 447.622,137.707 446.622,138.374 444.5,138.5C 444.443,137.391 444.11,136.391 443.5,135.5C 444.166,132.311 444.833,128.977 445.5,125.5C 446.167,129.313 446.834,132.979 447.5,136.5 Z"/></g>
<g><path style="opacity:1" fill="#191919" d="M 467.5,124.5 C 468.324,128.312 468.824,132.312 469,136.5C 470.831,138.043 470.331,138.71 467.5,138.5C 466.5,138.333 465.5,138.167 464.5,138C 465.733,136.302 466.4,134.302 466.5,132C 466.4,129.698 465.733,127.698 464.5,126C 465.737,125.768 466.737,125.268 467.5,124.5 Z"/></g>
<g><path style="opacity:1" fill="#151515" d="M 492.5,136.5 C 493.833,136.5 495.167,136.5 496.5,136.5C 494.989,138.441 492.989,138.941 490.5,138C 489.748,137.329 489.414,136.496 489.5,135.5C 489.18,132.102 489.513,128.768 490.5,125.5C 491.167,129.313 491.834,132.979 492.5,136.5 Z"/></g>
<g><path style="opacity:1" fill="#9e9e9e" d="M 492.5,136.5 C 491.834,132.979 491.167,129.313 490.5,125.5C 489.513,128.768 489.18,132.102 489.5,135.5C 488.802,132.103 488.135,128.603 487.5,125C 489.134,124.506 490.801,124.34 492.5,124.5C 492.5,128.5 492.5,132.5 492.5,136.5 Z"/></g>
<g><path style="opacity:1" fill="#080808" d="M 496.5,136.5 C 497.1,132.871 497.767,129.204 498.5,125.5C 498.935,129.612 499.935,133.445 501.5,137C 499.443,139.081 497.777,138.914 496.5,136.5 Z"/></g>
<g><path style="opacity:1" fill="#141414" d="M 550.5,124.5 C 550.182,129.032 550.515,133.366 551.5,137.5C 550.399,138.598 549.066,138.765 547.5,138C 548.131,136.094 548.464,134.094 548.5,132C 548.4,129.698 547.733,127.698 546.5,126C 547.901,125.59 549.234,125.09 550.5,124.5 Z"/></g>
<g><path style="opacity:1" fill="#090909" d="M 565.5,142.5 C 564.833,137.167 564.167,131.833 563.5,126.5C 563.062,126.565 562.728,126.399 562.5,126C 563.5,125.5 564.5,125 565.5,124.5C 566.747,130.523 566.747,136.523 565.5,142.5 Z"/></g>
<g><path style="opacity:1" fill="#181818" d="M 602.5,124.5 C 603.097,129.294 602.43,133.627 600.5,137.5C 601.044,133.327 600.377,129.494 598.5,126C 599.901,125.59 601.234,125.09 602.5,124.5 Z"/></g>
<g><path style="opacity:1" fill="#1b1b1b" d="M 629.5,125.5 C 631.017,124.265 632.684,124.265 634.5,125.5C 634.935,129.612 635.935,133.445 637.5,137C 637.167,137.333 636.833,137.667 636.5,138C 633.332,137.997 630.165,137.83 627,137.5C 626.202,135.741 626.369,134.074 627.5,132.5C 629.71,131.234 631.71,129.734 633.5,128C 632.968,125.98 631.635,125.147 629.5,125.5 Z"/></g>
<g><path style="opacity:1" fill="#101010" d="M 702.5,137.5 C 702.721,134.721 702.388,132.054 701.5,129.5C 702.928,127.623 702.428,126.289 700,125.5C 698.235,126.232 697.068,127.565 696.5,129.5C 695.246,127.741 695.579,126.241 697.5,125C 699.568,124.313 701.568,124.48 703.5,125.5C 703.935,129.612 704.935,133.445 706.5,137C 705.182,138.63 703.849,138.797 702.5,137.5 Z"/></g>
<g><path style="opacity:1" fill="#848484" d="M 720.5,135.5 C 719.834,132.311 719.167,128.977 718.5,125.5C 717.893,125.624 717.56,125.957 717.5,126.5C 715.833,126.5 714.167,126.5 712.5,126.5C 712.5,129.5 712.5,132.5 712.5,135.5C 711.833,131.167 711.167,126.833 710.5,122.5C 710.369,121.624 710.702,120.957 711.5,120.5C 712.429,121.689 712.762,123.022 712.5,124.5C 715.167,124.5 717.833,124.5 720.5,124.5C 720.5,128.167 720.5,131.833 720.5,135.5 Z"/></g>
<g><path style="opacity:1" fill="#161616" d="M 720.5,135.5 C 721.884,136.801 723.384,136.801 725,135.5C 725.498,132.518 725.665,129.518 725.5,126.5C 725.56,125.957 725.893,125.624 726.5,125.5C 727.167,129.313 727.834,132.979 728.5,136.5C 729.239,136.369 729.906,136.536 730.5,137C 729.128,137.402 727.795,137.902 726.5,138.5C 723.872,138.463 721.205,138.129 718.5,137.5C 717.511,133.893 717.177,130.226 717.5,126.5C 717.56,125.957 717.893,125.624 718.5,125.5C 719.167,128.977 719.834,132.311 720.5,135.5 Z"/></g>
<g><path style="opacity:1" fill="#5b5b5b" d="M 728.5,136.5 C 727.834,132.979 727.167,129.313 726.5,125.5C 725.893,125.624 725.56,125.957 725.5,126.5C 724.711,126.217 724.044,125.717 723.5,125C 725.134,124.506 726.801,124.34 728.5,124.5C 728.5,128.5 728.5,132.5 728.5,136.5 Z"/></g>
<g><path style="opacity:1" fill="#1a1a1a" d="M 410.5,125.5 C 412.936,124.428 415.103,125.095 417,127.5C 419.165,135.321 416.332,138.821 408.5,138C 407.333,137.5 406.5,136.667 406,135.5C 404.862,131.57 405.695,128.236 408.5,125.5C 408.833,125.667 409.167,125.833 409.5,126C 406.506,130.526 407.173,134.36 411.5,137.5C 415.254,136.148 416.421,133.482 415,129.5C 414.252,127.249 412.752,125.916 410.5,125.5 Z"/></g>
<g><path style="opacity:1" fill="#9f9f9f" d="M 447.5,136.5 C 446.834,132.979 446.167,129.313 445.5,125.5C 444.833,128.977 444.166,132.311 443.5,135.5C 443.789,131.894 443.456,128.394 442.5,125C 444.134,124.506 445.801,124.34 447.5,124.5C 447.5,128.5 447.5,132.5 447.5,136.5 Z"/></g>
<g><path style="opacity:1" fill="#3a3a3a" d="M 571.5,125.5 C 573.176,126.183 573.843,127.517 573.5,129.5C 572.5,129.5 571.5,129.5 570.5,129.5C 570.433,128.041 570.766,126.708 571.5,125.5 Z"/></g>
<g><path style="opacity:1" fill="#262626" d="M 575.5,137.5 C 577.564,135.34 577.898,133.007 576.5,130.5C 577.011,128.805 577.678,127.139 578.5,125.5C 579.086,125.709 579.586,126.043 580,126.5C 580.238,130.222 580.738,133.889 581.5,137.5C 579.599,138.231 577.599,138.231 575.5,137.5 Z"/></g>
<g><path style="opacity:1" fill="#1c1c1c" d="M 651.5,131.5 C 650.699,133.042 650.366,134.708 650.5,136.5C 652.099,136.768 653.432,136.434 654.5,135.5C 655.742,133.611 655.742,131.611 654.5,129.5C 654.5,128.167 654.5,126.833 654.5,125.5C 651.671,125.325 650.004,126.658 649.5,129.5C 648.786,125.077 650.786,123.577 655.5,125C 656.767,129.037 658.101,133.037 659.5,137C 658.892,137.87 658.059,138.37 657,138.5C 654.253,138.163 651.42,137.996 648.5,138C 646.736,134.552 647.736,132.385 651.5,131.5 Z"/></g>
<g><path style="opacity:1" fill="#1b1b1b" d="M 667.5,124.5 C 669.39,124.297 670.89,124.963 672,126.5C 671.948,130.656 672.781,134.49 674.5,138C 672.5,138.667 670.5,138.667 668.5,138C 670.523,134.817 671.023,131.317 670,127.5C 668.933,126.809 667.766,126.309 666.5,126C 667.056,125.617 667.389,125.117 667.5,124.5 Z"/></g>
<g><path style="opacity:1" fill="#202020" d="M 689.5,124.5 C 689.5,124.833 689.5,125.167 689.5,125.5C 687.654,125.222 686.32,125.889 685.5,127.5C 687.177,129.76 689.343,131.427 692,132.5C 692.667,134.167 692.667,135.833 692,137.5C 689.281,138.444 686.448,138.777 683.5,138.5C 683.34,136.801 683.506,135.134 684,133.5C 684.672,137.03 686.838,138.363 690.5,137.5C 690.128,133.957 688.128,131.79 684.5,131C 682.848,126.472 684.514,124.305 689.5,124.5 Z"/></g>
<g><path style="opacity:1" fill="#202020" d="M 335.5,124.5 C 337.591,124.318 339.591,124.652 341.5,125.5C 341.935,129.612 342.935,133.445 344.5,137C 343.892,137.87 343.059,138.37 342,138.5C 339.578,138.046 337.078,137.879 334.5,138C 333.424,136.274 333.257,134.441 334,132.5C 336.458,131.36 338.625,129.86 340.5,128C 339.968,125.98 338.635,125.147 336.5,125.5C 336.735,128.812 335.735,129.645 333.5,128C 333.978,126.697 334.645,125.531 335.5,124.5 Z"/></g>
<g><path style="opacity:1" fill="#181818" d="M 424.5,125.5 C 425.884,124.199 427.384,124.199 429,125.5C 429.918,122.937 429.418,120.77 427.5,119C 428.766,118.691 429.933,118.191 431,117.5C 430.894,124.279 431.727,130.779 433.5,137C 433.167,137.333 432.833,137.667 432.5,138C 430.164,137.228 427.831,137.394 425.5,138.5C 423.626,138.61 422.126,137.944 421,136.5C 420.333,133.833 420.333,131.167 421,128.5C 421.759,126.937 422.926,125.937 424.5,125.5 Z"/></g>
<g><path style="opacity:1" fill="#efefef" d="M 424.5,125.5 C 426.39,125.297 427.89,125.963 429,127.5C 429.498,130.482 429.665,133.482 429.5,136.5C 426.956,136.896 424.789,136.229 423,134.5C 422.207,131.259 422.707,128.259 424.5,125.5 Z"/></g>
<g><path style="opacity:1" fill="#4b4b4b" d="M 511.5,126.5 C 511.875,130.442 512.875,134.109 514.5,137.5C 514.077,138.63 512.743,138.797 510.5,138C 511.46,134.27 511.793,130.437 511.5,126.5 Z"/></g>
<g><path style="opacity:1" fill="#818181" d="M 563.5,126.5 C 564.167,131.833 564.833,137.167 565.5,142.5C 565.167,143.5 564.5,144.167 563.5,144.5C 563.5,144.167 563.5,143.833 563.5,143.5C 563.5,137.833 563.5,132.167 563.5,126.5 Z"/></g>
<g><path style="opacity:1" fill="#2d2d2d" d="M 629.5,125.5 C 629.029,126.901 628.362,128.234 627.5,129.5C 626.059,127.167 626.725,125.834 629.5,125.5 Z"/></g>
<g><path style="opacity:1" fill="#6e6e6e" d="M 350.5,128.5 C 350.216,131.777 350.549,134.943 351.5,138C 348.162,138.876 346.829,138.709 347.5,137.5C 349.11,134.797 350.11,131.797 350.5,128.5 Z"/></g>
<g><path style="opacity:1" fill="#797979" d="M 357.5,128.5 C 358.201,131.563 358.868,134.73 359.5,138C 357.257,138.797 355.923,138.63 355.5,137.5C 357.388,135.012 358.055,132.012 357.5,128.5 Z"/></g>
<g><path style="opacity:1" fill="#959595" d="M 476.5,126.5 C 477.167,126.5 477.833,126.5 478.5,126.5C 477.577,130.064 477.244,133.731 477.5,137.5C 476.518,134.038 476.185,130.371 476.5,126.5 Z"/></g>
<g><path style="opacity:1" fill="#7c7c7c" d="M 527.5,127.5 C 527.881,131.119 528.881,134.452 530.5,137.5C 531.171,138.709 529.838,138.876 526.5,138C 527.456,134.606 527.789,131.106 527.5,127.5 Z"/></g>
<g><path style="opacity:1" fill="#1e1e1e" d="M 534.5,128.5 C 535.167,129.833 535.833,131.167 536.5,132.5C 537.982,136.829 540.482,137.496 544,134.5C 544.507,135.996 544.007,137.163 542.5,138C 537.91,139.615 535.077,138.115 534,133.5C 533.22,131.613 533.387,129.946 534.5,128.5 Z"/></g>
<g><path style="opacity:1" fill="#777777" d="M 550.5,124.5 C 551.167,124.833 551.833,125.167 552.5,125.5C 552.5,125.833 552.5,126.167 552.5,126.5C 551.577,130.064 551.244,133.731 551.5,137.5C 550.515,133.366 550.182,129.032 550.5,124.5 Z"/></g>
<g><path style="opacity:1" fill="#242424" d="M 593.5,117.5 C 594.867,123.866 596.2,130.366 597.5,137C 593.961,138.504 590.295,138.837 586.5,138C 582.418,133.449 582.751,129.116 587.5,125C 589.134,124.506 590.801,124.34 592.5,124.5C 592.739,122.533 592.406,120.699 591.5,119C 592.416,118.722 593.082,118.222 593.5,117.5 Z"/></g>
<g><path style="opacity:1" fill="#f4f4f4" d="M 588.5,125.5 C 589.822,125.33 590.989,125.663 592,126.5C 592.498,129.817 592.665,133.15 592.5,136.5C 590.533,136.739 588.699,136.406 587,135.5C 586.037,131.851 586.537,128.518 588.5,125.5 Z"/></g>
<g><path style="opacity:1" fill="#303030" d="M 616.5,124.5 C 618.833,124.5 621.167,124.5 623.5,124.5C 623.762,125.978 623.429,127.311 622.5,128.5C 620.536,124.873 618.536,124.707 616.5,128C 618.375,129.86 620.542,131.36 623,132.5C 623.667,134.167 623.667,135.833 623,137.5C 620.281,138.444 617.448,138.777 614.5,138.5C 614.343,137.127 614.51,135.793 615,134.5C 616.508,136.838 618.675,137.838 621.5,137.5C 620.958,133.787 618.792,131.454 615,130.5C 614.252,128.16 614.752,126.16 616.5,124.5 Z"/></g>
<g><path style="opacity:1" fill="#676767" d="M 541.5,127.5 C 542.151,128.091 542.818,128.757 543.5,129.5C 544.298,129.043 544.631,128.376 544.5,127.5C 545.404,128.209 545.737,129.209 545.5,130.5C 541.988,129.945 538.988,130.612 536.5,132.5C 535.833,131.167 535.167,129.833 534.5,128.5C 535.988,125.814 536.655,126.147 536.5,129.5C 538.781,129.923 540.448,129.256 541.5,127.5 Z"/></g>
<g><path style="opacity:1" fill="#7f7f7f" d="M 558.5,129.5 C 559.205,132.228 559.872,135.061 560.5,138C 557.162,138.876 555.829,138.709 556.5,137.5C 558.369,135.365 559.036,132.698 558.5,129.5 Z"/></g>
<g><path style="opacity:1" fill="#f0f0f0" d="M 337.5,131.5 C 338.5,131.5 339.5,131.5 340.5,131.5C 341.167,135.5 339.5,137.167 335.5,136.5C 335.365,134.446 336.032,132.779 337.5,131.5 Z"/></g>
<g><path style="opacity:1" fill="#eeeeee" d="M 576.5,130.5 C 577.898,133.007 577.564,135.34 575.5,137.5C 572.753,134.804 573.086,132.471 576.5,130.5 Z"/></g>
<g><path style="opacity:1" fill="#f4f4f4" d="M 632.5,130.5 C 634.586,134.659 633.252,136.659 628.5,136.5C 628.657,133.682 629.991,131.682 632.5,130.5 Z"/></g>
<g><path style="opacity:1" fill="#f5f5f5" d="M 651.5,131.5 C 652.5,131.5 653.5,131.5 654.5,131.5C 654.5,132.833 654.5,134.167 654.5,135.5C 653.432,136.434 652.099,136.768 650.5,136.5C 650.366,134.708 650.699,133.042 651.5,131.5 Z"/></g>
<g><path style="opacity:1" fill="#727272" d="M 654.5,129.5 C 655.742,131.611 655.742,133.611 654.5,135.5C 654.5,134.167 654.5,132.833 654.5,131.5C 653.5,131.5 652.5,131.5 651.5,131.5C 652.29,130.599 653.29,129.932 654.5,129.5 Z"/></g>
<g><path style="opacity:1" fill="#f4f4f4" d="M 698.5,136.5 C 697.167,135.167 697.167,133.833 698.5,132.5C 699.15,132.196 699.817,131.863 700.5,131.5C 701.452,133.045 701.785,134.712 701.5,136.5C 700.5,136.5 699.5,136.5 698.5,136.5 Z"/></g>
<g><path style="opacity:1" fill="#939393" d="M 701.5,129.5 C 702.388,132.054 702.721,134.721 702.5,137.5C 701.391,137.557 700.391,137.89 699.5,138.5C 699.167,137.833 698.833,137.167 698.5,136.5C 699.5,136.5 700.5,136.5 701.5,136.5C 701.785,134.712 701.452,133.045 700.5,131.5C 699.817,131.863 699.15,132.196 698.5,132.5C 698.5,132.167 698.5,131.833 698.5,131.5C 699.29,130.599 700.29,129.932 701.5,129.5 Z"/></g>
<g><path style="opacity:1" fill="#b5b5b5" d="M 453.5,117.5 C 454.483,121.298 454.817,125.298 454.5,129.5C 454.433,130.959 454.766,132.292 455.5,133.5C 454.566,134.568 454.232,135.901 454.5,137.5C 453.509,131.021 453.176,124.354 453.5,117.5 Z"/></g>
<g><path style="opacity:1" fill="#212121" d="M 458.5,127.5 C 457.859,128.482 457.193,129.482 456.5,130.5C 458.272,133.56 460.605,136.06 463.5,138C 461.741,138.798 460.074,138.631 458.5,137.5C 457.479,136.099 456.479,134.765 455.5,133.5C 454.766,132.292 454.433,130.959 454.5,129.5C 455.605,128.4 456.938,127.733 458.5,127.5 Z"/></g>
<g><path style="opacity:1" fill="#212121" d="M 576.5,130.5 C 573.086,132.471 572.753,134.804 575.5,137.5C 574.399,138.598 573.066,138.765 571.5,138C 570.053,133.591 571.719,131.091 576.5,130.5 Z"/></g>
<g><path style="opacity:1" fill="#101010" d="M 698.5,131.5 C 698.5,131.833 698.5,132.167 698.5,132.5C 697.167,133.833 697.167,135.167 698.5,136.5C 698.833,137.167 699.167,137.833 699.5,138.5C 695.775,138.22 694.608,136.22 696,132.5C 696.671,131.748 697.504,131.414 698.5,131.5 Z"/></g>
<g><path style="opacity:1" fill="#f9f9fa" d="M 184.5,112.5 C 186.257,113.292 187.591,114.625 188.5,116.5C 191.199,117.729 193.865,117.729 196.5,116.5C 196.5,139.5 196.5,162.5 196.5,185.5C 187.584,186.471 178.584,186.804 169.5,186.5C 168.577,182.936 168.244,179.269 168.5,175.5C 168.5,168.833 168.5,162.167 168.5,155.5C 175.824,153.197 182.157,149.197 187.5,143.5C 188.452,141.955 188.785,140.288 188.5,138.5C 185.452,139.25 183.785,141.25 183.5,144.5C 178.692,145.769 174.026,147.436 169.5,149.5C 168.832,147.031 168.165,144.698 167.5,142.5C 166.682,137.848 164.682,133.848 161.5,130.5C 161.201,128.396 161.534,126.396 162.5,124.5C 166.82,122.825 170.153,120.158 172.5,116.5C 174.966,117.634 177.633,117.801 180.5,117C 182.751,116.252 184.084,114.752 184.5,112.5 Z"/></g>
<g><path style="opacity:1" fill="#848992" d="M 188.5,138.5 C 189.389,136.264 190.722,134.264 192.5,132.5C 192.648,135.099 191.315,137.099 188.5,138.5 Z"/></g>
<g><path style="opacity:1" fill="#59788e" d="M 94.5,115.5 C 95.4916,115.328 96.1583,115.662 96.5,116.5C 95.5025,139.327 95.1692,162.327 95.5,185.5C 95.1667,185.5 94.8333,185.5 94.5,185.5C 94.5,162.167 94.5,138.833 94.5,115.5 Z"/></g>
<g><path style="opacity:1" fill="#222222" d="M 363.5,135.5 C 364.5,135.5 365.5,135.5 366.5,135.5C 366.5,136.5 366.5,137.5 366.5,138.5C 365.5,138.5 364.5,138.5 363.5,138.5C 363.5,137.5 363.5,136.5 363.5,135.5 Z"/></g>
<g><path style="opacity:1" fill="#f83a2f" d="M 155.5,149.5 C 155.077,150.265 154.743,151.098 154.5,152C 156.62,154.408 158.62,156.908 160.5,159.5C 162.265,160.461 164.265,160.795 166.5,160.5C 166.5,164.833 166.5,169.167 166.5,173.5C 160.797,173.375 155.13,173.708 149.5,174.5C 149.468,168.811 149.134,163.145 148.5,157.5C 148.295,149.133 148.629,140.8 149.5,132.5C 149.5,132.167 149.5,131.833 149.5,131.5C 150.708,130.766 152.041,130.433 153.5,130.5C 154.268,135.398 155.602,140.231 157.5,145C 156.586,146.406 155.92,147.906 155.5,149.5 Z"/></g>
<g><path style="opacity:1" fill="#727272" d="M 443.5,135.5 C 444.11,136.391 444.443,137.391 444.5,138.5C 443.5,137.167 442.5,137.167 441.5,138.5C 440.833,137.833 440.167,137.167 439.5,136.5C 440.959,136.567 442.292,136.234 443.5,135.5 Z"/></g>
<g><path style="opacity:1" fill="#ecb0b4" d="M 180.5,134.5 C 184.584,133.945 185.251,134.945 182.5,137.5C 178.005,138.998 174.005,141.331 170.5,144.5C 169.355,143.224 169.355,141.891 170.5,140.5C 173.929,138.461 177.263,136.461 180.5,134.5 Z"/></g>
<g><path style="opacity:1" fill="#e63941" d="M 153.5,126.5 C 156.077,126.455 158.077,127.455 159.5,129.5C 160.373,131.886 161.873,133.886 164,135.5C 164.14,138.043 164.806,140.377 166,142.5C 166.808,144.579 166.641,146.579 165.5,148.5C 164.735,147.388 163.735,146.721 162.5,146.5C 159.962,147.043 157.628,148.043 155.5,149.5C 155.92,147.906 156.586,146.406 157.5,145C 155.602,140.231 154.268,135.398 153.5,130.5C 152.041,130.433 150.708,130.766 149.5,131.5C 150.08,129.251 151.413,127.585 153.5,126.5 Z"/></g>
<g><path style="opacity:1" fill="#1f1f1f" d="M 563.5,143.5 C 563.5,143.833 563.5,144.167 563.5,144.5C 561.712,144.785 560.045,144.452 558.5,143.5C 560.095,142.566 561.761,142.566 563.5,143.5 Z"/></g>
<g><path style="opacity:1" fill="#e05142" d="M 149.5,132.5 C 148.629,140.8 148.295,149.133 148.5,157.5C 147.206,153.74 146.54,149.74 146.5,145.5C 146.375,140.772 147.375,136.438 149.5,132.5 Z"/></g>
<g><path style="opacity:1" fill="#d1dae2" d="M 199.5,114.5 C 200.167,114.5 200.833,114.5 201.5,114.5C 202.338,114.842 202.672,115.508 202.5,116.5C 201.883,116.389 201.383,116.056 201,115.5C 200.5,139.164 200.333,162.831 200.5,186.5C 199.833,186.5 199.5,186.167 199.5,185.5C 199.5,161.833 199.5,138.167 199.5,114.5 Z"/></g>
<g><path style="opacity:1" fill="#cc4051" d="M 159.5,129.5 C 160.167,129.833 160.833,130.167 161.5,130.5C 164.682,133.848 166.682,137.848 167.5,142.5C 167.664,145.187 167.497,147.854 167,150.5C 165.989,151.337 164.822,151.67 163.5,151.5C 163.634,149.708 163.301,148.042 162.5,146.5C 163.735,146.721 164.735,147.388 165.5,148.5C 166.641,146.579 166.808,144.579 166,142.5C 164.806,140.377 164.14,138.043 164,135.5C 161.873,133.886 160.373,131.886 159.5,129.5 Z"/></g>
<g><path style="opacity:1" fill="#f2a8aa" d="M 188.5,138.5 C 188.785,140.288 188.452,141.955 187.5,143.5C 182.157,149.197 175.824,153.197 168.5,155.5C 168.5,162.167 168.5,168.833 168.5,175.5C 168.167,175.5 167.833,175.5 167.5,175.5C 167.5,169.833 167.5,164.167 167.5,158.5C 165.194,158.993 162.861,159.326 160.5,159.5C 158.62,156.908 156.62,154.408 154.5,152C 154.743,151.098 155.077,150.265 155.5,149.5C 157.628,148.043 159.962,147.043 162.5,146.5C 163.301,148.042 163.634,149.708 163.5,151.5C 164.822,151.67 165.989,151.337 167,150.5C 167.497,147.854 167.664,145.187 167.5,142.5C 168.165,144.698 168.832,147.031 169.5,149.5C 174.026,147.436 178.692,145.769 183.5,144.5C 183.785,141.25 185.452,139.25 188.5,138.5 Z"/></g>
<g><path style="opacity:1" fill="#696969" d="M 583.5,152.5 C 584.183,159.234 584.85,166.068 585.5,173C 582.162,173.876 580.829,173.709 581.5,172.5C 583.459,166.25 584.126,159.584 583.5,152.5 Z"/></g>
<g><path style="opacity:1" fill="#0b0b0b" d="M 712.5,161.5 C 711.42,164.743 711.253,168.076 712,171.5C 713.356,172.38 714.856,172.714 716.5,172.5C 714.44,173.811 712.274,173.811 710,172.5C 710.102,166.05 709.269,159.884 707.5,154C 708.766,153.691 709.933,153.191 711,152.5C 711.181,155.695 711.681,158.695 712.5,161.5 Z"/></g>
<g><path style="opacity:1" fill="#e12d5e" d="M 376.5,153.5 C 377.833,153.5 379.167,153.5 380.5,153.5C 380.5,154.833 380.5,156.167 380.5,157.5C 379.167,157.5 377.833,157.5 376.5,157.5C 376.5,156.167 376.5,154.833 376.5,153.5 Z"/></g>
<g><path style="opacity:1" fill="#040404" d="M 739.5,152.5 C 740.126,159.584 739.459,166.25 737.5,172.5C 738.097,166.04 737.43,159.874 735.5,154C 736.901,153.59 738.234,153.09 739.5,152.5 Z"/></g>
<g><path style="opacity:1" fill="#e12c5b" d="M 314.5,159.5 C 312.666,163.514 311.999,167.847 312.5,172.5C 311.5,172.5 310.5,172.5 309.5,172.5C 309.817,168.298 309.483,164.298 308.5,160.5C 308.062,160.565 307.728,160.399 307.5,160C 308.589,156.312 310.922,153.812 314.5,152.5C 316.002,153.083 317.335,153.916 318.5,155C 316.723,157.152 315.223,156.985 314,154.5C 313.22,156.387 313.387,158.054 314.5,159.5 Z"/></g>
<g><path style="opacity:1" fill="#e85983" d="M 430.5,154.5 C 432.265,153.539 434.265,153.205 436.5,153.5C 436.189,160.09 436.522,166.59 437.5,173C 435.167,173.667 432.833,173.667 430.5,173C 431.826,166.734 431.826,160.568 430.5,154.5 Z"/></g>
<g><path style="opacity:1" fill="#dd0d4e" d="M 432.5,154.5 C 433.5,154.5 434.5,154.5 435.5,154.5C 435.5,160.5 435.5,166.5 435.5,172.5C 434.5,172.5 433.5,172.5 432.5,172.5C 432.5,166.5 432.5,160.5 432.5,154.5 Z"/></g>
<g><path style="opacity:1" fill="#1d1d1d" d="M 601.5,154.5 C 603.035,153.212 604.701,153.212 606.5,154.5C 608.577,159.244 610.744,163.91 613,168.5C 615.318,163.864 617.651,159.198 620,154.5C 621.388,153.446 622.888,153.28 624.5,154C 623.167,160.333 623.167,166.667 624.5,173C 622.167,173.667 619.833,173.667 617.5,173C 618.416,172.626 619.25,172.126 620,171.5C 620.667,166.833 620.667,162.167 620,157.5C 618.027,162.779 615.527,167.779 612.5,172.5C 609.719,167.667 607.219,162.667 605,157.5C 604.501,162.489 604.334,167.489 604.5,172.5C 606.706,173.584 605.373,173.751 600.5,173C 601.667,172.5 602.5,171.667 603,170.5C 603.667,165.833 603.667,161.167 603,156.5C 602.722,155.584 602.222,154.918 601.5,154.5 Z"/></g>
<g><path style="opacity:1" fill="#111111" d="M 665.5,155.5 C 664.833,161.014 664.167,166.681 663.5,172.5C 662.833,166.681 662.167,161.014 661.5,155.5C 659.511,154.113 657.678,154.447 656,156.5C 655.517,155.552 655.351,154.552 655.5,153.5C 660.833,153.5 666.167,153.5 671.5,153.5C 671.649,154.552 671.483,155.552 671,156.5C 669.322,154.447 667.489,154.113 665.5,155.5 Z"/></g>
<g><path style="opacity:1" fill="#1f1f1f" d="M 544.5,152.5 C 547.127,153.092 549.794,153.425 552.5,153.5C 552.662,155.527 552.495,157.527 552,159.5C 550.634,155.234 547.801,153.734 543.5,155C 542.14,156.938 542.473,158.604 544.5,160C 547.418,161.709 550.252,163.542 553,165.5C 554.041,168.636 553.207,171.136 550.5,173C 547.197,173.215 544.03,173.382 541,173.5C 540.333,171.5 540.333,169.5 541,167.5C 542.366,171.766 545.199,173.266 549.5,172C 550.935,169.733 550.602,167.733 548.5,166C 545.414,164.907 542.914,163.074 541,160.5C 539.78,156.707 540.947,154.04 544.5,152.5 Z"/></g>
<g><path style="opacity:1" fill="#171717" d="M 583.5,152.5 C 584.126,159.584 583.459,166.25 581.5,172.5C 582.097,166.04 581.43,159.874 579.5,154C 580.901,153.59 582.234,153.09 583.5,152.5 Z"/></g>
<g><path style="opacity:1" fill="#8a8a8a" d="M 661.5,155.5 C 662.167,161.014 662.833,166.681 663.5,172.5C 664.167,166.681 664.833,161.014 665.5,155.5C 664.908,161.631 665.575,167.464 667.5,173C 664.833,173.667 662.167,173.667 659.5,173C 661.425,167.464 662.092,161.631 661.5,155.5 Z"/></g>
<g><path style="opacity:1" fill="#df1f56" d="M 391.5,159.5 C 390.791,160.404 389.791,160.737 388.5,160.5C 388.185,164.371 388.518,168.038 389.5,171.5C 391.82,172.277 391.486,172.943 388.5,173.5C 386.971,173.471 385.804,172.804 385,171.5C 384.797,167.579 384.297,163.745 383.5,160C 385,158.5 386.5,157 388,155.5C 388.49,156.793 388.657,158.127 388.5,159.5C 389.5,159.5 390.5,159.5 391.5,159.5 Z"/></g>
<g><path style="opacity:1" fill="#66869f" d="M 96.5,116.5 C 97.4916,116.328 98.1583,116.662 98.5,117.5C 98.5,140.167 98.5,162.833 98.5,185.5C 98.1667,185.5 97.8333,185.5 97.5,185.5C 97.8224,162.425 97.4891,139.425 96.5,116.5 Z"/></g>
<g><path style="opacity:1" fill="#0d0d0d" d="M 558.5,157.5 C 559.167,161.833 559.833,166.167 560.5,170.5C 560.918,171.222 561.584,171.722 562.5,172C 561.135,173.682 559.635,173.849 558,172.5C 557.8,168.247 557.3,164.08 556.5,160C 557.381,159.292 558.047,158.458 558.5,157.5 Z"/></g>
<g><path style="opacity:1" fill="#e1295c" d="M 320.5,159.5 C 322.92,159.292 325.253,159.626 327.5,160.5C 328.227,164.511 328.893,168.511 329.5,172.5C 327.389,173.848 325.555,173.515 324,171.5C 322.267,173.602 320.267,173.935 318,172.5C 317.333,171.167 317.333,169.833 318,168.5C 320,167.167 322,165.833 324,164.5C 324.49,163.207 324.657,161.873 324.5,160.5C 323.5,160.5 322.5,160.5 321.5,160.5C 321.5,161.833 321.5,163.167 321.5,164.5C 320.167,164.5 318.833,164.5 317.5,164.5C 317.31,162.041 318.31,160.374 320.5,159.5 Z"/></g>
<g><path style="opacity:1" fill="#e12f5e" d="M 342.5,163.5 C 341.754,167.07 340.421,170.404 338.5,173.5C 336.299,168.93 333.965,164.43 331.5,160C 333.833,159.333 336.167,159.333 338.5,160C 337.536,162.647 338.036,165.147 340,167.5C 340.608,165.934 341.442,164.6 342.5,163.5 Z"/></g>
<g><path style="opacity:1" fill="#e0245b" d="M 342.5,163.5 C 342.67,162.178 342.337,161.011 341.5,160C 342.833,159.333 344.167,159.333 345.5,160C 344.364,161.145 343.364,162.312 342.5,163.5 Z"/></g>
<g><path style="opacity:1" fill="#e02558" d="M 361.5,160.5 C 363.863,158.998 366.03,159.332 368,161.5C 369.444,159.845 371.278,159.178 373.5,159.5C 373.762,162.921 372.428,163.921 369.5,162.5C 368.031,164.192 367.365,166.192 367.5,168.5C 367.649,170.32 368.316,171.82 369.5,173C 366.833,173.667 364.167,173.667 361.5,173C 362.743,171.13 363.41,168.964 363.5,166.5C 363.461,164.048 362.794,162.048 361.5,160.5 Z"/></g>
<g><path style="opacity:1" fill="#e02258" d="M 374.5,160.5 C 376.265,159.539 378.265,159.205 380.5,159.5C 380.2,164.099 380.533,168.599 381.5,173C 379.167,173.667 376.833,173.667 374.5,173C 376.059,171.004 376.726,168.671 376.5,166C 376.453,163.705 375.787,161.871 374.5,160.5 Z"/></g>
<g><path style="opacity:1" fill="#e23561" d="M 400.5,160.5 C 404.47,159.992 408.47,159.825 412.5,160C 416.5,164.333 416.5,168.667 412.5,173C 410.527,173.495 408.527,173.662 406.5,173.5C 406.5,175.5 406.5,177.5 406.5,179.5C 404.712,179.785 403.045,179.452 401.5,178.5C 402.618,173.22 402.784,167.887 402,162.5C 401.722,161.584 401.222,160.918 400.5,160.5 Z"/></g>
<g><path style="opacity:1" fill="#e12f5f" d="M 442.5,159.5 C 444.92,159.292 447.253,159.626 449.5,160.5C 450.227,164.511 450.893,168.511 451.5,172.5C 449.389,173.848 447.555,173.515 446,171.5C 444.267,173.602 442.267,173.935 440,172.5C 439.333,171.167 439.333,169.833 440,168.5C 441.828,166.919 443.828,165.585 446,164.5C 446.49,163.207 446.657,161.873 446.5,160.5C 445.5,160.5 444.5,160.5 443.5,160.5C 443.657,161.873 443.49,163.207 443,164.5C 440.171,165.674 439.171,164.674 440,161.5C 440.995,160.934 441.828,160.267 442.5,159.5 Z"/></g>
<g><path style="opacity:1" fill="#e0295c" d="M 453.5,160.5 C 457.744,160.321 462.077,160.321 466.5,160.5C 467.137,164.7 467.804,168.866 468.5,173C 466.421,173.808 464.421,173.641 462.5,172.5C 463.426,168.906 463.759,165.24 463.5,161.5C 462.178,161.33 461.011,161.663 460,162.5C 459.211,166.091 459.378,169.591 460.5,173C 454.394,174.767 452.727,172.601 455.5,166.5C 455.461,164.048 454.794,162.048 453.5,160.5 Z"/></g>
<g><path style="opacity:1" fill="#e33763" d="M 504.5,165.5 C 501.577,164.837 500.91,163.17 502.5,160.5C 505.937,158.922 509.104,159.255 512,161.5C 512.207,165.089 512.707,168.589 513.5,172C 511.973,173.632 510.307,173.799 508.5,172.5C 507.811,170.556 507.311,168.556 507,166.5C 504.048,168.193 503.882,170.026 506.5,172C 505.07,173.44 503.403,173.774 501.5,173C 500.483,171.951 500.316,170.784 501,169.5C 502.102,168.051 503.269,166.718 504.5,165.5 Z"/></g>
<g><path style="opacity:1" fill="#df2257" d="M 521.5,162.5 C 520.521,165.625 520.187,168.958 520.5,172.5C 519.5,172.5 518.5,172.5 517.5,172.5C 517.817,168.298 517.483,164.298 516.5,160.5C 519.806,159.823 523.64,159.823 528,160.5C 527.937,164.982 528.77,169.148 530.5,173C 528.167,173.667 525.833,173.667 523.5,173C 524.795,169.214 524.795,165.38 523.5,161.5C 522.817,161.863 522.15,162.196 521.5,162.5 Z"/></g>
<g><path style="opacity:1" fill="#1a1a1a" d="M 631.5,160.5 C 634.402,158.885 636.735,159.551 638.5,162.5C 637.947,164.552 636.947,164.885 635.5,163.5C 635.306,161.088 633.973,160.088 631.5,160.5 Z"/></g>
<g><path style="opacity:1" fill="#1b1b1b" d="M 686.5,159.5 C 687.75,159.577 688.583,160.244 689,161.5C 691.167,159.536 693.501,159.202 696,160.5C 695.937,164.982 696.77,169.148 698.5,173C 696.5,173.667 694.5,173.667 692.5,173C 693.72,171.475 694.387,169.641 694.5,167.5C 695.593,162.611 693.926,160.944 689.5,162.5C 689.167,164.167 688.833,165.833 688.5,167.5C 688.613,169.641 689.28,171.475 690.5,173C 688.5,173.667 686.5,173.667 684.5,173C 685.733,171.302 686.4,169.302 686.5,167C 686.4,164.698 685.733,162.698 684.5,161C 685.416,160.722 686.082,160.222 686.5,159.5 Z"/></g>
<g><path style="opacity:1" fill="#0e0e0e" d="M 704.5,163.5 C 705.055,167.012 704.388,170.012 702.5,172.5C 702.665,169.15 702.498,165.817 702,162.5C 697.503,160.985 697.669,160.152 702.5,160C 703.823,160.816 704.489,161.983 704.5,163.5 Z"/></g>
<g><path style="opacity:1" fill="#141414" d="M 716.5,172.5 C 718.293,169.741 718.793,166.741 718,163.5C 716.416,162.139 714.582,161.472 712.5,161.5C 715.225,158.793 717.725,159.126 720,162.5C 720.667,164.833 720.667,167.167 720,169.5C 719.578,171.426 718.411,172.426 716.5,172.5 Z"/></g>
<g><path style="opacity:1" fill="#212121" d="M 741.5,161.5 C 741.5,161.167 741.5,160.833 741.5,160.5C 743.339,159.248 745.172,159.248 747,160.5C 747.232,164.555 747.732,168.555 748.5,172.5C 746.926,173.631 745.259,173.798 743.5,173C 744.72,171.475 745.387,169.641 745.5,167.5C 745.333,165.833 745.167,164.167 745,162.5C 743.989,161.663 742.822,161.33 741.5,161.5 Z"/></g>
<g><path style="opacity:1" fill="#e12c5c" d="M 350.5,159.5 C 358.322,159.166 361.156,162.833 359,170.5C 352.969,175.204 348.802,173.871 346.5,166.5C 347.094,163.692 348.427,161.359 350.5,159.5 Z"/></g>
<g><path style="opacity:1" fill="#e0265a" d="M 428.5,163.5 C 427.947,165.552 426.947,165.885 425.5,164.5C 425.778,162.654 425.111,161.32 423.5,160.5C 421.889,161.32 421.222,162.654 421.5,164.5C 421.5,165.167 421.5,165.833 421.5,166.5C 422.063,171.512 424.229,172.512 428,169.5C 428.507,170.996 428.007,172.163 426.5,173C 419.24,174.033 416.407,170.867 418,163.5C 419.691,159.787 422.525,158.621 426.5,160C 427.823,160.816 428.489,161.983 428.5,163.5 Z"/></g>
<g><path style="opacity:1" fill="#fce7ed" d="M 504.5,165.5 C 505.807,164.198 505.807,162.865 504.5,161.5C 506.495,160.11 507.828,160.61 508.5,163C 507.644,164.595 506.311,165.428 504.5,165.5 Z"/></g>
<g><path style="opacity:1" fill="#8c8c8c" d="M 568.5,160.5 C 567.209,160.263 566.209,160.596 565.5,161.5C 564.198,160.193 562.865,160.193 561.5,161.5C 560.516,164.428 560.183,167.428 560.5,170.5C 559.833,166.167 559.167,161.833 558.5,157.5C 558.369,156.624 558.702,155.957 559.5,155.5C 560.429,156.689 560.762,158.022 560.5,159.5C 563.972,159.16 566.639,159.493 568.5,160.5 Z"/></g>
<g><path style="opacity:1" fill="#1b1b1b" d="M 568.5,160.5 C 569.042,163.912 570.375,166.912 572.5,169.5C 572.5,169.833 572.5,170.167 572.5,170.5C 571.97,172.924 571.136,175.257 570,177.5C 568.556,179.155 566.722,179.822 564.5,179.5C 564.5,178.5 564.5,177.5 564.5,176.5C 567.567,176.984 569.567,175.818 570.5,173C 569.231,168.966 567.565,165.132 565.5,161.5C 566.209,160.596 567.209,160.263 568.5,160.5 Z"/></g>
<g><path style="opacity:1" fill="#232323" d="M 674.5,160.5 C 676.357,159.246 678.357,159.246 680.5,160.5C 681.227,164.511 681.893,168.511 682.5,172.5C 681.5,173.833 680.5,173.833 679.5,172.5C 678.933,170.018 678.266,167.684 677.5,165.5C 678.301,163.958 678.634,162.292 678.5,160.5C 677.167,160.5 675.833,160.5 674.5,160.5 Z"/></g>
<g><path style="opacity:1" fill="#101010" d="M 725.5,159.5 C 727.591,159.318 729.591,159.652 731.5,160.5C 731.935,164.612 732.935,168.445 734.5,172C 733.437,173.188 732.103,173.688 730.5,173.5C 730.294,169.31 730.127,165.31 730,161.5C 726.983,159.979 725.15,160.979 724.5,164.5C 723.348,162.603 723.681,160.936 725.5,159.5 Z"/></g>
<g><path style="opacity:1" fill="#eb7397" d="M 314.5,159.5 C 313.451,163.711 313.451,168.211 314.5,173C 312.167,173.667 309.833,173.667 307.5,173C 308.464,168.934 308.797,164.767 308.5,160.5C 309.483,164.298 309.817,168.298 309.5,172.5C 310.5,172.5 311.5,172.5 312.5,172.5C 311.999,167.847 312.666,163.514 314.5,159.5 Z"/></g>
<g><path style="opacity:1" fill="#fefbfc" d="M 352.5,160.5 C 353.496,160.414 354.329,160.748 355,161.5C 355.167,163 355.333,164.5 355.5,166C 355.66,168.47 354.993,170.636 353.5,172.5C 352.914,172.291 352.414,171.957 352,171.5C 351.245,167.745 351.411,164.078 352.5,160.5 Z"/></g>
<g><path style="opacity:1" fill="#f2a5bd" d="M 391.5,159.5 C 392.043,159.56 392.376,159.893 392.5,160.5C 391.675,161.386 390.675,161.719 389.5,161.5C 389.5,164.833 389.5,168.167 389.5,171.5C 388.518,168.038 388.185,164.371 388.5,160.5C 389.791,160.737 390.791,160.404 391.5,159.5 Z"/></g>
<g><path style="opacity:1" fill="#fef6f8" d="M 406.5,161.5 C 407.833,161.5 409.167,161.5 410.5,161.5C 410.5,164.833 410.5,168.167 410.5,171.5C 409.167,171.5 407.833,171.5 406.5,171.5C 406.5,168.167 406.5,164.833 406.5,161.5 Z"/></g>
<g><path style="opacity:1" fill="#fdf2f5" d="M 425.5,164.5 C 424.167,164.5 422.833,164.5 421.5,164.5C 421.222,162.654 421.889,161.32 423.5,160.5C 425.111,161.32 425.778,162.654 425.5,164.5 Z"/></g>
<g><path style="opacity:1" fill="#f0f0f0" d="M 591.5,160.5 C 593.38,160.229 594.713,160.896 595.5,162.5C 594.081,163.451 592.415,163.784 590.5,163.5C 590.557,162.391 590.89,161.391 591.5,160.5 Z"/></g>
<g><path style="opacity:1" fill="#121212" d="M 591.5,160.5 C 594.402,158.885 596.735,159.551 598.5,162.5C 598.631,163.376 598.298,164.043 597.5,164.5C 596.818,163.757 596.151,163.091 595.5,162.5C 594.713,160.896 593.38,160.229 591.5,160.5 Z"/></g>
<g><path style="opacity:1" fill="#efefef" d="M 631.5,160.5 C 633.973,160.088 635.306,161.088 635.5,163.5C 633.585,163.784 631.919,163.451 630.5,162.5C 630.833,161.833 631.167,161.167 631.5,160.5 Z"/></g>
<g><path style="opacity:1" fill="#323232" d="M 674.5,160.5 C 674.762,161.978 674.429,163.311 673.5,164.5C 673.167,163.833 672.833,163.167 672.5,162.5C 672.747,161.287 673.414,160.62 674.5,160.5 Z"/></g>
<g><path style="opacity:1" fill="#f0f0f0" d="M 712.5,161.5 C 714.582,161.472 716.416,162.139 718,163.5C 718.793,166.741 718.293,169.741 716.5,172.5C 714.856,172.714 713.356,172.38 712,171.5C 711.253,168.076 711.42,164.743 712.5,161.5 Z"/></g>
<g><path style="opacity:1" fill="#486f8d" d="M 199.5,114.5 C 199.5,138.167 199.5,161.833 199.5,185.5C 199.167,185.5 198.833,185.5 198.5,185.5C 198.831,162.327 198.498,139.327 197.5,116.5C 197.833,115.5 198.5,114.833 199.5,114.5 Z"/></g>
<g><path style="opacity:1" fill="#282828" d="M 591.5,160.5 C 590.89,161.391 590.557,162.391 590.5,163.5C 590.5,164.167 590.5,164.833 590.5,165.5C 590.664,171.488 593.164,172.821 598,169.5C 598.035,172.291 596.535,173.624 593.5,173.5C 589.439,173.072 587.439,170.739 587.5,166.5C 587.877,163.714 589.211,161.714 591.5,160.5 Z"/></g>
<g><path style="opacity:1" fill="#1e1e1e" d="M 631.5,160.5 C 631.167,161.167 630.833,161.833 630.5,162.5C 629.167,164.167 629.167,165.833 630.5,167.5C 630.818,169.818 632.152,171.152 634.5,171.5C 636.286,170.546 637.953,169.713 639.5,169C 636.838,173.664 633.338,174.497 629,171.5C 627.203,168.198 627.203,164.865 629,161.5C 629.671,160.748 630.504,160.414 631.5,160.5 Z"/></g>
<g><path style="opacity:1" fill="#7a7a7a" d="M 704.5,163.5 C 705.201,166.563 705.868,169.73 706.5,173C 703.162,173.876 701.829,173.709 702.5,172.5C 704.388,170.012 705.055,167.012 704.5,163.5 Z"/></g>
<g><path style="opacity:1" fill="#7c7c7c" d="M 739.5,152.5 C 740.167,155.167 740.833,157.833 741.5,160.5C 741.5,160.833 741.5,161.167 741.5,161.5C 740.2,165.334 740.2,169.168 741.5,173C 738.162,173.876 736.829,173.709 737.5,172.5C 739.459,166.25 740.126,159.584 739.5,152.5 Z"/></g>
<g><path style="opacity:1" fill="#cf3a45" d="M 167.5,175.5 C 161.5,175.5 155.5,175.5 149.5,175.5C 149.5,175.167 149.5,174.833 149.5,174.5C 155.13,173.708 160.797,173.375 166.5,173.5C 166.5,169.167 166.5,164.833 166.5,160.5C 164.265,160.795 162.265,160.461 160.5,159.5C 162.861,159.326 165.194,158.993 167.5,158.5C 167.5,164.167 167.5,169.833 167.5,175.5 Z"/></g>
<g><path style="opacity:1" fill="#808080" d="M 595.5,162.5 C 596.151,163.091 596.818,163.757 597.5,164.5C 598.298,164.043 598.631,163.376 598.5,162.5C 599.404,163.209 599.737,164.209 599.5,165.5C 596.5,165.5 593.5,165.5 590.5,165.5C 590.5,164.833 590.5,164.167 590.5,163.5C 592.415,163.784 594.081,163.451 595.5,162.5 Z"/></g>
<g><path style="opacity:1" fill="#828282" d="M 630.5,162.5 C 631.919,163.451 633.585,163.784 635.5,163.5C 636.947,164.885 637.947,164.552 638.5,162.5C 639.404,163.209 639.737,164.209 639.5,165.5C 635.988,164.945 632.988,165.612 630.5,167.5C 629.167,165.833 629.167,164.167 630.5,162.5 Z"/></g>
<g><path style="opacity:1" fill="#ef8cab" d="M 428.5,163.5 C 429.404,164.209 429.737,165.209 429.5,166.5C 426.833,166.5 424.167,166.5 421.5,166.5C 421.5,165.833 421.5,165.167 421.5,164.5C 422.833,164.5 424.167,164.5 425.5,164.5C 426.947,165.885 427.947,165.552 428.5,163.5 Z"/></g>
<g><path style="opacity:1" fill="#fdf2f6" d="M 444.5,166.5 C 446.176,167.183 446.843,168.517 446.5,170.5C 445.5,170.5 444.5,170.5 443.5,170.5C 443.433,169.041 443.766,167.708 444.5,166.5 Z"/></g>
<g><path style="opacity:1" fill="#fdf2f5" d="M 322.5,166.5 C 324.176,167.183 324.843,168.517 324.5,170.5C 323.5,170.5 322.5,170.5 321.5,170.5C 321.433,169.041 321.766,167.708 322.5,166.5 Z"/></g>
<g><path style="opacity:1" fill="#1e1e1e" d="M 677.5,165.5 C 675.028,166.642 674.028,168.642 674.5,171.5C 675.552,171.351 676.552,171.517 677.5,172C 675.973,173.632 674.307,173.799 672.5,172.5C 671.32,168.324 672.987,165.991 677.5,165.5 Z"/></g>
<g><path style="opacity:1" fill="#1a1a1a" d="M 724.5,166.5 C 725.239,166.369 725.906,166.536 726.5,167C 725.62,168.356 725.286,169.856 725.5,171.5C 726.873,171.343 728.207,171.51 729.5,172C 727.75,173.319 725.75,173.819 723.5,173.5C 723.298,171.05 723.631,168.717 724.5,166.5 Z"/></g>
<g><path style="opacity:1" fill="#545454" d="M 572.5,170.5 C 572.5,170.167 572.5,169.833 572.5,169.5C 573.758,166.306 574.424,162.973 574.5,159.5C 575.873,159.343 577.207,159.51 578.5,160C 576.236,163.411 574.236,166.911 572.5,170.5 Z"/></g>
<g><path style="opacity:1" fill="#e23261" d="M 473.5,159.5 C 476.898,159.18 480.232,159.513 483.5,160.5C 483.299,166.367 480.299,169.701 474.5,170.5C 477.438,171.489 480.438,172.156 483.5,172.5C 483.917,175.079 483.25,177.246 481.5,179C 478.5,179.667 475.5,179.667 472.5,179C 470.043,177.846 470.043,176.512 472.5,175C 471.065,172.733 471.398,170.733 473.5,169C 469.543,165.704 469.543,162.537 473.5,159.5 Z"/></g>
<g><path style="opacity:1" fill="#fef9fa" d="M 475.5,160.5 C 476.5,160.5 477.5,160.5 478.5,160.5C 478.5,162.833 478.5,165.167 478.5,167.5C 477.5,167.5 476.5,167.5 475.5,167.5C 475.5,165.167 475.5,162.833 475.5,160.5 Z"/></g>
<g><path style="opacity:1" fill="#e12a5c" d="M 488.5,159.5 C 491.898,159.18 495.232,159.513 498.5,160.5C 498.333,166.335 495.333,169.669 489.5,170.5C 492.157,171.259 494.823,171.926 497.5,172.5C 498.91,174.949 498.576,177.116 496.5,179C 493.5,179.667 490.5,179.667 487.5,179C 485.043,177.846 485.043,176.512 487.5,175C 486.065,172.733 486.398,170.733 488.5,169C 484.599,165.792 484.599,162.626 488.5,159.5 Z"/></g>
<g><path style="opacity:1" fill="#fdf1f4" d="M 490.5,160.5 C 491.5,160.5 492.5,160.5 493.5,160.5C 493.5,162.833 493.5,165.167 493.5,167.5C 489.659,166.516 488.659,164.183 490.5,160.5 Z"/></g>
<g><path style="opacity:1" fill="#20557f" d="M 96.5,116.5 C 97.4891,139.425 97.8224,162.425 97.5,185.5C 96.8333,185.5 96.1667,185.5 95.5,185.5C 95.1692,162.327 95.5025,139.327 96.5,116.5 Z"/></g>
<g><path style="opacity:1" fill="#1c527e" d="M 196.5,116.5 C 196.833,116.5 197.167,116.5 197.5,116.5C 198.498,139.327 198.831,162.327 198.5,185.5C 197.833,185.5 197.167,185.5 196.5,185.5C 196.5,162.5 196.5,139.5 196.5,116.5 Z"/></g>
<g><path style="opacity:1" fill="#e9658d" d="M 516.5,160.5 C 517.483,164.298 517.817,168.298 517.5,172.5C 518.5,172.5 519.5,172.5 520.5,172.5C 520.187,168.958 520.521,165.625 521.5,162.5C 521.211,166.106 521.544,169.606 522.5,173C 520.167,173.667 517.833,173.667 515.5,173C 516.464,168.934 516.797,164.767 516.5,160.5 Z"/></g>
<g><path style="opacity:1" fill="#090909" d="M 642.5,170.5 C 644.465,170.948 644.798,171.948 643.5,173.5C 642.614,172.675 642.281,171.675 642.5,170.5 Z"/></g>
<g><path style="opacity:1" fill="#fdf5f7" d="M 473.5,175.5 C 476.247,175.187 478.914,175.52 481.5,176.5C 481.291,177.086 480.957,177.586 480.5,178C 478.19,178.497 475.857,178.663 473.5,178.5C 473.5,177.5 473.5,176.5 473.5,175.5 Z"/></g>
<g><path style="opacity:1" fill="#fdf3f6" d="M 488.5,175.5 C 491.247,175.187 493.914,175.52 496.5,176.5C 496.291,177.086 495.957,177.586 495.5,178C 493.19,178.497 490.857,178.663 488.5,178.5C 488.5,177.5 488.5,176.5 488.5,175.5 Z"/></g>
<g><path style="opacity:1" fill="#20232b" d="M 233.5,170.5 C 233.185,174.371 233.518,178.038 234.5,181.5C 233.551,186.74 233.218,192.073 233.5,197.5C 233.167,197.5 232.833,197.5 232.5,197.5C 231.955,182.427 232.289,173.427 233.5,170.5 Z"/></g>
<g><path style="opacity:1" fill="#636569" d="M 227.5,179.5 C 228.497,178.287 229.497,178.454 230.5,180C 229.423,180.47 228.423,180.303 227.5,179.5 Z"/></g>
<g><path style="opacity:1" fill="#96999e" d="M 234.5,181.5 C 233.518,178.038 233.185,174.371 233.5,170.5C 235.371,170.141 236.871,169.141 238,167.5C 238.309,169.391 237.475,170.725 235.5,171.5C 234.167,174.167 234.167,176.833 235.5,179.5C 236.451,178.674 237.451,178.508 238.5,179C 237.529,180.481 236.196,181.315 234.5,181.5 Z"/></g>
<g><path style="opacity:1" fill="#7d2776" d="M 149.5,176.5 C 149.5,176.167 149.5,175.833 149.5,175.5C 155.5,175.5 161.5,175.5 167.5,175.5C 167.833,175.5 168.167,175.5 168.5,175.5C 168.244,179.269 168.577,182.936 169.5,186.5C 169.5,186.833 169.5,187.167 169.5,187.5C 169.5,189.5 169.5,191.5 169.5,193.5C 169.821,198.695 169.487,203.695 168.5,208.5C 168.666,203.156 168.499,197.823 168,192.5C 167.333,193.833 166.667,193.833 166,192.5C 164.833,187.5 163.667,182.5 162.5,177.5C 158.906,176.574 155.24,176.241 151.5,176.5C 150.833,176.5 150.167,176.5 149.5,176.5 Z"/></g>
<g><path style="opacity:1" fill="#d78da1" d="M 149.5,182.5 C 150.482,185.962 150.815,189.629 150.5,193.5C 150.167,193.5 149.833,193.5 149.5,193.5C 149.5,191.5 149.5,189.5 149.5,187.5C 129.5,187.5 109.5,187.5 89.5,187.5C 91.1667,186.833 92.8333,186.167 94.5,185.5C 94.8333,185.5 95.1667,185.5 95.5,185.5C 96.1667,185.5 96.8333,185.5 97.5,185.5C 97.8333,185.5 98.1667,185.5 98.5,185.5C 115.325,186.497 132.325,186.83 149.5,186.5C 149.5,185.167 149.5,183.833 149.5,182.5 Z"/></g>
<g><path style="opacity:1" fill="#633081" d="M 151.5,176.5 C 155.24,176.241 158.906,176.574 162.5,177.5C 163.667,182.5 164.833,187.5 166,192.5C 166.667,193.833 167.333,193.833 168,192.5C 168.499,197.823 168.666,203.156 168.5,208.5C 167.439,211.991 165.439,214.658 162.5,216.5C 162.658,213.455 161.991,210.621 160.5,208C 161.304,203.557 161.137,199.057 160,194.5C 157.644,192.965 156.144,190.798 155.5,188C 155.484,184.984 155.484,181.984 155.5,179C 153.934,178.392 152.6,177.558 151.5,176.5 Z"/></g>
<g><path style="opacity:1" fill="#b86c92" d="M 196.5,185.5 C 197.167,185.5 197.833,185.5 198.5,185.5C 198.833,185.5 199.167,185.5 199.5,185.5C 199.5,186.167 199.833,186.5 200.5,186.5C 202.099,186.232 203.432,186.566 204.5,187.5C 192.833,187.5 181.167,187.5 169.5,187.5C 169.5,187.167 169.5,186.833 169.5,186.5C 178.584,186.804 187.584,186.471 196.5,185.5 Z"/></g>
<g><path style="opacity:1" fill="#060606" d="M 531.5,206.5 C 531.44,207.043 531.107,207.376 530.5,207.5C 529.833,201.346 529.167,195.346 528.5,189.5C 528.062,189.565 527.728,189.399 527.5,189C 528.5,188.5 529.5,188 530.5,187.5C 531.496,193.798 531.83,200.132 531.5,206.5 Z"/></g>
<g><path style="opacity:1" fill="#0a0a0a" d="M 559.5,187.5 C 559.177,194.022 559.51,200.355 560.5,206.5C 560.5,206.833 560.5,207.167 560.5,207.5C 559.5,207.5 558.5,207.5 557.5,207.5C 557.823,201.31 557.49,195.31 556.5,189.5C 556.378,188.293 557.378,187.626 559.5,187.5 Z"/></g>
<g><path style="opacity:1" fill="#0f0f0f" d="M 587.5,187.5 C 587.253,190.939 587.586,194.272 588.5,197.5C 587.197,200.355 587.197,203.355 588.5,206.5C 589.736,207.246 591.07,207.579 592.5,207.5C 590.643,208.754 588.643,208.754 586.5,207.5C 586.109,201.078 585.109,194.911 583.5,189C 584.745,188.209 586.078,187.709 587.5,187.5 Z"/></g>
<g><path style="opacity:1" fill="#8c8c8c" d="M 587.5,187.5 C 588.167,190.167 588.833,192.833 589.5,195.5C 589.5,195.833 589.5,196.167 589.5,196.5C 589.5,197.167 589.167,197.5 588.5,197.5C 587.586,194.272 587.253,190.939 587.5,187.5 Z"/></g>
<g><path style="opacity:1" fill="#1a1a1a" d="M 601.5,187.5 C 604.674,187.952 605.007,188.952 602.5,190.5C 601.614,189.675 601.281,188.675 601.5,187.5 Z"/></g>
<g><path style="opacity:1" fill="#252525" d="M 476.5,187.5 C 478.459,193.75 479.126,200.416 478.5,207.5C 477.5,207.5 476.5,207.5 475.5,207.5C 476.097,201.04 475.43,194.874 473.5,189C 474.737,188.768 475.737,188.268 476.5,187.5 Z"/></g>
<g><path style="opacity:1" fill="#bababa" d="M 556.5,189.5 C 557.49,195.31 557.823,201.31 557.5,207.5C 558.5,207.5 559.5,207.5 560.5,207.5C 559.432,208.434 558.099,208.768 556.5,208.5C 556.5,202.167 556.5,195.833 556.5,189.5 Z"/></g>
<g><path style="opacity:1" fill="#c94b7d" d="M 169.5,187.5 C 181.167,187.5 192.833,187.5 204.5,187.5C 206.475,197.446 207.142,207.779 206.5,218.5C 206.5,219.5 206.5,220.5 206.5,221.5C 205.778,221.918 205.278,222.584 205,223.5C 204.829,215.323 204.329,207.323 203.5,199.5C 201.833,199.5 200.167,199.5 198.5,199.5C 198.167,197.5 197.833,195.5 197.5,193.5C 188.5,193.5 179.5,193.5 170.5,193.5C 170.167,193.5 169.833,193.5 169.5,193.5C 169.5,191.5 169.5,189.5 169.5,187.5 Z"/></g>
<g><path style="opacity:1" fill="#121212" d="M 333.5,187.5 C 335.178,193.668 336.178,200.168 336.5,207C 335.552,207.483 334.552,207.649 333.5,207.5C 334.097,201.04 333.43,194.874 331.5,189C 332.416,188.722 333.082,188.222 333.5,187.5 Z"/></g>
<g><path style="opacity:1" fill="#b5b5b5" d="M 528.5,189.5 C 529.167,195.346 529.833,201.346 530.5,207.5C 531.107,207.376 531.44,207.043 531.5,206.5C 532.289,206.783 532.956,207.283 533.5,208C 531.5,208.667 529.5,208.667 527.5,208C 528.476,201.924 528.81,195.758 528.5,189.5 Z"/></g>
<g><path style="opacity:1" fill="#1c1c1c" d="M 309.5,195.5 C 311.265,194.539 313.265,194.205 315.5,194.5C 315.79,198.554 315.123,199.054 313.5,196C 312.207,195.51 310.873,195.343 309.5,195.5 Z"/></g>
<g><path style="opacity:1" fill="#161616" d="M 322.5,195.5 C 325.649,193.771 327.982,194.605 329.5,198C 329.164,199.03 328.497,199.53 327.5,199.5C 327.672,198.508 327.338,197.842 326.5,197.5C 325.713,195.896 324.38,195.229 322.5,195.5 Z"/></g>
<g><path style="opacity:1" fill="#232323" d="M 362.5,194.5 C 364.886,194.459 367.219,194.959 369.5,196C 368.062,197.241 366.562,197.741 365,197.5C 364.502,200.817 364.335,204.15 364.5,207.5C 363.5,207.5 362.5,207.5 361.5,207.5C 362.044,203.327 361.377,199.494 359.5,196C 360.737,195.768 361.737,195.268 362.5,194.5 Z"/></g>
<g><path style="opacity:1" fill="#242424" d="M 388.5,196.5 C 389.932,194.353 391.765,194.02 394,195.5C 395.354,199.363 395.854,203.363 395.5,207.5C 394.5,207.5 393.5,207.5 392.5,207.5C 392.5,203.833 392.5,200.167 392.5,196.5C 391.167,196.5 389.833,196.5 388.5,196.5 Z"/></g>
<g><path style="opacity:1" fill="#262626" d="M 450.5,196.5 C 453.178,193.777 455.678,194.111 458,197.5C 459.275,205.22 456.109,208.72 448.5,208C 448,207.5 447.5,207 447,206.5C 447.098,200.38 446.264,194.546 444.5,189C 445.872,188.598 447.205,188.098 448.5,187.5C 449.167,190.642 449.834,193.642 450.5,196.5 Z"/></g>
<g><path style="opacity:1" fill="#0d0d0d" d="M 481.5,195.5 C 482.568,194.566 483.901,194.232 485.5,194.5C 485.335,198.182 485.501,201.848 486,205.5C 490.263,206.576 492.096,204.743 491.5,200C 491.371,198.019 490.704,196.353 489.5,195C 490.793,194.51 492.127,194.343 493.5,194.5C 492.945,198.997 493.611,203.164 495.5,207C 494.234,207.309 493.067,207.809 492,208.5C 491.667,207.833 491.333,207.167 491,206.5C 488.577,208.994 486.244,208.994 484,206.5C 484.094,202.367 483.26,198.701 481.5,195.5 Z"/></g>
<g><path style="opacity:1" fill="#161616" d="M 508.5,196.5 C 508.187,200.042 508.521,203.375 509.5,206.5C 508.791,207.404 507.791,207.737 506.5,207.5C 506.5,203.833 506.5,200.167 506.5,196.5C 505.167,196.5 503.833,196.5 502.5,196.5C 504.5,193.833 506.5,193.833 508.5,196.5 Z"/></g>
<g><path style="opacity:1" fill="#111111" d="M 567.5,196.5 C 567.823,200.226 567.489,203.893 566.5,207.5C 565.893,207.376 565.56,207.043 565.5,206.5C 565.665,203.482 565.498,200.482 565,197.5C 563.989,196.663 562.822,196.33 561.5,196.5C 561.5,196.167 561.5,195.833 561.5,195.5C 563.901,193.938 565.901,194.271 567.5,196.5 Z"/></g>
<g><path style="opacity:1" fill="#1a1a1a" d="M 592.5,207.5 C 594.432,204.823 594.932,201.823 594,198.5C 592.89,196.963 591.39,196.297 589.5,196.5C 589.5,196.167 589.5,195.833 589.5,195.5C 595.721,194.225 598.221,196.892 597,203.5C 596.252,205.751 594.752,207.084 592.5,207.5 Z"/></g>
<g><path style="opacity:1" fill="#0a0a0a" d="M 603.5,194.5 C 603.826,198.884 603.492,203.217 602.5,207.5C 601.833,203.687 601.166,200.021 600.5,196.5C 600.378,195.293 601.378,194.626 603.5,194.5 Z"/></g>
<g><path style="opacity:1" fill="#a2a2a2" d="M 603.5,194.5 C 604.486,198.97 604.819,203.637 604.5,208.5C 603.167,208.5 601.833,208.5 600.5,208.5C 600.5,204.5 600.5,200.5 600.5,196.5C 601.166,200.021 601.833,203.687 602.5,207.5C 603.492,203.217 603.826,198.884 603.5,194.5 Z"/></g>
<g><path style="opacity:1" fill="#343434" d="M 637.5,196.5 C 636.577,200.064 636.244,203.731 636.5,207.5C 635.5,207.5 634.5,207.5 633.5,207.5C 634.044,203.327 633.377,199.494 631.5,196C 633.921,194.188 635.921,194.354 637.5,196.5 Z"/></g>
<g><path style="opacity:1" fill="#262626" d="M 637.5,196.5 C 639.54,193.866 641.707,193.866 644,196.5C 644.499,200.152 644.665,203.818 644.5,207.5C 643.5,207.5 642.5,207.5 641.5,207.5C 641.5,203.833 641.5,200.167 641.5,196.5C 640.167,196.5 638.833,196.5 637.5,196.5 Z"/></g>
<g><path style="opacity:1" fill="#f6f6f6" d="M 322.5,195.5 C 324.38,195.229 325.713,195.896 326.5,197.5C 324.833,198.833 323.167,198.833 321.5,197.5C 321.833,196.833 322.167,196.167 322.5,195.5 Z"/></g>
<g><path style="opacity:1" fill="#191919" d="M 353.5,206.5 C 355.157,203.991 354.824,201.825 352.5,200C 354.158,199.275 354.658,198.108 354,196.5C 350.983,194.979 349.15,195.979 348.5,199.5C 347.246,197.741 347.579,196.241 349.5,195C 351.769,194.242 353.936,194.409 356,195.5C 355.948,199.656 356.781,203.49 358.5,207C 356.604,209.01 354.937,208.843 353.5,206.5 Z"/></g>
<g><path style="opacity:1" fill="#171717" d="M 376.5,206.5 C 375.341,208.377 373.674,208.877 371.5,208C 370.167,206 370.167,204 371.5,202C 375.292,201.311 377.292,199.144 377.5,195.5C 376.167,195.5 374.833,195.5 373.5,195.5C 373.574,199.161 372.574,199.828 370.5,197.5C 372.709,194.434 375.543,193.768 379,195.5C 379.333,198.833 379.667,202.167 380,205.5C 381.967,206.731 381.801,207.731 379.5,208.5C 378.482,207.807 377.482,207.141 376.5,206.5 Z"/></g>
<g><path style="opacity:1" fill="#141414" d="M 388.5,196.5 C 387.577,200.064 387.244,203.731 387.5,207.5C 386.5,207.5 385.5,207.5 384.5,207.5C 385.044,203.327 384.377,199.494 382.5,196C 384.83,193.909 386.83,194.075 388.5,196.5 Z"/></g>
<g><path style="opacity:1" fill="#171717" d="M 402.5,195.5 C 405.377,194.482 408.377,194.649 411.5,196C 410.246,198.786 408.58,201.286 406.5,203.5C 405.495,202.89 405.662,202.224 407,201.5C 408.568,197.083 407.068,195.083 402.5,195.5 Z"/></g>
<g><path style="opacity:1" fill="#0a0a0a" d="M 500.5,194.5 C 501.097,199.294 500.43,203.627 498.5,207.5C 499.044,203.327 498.377,199.494 496.5,196C 497.745,195.209 499.078,194.709 500.5,194.5 Z"/></g>
<g><path style="opacity:1" fill="#151515" d="M 580.5,196.5 C 580.036,200.502 580.702,204.169 582.5,207.5C 580.602,208.734 578.935,208.401 577.5,206.5C 579.157,203.991 578.824,201.825 576.5,200C 578.158,199.275 578.658,198.108 578,196.5C 574.983,194.979 573.15,195.979 572.5,199.5C 571.246,197.741 571.579,196.241 573.5,195C 575.5,194.333 577.5,194.333 579.5,195C 580.056,195.383 580.389,195.883 580.5,196.5 Z"/></g>
<g><path style="opacity:1" fill="#242424" d="M 422.5,194.5 C 424.833,194.5 427.167,194.5 429.5,194.5C 429.657,195.873 429.49,197.207 429,198.5C 427.482,195.246 425.315,194.746 422.5,197C 424.518,199.432 427.018,201.265 430,202.5C 430.825,204.701 430.325,206.534 428.5,208C 426.19,208.497 423.857,208.663 421.5,208.5C 421.343,207.127 421.51,205.793 422,204.5C 423.746,207.981 425.913,208.315 428.5,205.5C 426.823,203.24 424.657,201.573 422,200.5C 421.322,198.402 421.489,196.402 422.5,194.5 Z"/></g>
<g><path style="opacity:1" fill="#fafafa" d="M 450.5,196.5 C 454.134,196.157 455.801,197.823 455.5,201.5C 455.85,205.997 454.016,207.664 450,206.5C 449.253,203.076 449.42,199.743 450.5,196.5 Z"/></g>
<g><path style="opacity:1" fill="#f6f6f6" d="M 464.5,195.5 C 466.38,195.229 467.713,195.896 468.5,197.5C 466.965,198.788 465.299,198.788 463.5,197.5C 463.863,196.817 464.196,196.15 464.5,195.5 Z"/></g>
<g><path style="opacity:1" fill="#111111" d="M 464.5,195.5 C 464.5,195.167 464.5,194.833 464.5,194.5C 467.631,193.908 469.964,194.908 471.5,197.5C 471.631,198.376 471.298,199.043 470.5,199.5C 469.818,198.757 469.151,198.091 468.5,197.5C 467.713,195.896 466.38,195.229 464.5,195.5 Z"/></g>
<g><path style="opacity:1" fill="#222222" d="M 511.5,195.5 C 513.489,194.113 515.322,194.447 517,196.5C 517.499,200.152 517.665,203.818 517.5,207.5C 516.5,207.5 515.5,207.5 514.5,207.5C 514.815,203.629 514.482,199.962 513.5,196.5C 513.158,195.662 512.492,195.328 511.5,195.5 Z"/></g>
<g><path style="opacity:1" fill="#efefef" d="M 546.5,195.5 C 548.483,195.157 549.817,195.824 550.5,197.5C 548.965,198.788 547.299,198.788 545.5,197.5C 545.863,196.817 546.196,196.15 546.5,195.5 Z"/></g>
<g><path style="opacity:1" fill="#161616" d="M 546.5,195.5 C 549.998,193.752 552.665,194.752 554.5,198.5C 553.675,199.386 552.675,199.719 551.5,199.5C 551.672,198.508 551.338,197.842 550.5,197.5C 549.817,195.824 548.483,195.157 546.5,195.5 Z"/></g>
<g><path style="opacity:1" fill="#999999" d="M 580.5,196.5 C 581.001,199.895 582.001,203.228 583.5,206.5C 583.376,207.107 583.043,207.44 582.5,207.5C 580.702,204.169 580.036,200.502 580.5,196.5 Z"/></g>
<g><path style="opacity:1" fill="#eaeaea" d="M 589.5,196.5 C 591.39,196.297 592.89,196.963 594,198.5C 594.932,201.823 594.432,204.823 592.5,207.5C 591.07,207.579 589.736,207.246 588.5,206.5C 587.197,203.355 587.197,200.355 588.5,197.5C 589.167,197.5 589.5,197.167 589.5,196.5 Z"/></g>
<g><path style="opacity:1" fill="#2b2b2b" d="M 609.5,194.5 C 611.833,194.5 614.167,194.5 616.5,194.5C 616.66,196.199 616.494,197.866 616,199.5C 614.627,195.373 612.461,194.706 609.5,197.5C 611.619,199.4 613.953,201.066 616.5,202.5C 617.661,204.224 617.495,205.89 616,207.5C 613.281,208.444 610.448,208.777 607.5,208.5C 607.005,202.814 608.005,202.314 610.5,207C 611.793,207.49 613.127,207.657 614.5,207.5C 614.762,206.022 614.429,204.689 613.5,203.5C 608.102,201.881 606.769,198.881 609.5,194.5 Z"/></g>
<g><path style="opacity:1" fill="#252525" d="M 625.5,206.5 C 624.341,208.377 622.674,208.877 620.5,208C 619.167,206 619.167,204 620.5,202C 624.292,201.311 626.292,199.144 626.5,195.5C 625.167,195.5 623.833,195.5 622.5,195.5C 622.574,199.161 621.574,199.828 619.5,197.5C 621.441,194.666 624.107,193.832 627.5,195C 628.126,195.75 628.626,196.584 629,197.5C 629.212,200.758 629.712,203.924 630.5,207C 628.727,208.802 627.06,208.635 625.5,206.5 Z"/></g>
<g><path style="opacity:1" fill="#757175" d="M 62.5,197.5 C 62.5,201.5 62.5,205.5 62.5,209.5C 62.5,212.5 62.5,215.5 62.5,218.5C 62.5,219.833 62.5,221.167 62.5,222.5C 61.5135,218.888 61.0135,211.888 61,201.5C 59.5134,200.845 58.3467,199.845 57.5,198.5C 57.8333,198.167 58.1667,197.833 58.5,197.5C 59.1667,198.167 59.8333,198.833 60.5,199.5C 61.9943,195.817 60.9943,192.984 57.5,191C 58.549,190.508 59.549,190.674 60.5,191.5C 61.3078,189.577 61.8078,187.577 62,185.5C 62.3333,187.833 62.6667,190.167 63,192.5C 67.2587,190.05 67.4253,190.384 63.5,193.5C 62.5713,194.689 62.238,196.022 62.5,197.5 Z"/></g>
<g><path style="opacity:1" fill="#ddbe90" d="M 212.5,198.5 C 218.979,197.509 225.646,197.176 232.5,197.5C 232.833,197.5 233.167,197.5 233.5,197.5C 237.649,196.92 241.316,197.586 244.5,199.5C 243.833,199.5 243.167,199.5 242.5,199.5C 240.052,198.527 237.385,198.194 234.5,198.5C 233.833,202.5 233.167,202.5 232.5,198.5C 229.5,198.5 226.5,198.5 223.5,198.5C 219.833,198.5 216.167,198.5 212.5,198.5 Z"/></g>
<g><path style="opacity:1" fill="#1d1d1d" d="M 437.5,205.5 C 438.833,206.167 440.167,206.833 441.5,207.5C 433.927,208.812 431.093,205.478 433,197.5C 435.21,194.71 438.044,193.877 441.5,195C 443.037,196.11 443.703,197.61 443.5,199.5C 442.5,199.5 441.5,199.5 440.5,199.5C 440.041,195.18 438.208,194.513 435,197.5C 433.834,200.927 434.668,203.593 437.5,205.5 Z"/></g>
<g><path style="opacity:1" fill="#272727" d="M 461.5,197.5 C 462.167,199.167 462.833,200.833 463.5,202.5C 463.414,203.496 463.748,204.329 464.5,205C 467.097,205.281 469.43,205.448 471.5,205.5C 465.32,210.488 461.653,208.988 460.5,201C 460.648,199.744 460.982,198.577 461.5,197.5 Z"/></g>
<g><path style="opacity:1" fill="#242424" d="M 309.5,195.5 C 309.626,198.595 311.293,200.428 314.5,201C 317.167,203.333 317.167,205.667 314.5,208C 312.19,208.497 309.857,208.663 307.5,208.5C 307.34,206.801 307.506,205.134 308,203.5C 309.431,207.595 311.598,208.262 314.5,205.5C 312.823,203.24 310.657,201.573 308,200.5C 307.123,198.326 307.623,196.659 309.5,195.5 Z"/></g>
<g><path style="opacity:1" fill="#262626" d="M 322.5,195.5 C 322.167,196.167 321.833,196.833 321.5,197.5C 320.167,199.167 320.167,200.833 321.5,202.5C 321.818,204.818 323.152,206.152 325.5,206.5C 327.286,205.546 328.953,204.713 330.5,204C 327.909,208.689 324.409,209.523 320,206.5C 318,203.167 318,199.833 320,196.5C 320.671,195.748 321.504,195.414 322.5,195.5 Z"/></g>
<g><path style="opacity:1" fill="#676767" d="M 500.5,194.5 C 501.167,195.167 501.833,195.833 502.5,196.5C 501.2,200.334 501.2,204.168 502.5,208C 499.162,208.876 497.829,208.709 498.5,207.5C 500.43,203.627 501.097,199.294 500.5,194.5 Z"/></g>
<g><path style="opacity:1" fill="#6e6e6e" d="M 511.5,195.5 C 512.492,195.328 513.158,195.662 513.5,196.5C 512.178,196.33 511.011,196.663 510,197.5C 509.502,200.482 509.335,203.482 509.5,206.5C 508.521,203.375 508.187,200.042 508.5,196.5C 509.391,195.89 510.391,195.557 511.5,195.5 Z"/></g>
<g><path style="opacity:1" fill="#181818" d="M 544.5,197.5 C 544.232,199.099 544.566,200.432 545.5,201.5C 545.628,203.09 546.295,204.423 547.5,205.5C 549.854,206.392 551.854,206.392 553.5,205.5C 551.385,208.323 548.719,208.99 545.5,207.5C 543.342,204.257 543.009,200.924 544.5,197.5 Z"/></g>
<g><path style="opacity:1" fill="#858585" d="M 546.5,195.5 C 546.196,196.15 545.863,196.817 545.5,197.5C 547.299,198.788 548.965,198.788 550.5,197.5C 551.338,197.842 551.672,198.508 551.5,199.5C 548.918,199.025 546.918,199.692 545.5,201.5C 544.566,200.432 544.232,199.099 544.5,197.5C 544.5,196.167 545.167,195.5 546.5,195.5 Z"/></g>
<g><path style="opacity:1" fill="#8d8d8d" d="M 559.5,187.5 C 560.167,190.167 560.833,192.833 561.5,195.5C 561.5,195.833 561.5,196.167 561.5,196.5C 560.586,199.728 560.253,203.061 560.5,206.5C 559.51,200.355 559.177,194.022 559.5,187.5 Z"/></g>
<g><path style="opacity:1" fill="#fa778a" d="M 149.5,196.5 C 149.83,203.2 149.497,209.866 148.5,216.5C 147.833,215.5 147.167,214.5 146.5,213.5C 145.833,215.5 145.167,217.5 144.5,219.5C 143.833,219.167 143.167,218.833 142.5,218.5C 141.059,221.736 141.392,224.736 143.5,227.5C 140.461,231.97 138.794,236.97 138.5,242.5C 138.5,243.833 138.5,245.167 138.5,246.5C 137.391,246.557 136.391,246.89 135.5,247.5C 123.66,246.833 111.66,246.167 99.5,245.5C 98.1413,243.308 96.3079,241.641 94,240.5C 93.5001,228.171 93.3335,215.838 93.5,203.5C 97.7303,204.437 100.23,202.771 101,198.5C 102.067,197.809 103.234,197.309 104.5,197C 119.496,196.5 134.496,196.333 149.5,196.5 Z"/></g>
<g><path style="opacity:1" fill="#b9b9b9" d="M 464.5,194.5 C 464.5,194.833 464.5,195.167 464.5,195.5C 464.196,196.15 463.863,196.817 463.5,197.5C 465.299,198.788 466.965,198.788 468.5,197.5C 469.151,198.091 469.818,198.757 470.5,199.5C 471.298,199.043 471.631,198.376 471.5,197.5C 472.404,198.209 472.737,199.209 472.5,200.5C 468.988,199.945 465.988,200.612 463.5,202.5C 462.833,200.833 462.167,199.167 461.5,197.5C 462.167,196.167 463.167,195.167 464.5,194.5 Z"/></g>
<g><path style="opacity:1" fill="#838383" d="M 321.5,197.5 C 323.167,198.833 324.833,198.833 326.5,197.5C 327.338,197.842 327.672,198.508 327.5,199.5C 325.5,199.5 323.5,199.5 321.5,199.5C 321.5,200.5 321.5,201.5 321.5,202.5C 320.167,200.833 320.167,199.167 321.5,197.5 Z"/></g>
<g><path style="opacity:1" fill="#222222" d="M 339.5,195.5 C 341.288,194.378 343.288,194.211 345.5,195C 342.632,195.861 340.298,197.528 338.5,200C 339.975,202.309 341.642,204.476 343.5,206.5C 343,206.833 342.5,207.167 342,207.5C 335.683,204.262 335.183,200.428 340.5,196C 340.272,195.601 339.938,195.435 339.5,195.5 Z"/></g>
<g><path style="opacity:1" fill="#efefef" d="M 625.5,206.5 C 623.365,206.853 622.032,206.02 621.5,204C 626.248,198.803 627.582,199.637 625.5,206.5 Z"/></g>
<g><path style="opacity:1" fill="#55327b" d="M 149.5,176.5 C 150.167,176.5 150.833,176.5 151.5,176.5C 152.6,177.558 153.934,178.392 155.5,179C 155.484,181.984 155.484,184.984 155.5,188C 156.144,190.798 157.644,192.965 160,194.5C 161.137,199.057 161.304,203.557 160.5,208C 161.991,210.621 162.658,213.455 162.5,216.5C 162.539,217.756 162.039,218.756 161,219.5C 160.441,228.501 159.941,237.501 159.5,246.5C 157.5,247.833 155.5,247.833 153.5,246.5C 153.811,242.32 153.145,238.32 151.5,234.5C 149.955,236.395 148.455,238.395 147,240.5C 146.184,241.823 145.017,242.489 143.5,242.5C 142.391,242.443 141.391,242.11 140.5,241.5C 142.541,233.412 145.708,225.745 150,218.5C 151.587,210.033 151.754,201.7 150.5,193.5C 150.815,189.629 150.482,185.962 149.5,182.5C 149.5,180.5 149.5,178.5 149.5,176.5 Z"/></g>
<g><path style="opacity:1" fill="#faf6f0" d="M 242.5,199.5 C 243.167,199.5 243.833,199.5 244.5,199.5C 244.783,200.289 245.283,200.956 246,201.5C 246.499,207.491 246.666,213.491 246.5,219.5C 244.901,219.768 243.568,219.434 242.5,218.5C 242.5,212.167 242.5,205.833 242.5,199.5 Z"/></g>
<g><path style="opacity:1" fill="#f8f8f8" d="M 376.5,206.5 C 374.654,206.778 373.32,206.111 372.5,204.5C 377.18,198.579 378.513,199.246 376.5,206.5 Z"/></g>
<g><path style="opacity:1" fill="#1c1c1c" d="M 577.5,206.5 C 576.341,208.377 574.674,208.877 572.5,208C 571.424,206.274 571.257,204.441 572,202.5C 572.718,201.549 573.551,201.383 574.5,202C 572.839,205.15 573.839,206.65 577.5,206.5 Z"/></g>
<g><path style="opacity:1" fill="#d85582" d="M 194.5,196.5 C 195.614,199.404 197.614,201.404 200.5,202.5C 200.667,214.505 200.5,226.505 200,238.5C 199.036,234.204 198.203,229.87 197.5,225.5C 196.167,224.833 194.833,224.167 193.5,223.5C 189.698,218.699 185.364,214.533 180.5,211C 182.229,209.211 182.896,207.044 182.5,204.5C 181.5,204.5 180.5,204.5 179.5,204.5C 179.286,206.144 179.62,207.644 180.5,209C 179.551,209.617 178.718,209.451 178,208.5C 177.132,205.515 176.799,202.515 177,199.5C 178.949,199.537 180.782,199.037 182.5,198C 178.833,197.667 175.167,197.333 171.5,197C 179.159,196.5 186.826,196.334 194.5,196.5 Z"/></g>
<g><path style="opacity:1" fill="#1e1e1e" d="M 353.5,206.5 C 352.341,208.377 350.674,208.877 348.5,208C 347.424,206.274 347.257,204.441 348,202.5C 348.718,201.549 349.551,201.383 350.5,202C 348.839,205.15 349.839,206.65 353.5,206.5 Z"/></g>
<g><path style="opacity:1" fill="#1a1a1a" d="M 539.5,206.5 C 539.265,207.097 538.765,207.43 538,207.5C 536.989,206.944 536.156,206.278 535.5,205.5C 531.367,202.014 531.7,198.847 536.5,196C 536.167,195.667 535.833,195.333 535.5,195C 537.5,194.333 539.5,194.333 541.5,195C 538.448,195.882 536.114,197.716 534.5,200.5C 536.219,202.544 537.886,204.544 539.5,206.5 Z"/></g>
<g><path style="opacity:1" fill="#f39234" d="M 212.5,198.5 C 216.167,198.5 219.833,198.5 223.5,198.5C 223.793,205.255 223.46,211.922 222.5,218.5C 221.167,218.5 219.833,218.5 218.5,218.5C 216.5,218.5 214.5,218.5 212.5,218.5C 212.5,211.833 212.5,205.167 212.5,198.5 Z"/></g>
<g><path style="opacity:1" fill="#252525" d="M 402.5,195.5 C 401.12,198.17 401.453,200.67 403.5,203C 402.643,203.689 401.977,204.522 401.5,205.5C 404.704,206.204 407.871,206.87 411,207.5C 412.042,210.804 410.875,212.971 407.5,214C 405.167,214.667 402.833,214.667 400.5,214C 397.967,212.084 397.967,210.084 400.5,208C 400.403,204.276 400.236,200.443 400,196.5C 400.671,195.748 401.504,195.414 402.5,195.5 Z"/></g>
<g><path style="opacity:1" fill="#878787" d="M 441.5,207.5 C 440.167,206.833 438.833,206.167 437.5,205.5C 439.821,205.771 441.821,205.104 443.5,203.5C 444.044,205.095 443.377,206.429 441.5,207.5 Z"/></g>
<g><path style="opacity:1" fill="#252525" d="M 648.5,205.5 C 649.5,205.5 650.5,205.5 651.5,205.5C 651.5,206.5 651.5,207.5 651.5,208.5C 650.5,208.5 649.5,208.5 648.5,208.5C 648.5,207.5 648.5,206.5 648.5,205.5 Z"/></g>
<g><path style="opacity:1" fill="#f1aa4d" d="M 223.5,198.5 C 226.5,198.5 229.5,198.5 232.5,198.5C 233.167,202.5 233.833,202.5 234.5,198.5C 237.385,198.194 240.052,198.527 242.5,199.5C 242.5,205.833 242.5,212.167 242.5,218.5C 240.833,218.5 239.167,218.5 237.5,218.5C 236.167,218.5 234.833,218.5 233.5,218.5C 229.833,218.5 226.167,218.5 222.5,218.5C 223.46,211.922 223.793,205.255 223.5,198.5 Z"/></g>
<g><path style="opacity:1" fill="#8c8d92" d="M 248.5,219.5 C 247.833,219.5 247.167,219.5 246.5,219.5C 246.666,213.491 246.499,207.491 246,201.5C 245.283,200.956 244.783,200.289 244.5,199.5C 245.693,199.03 246.36,198.03 246.5,196.5C 246.234,194.34 245.234,192.674 243.5,191.5C 243.938,190.494 244.604,190.494 245.5,191.5C 246.833,183.5 248.167,183.5 249.5,191.5C 250.451,190.674 251.451,190.508 252.5,191C 249.006,192.984 248.006,195.817 249.5,199.5C 253.195,198.749 253.028,199.415 249,201.5C 248.501,207.491 248.334,213.491 248.5,219.5 Z"/></g>
<g><path style="opacity:1" fill="#919191" d="M 535.5,205.5 C 536.156,206.278 536.989,206.944 538,207.5C 538.765,207.43 539.265,207.097 539.5,206.5C 540.289,206.783 540.956,207.283 541.5,208C 539.527,208.495 537.527,208.662 535.5,208.5C 535.5,207.5 535.5,206.5 535.5,205.5 Z"/></g>
<g><path style="opacity:1" fill="#a0a0a0" d="M 567.5,196.5 C 568.196,200.231 568.862,204.065 569.5,208C 567.5,208.667 565.5,208.667 563.5,208C 564.044,207.283 564.711,206.783 565.5,206.5C 565.56,207.043 565.893,207.376 566.5,207.5C 567.489,203.893 567.823,200.226 567.5,196.5 Z"/></g>
<g><path style="opacity:1" fill="#fcfcfc" d="M 401.5,208.5 C 404.722,208.108 407.722,208.608 410.5,210C 407.968,212.415 404.968,213.081 401.5,212C 400.316,210.855 400.316,209.688 401.5,208.5 Z"/></g>
<g><path style="opacity:1" fill="#f49b79" d="M 78.5,213.5 C 77.596,214.209 77.2627,215.209 77.5,216.5C 72.8986,214.971 68.732,212.638 65,209.5C 63.6872,205.15 63.5206,200.817 64.5,196.5C 65.3559,193.487 67.1892,192.82 70,194.5C 71.355,198.771 72.5216,203.104 73.5,207.5C 74.598,203.893 76.9314,201.893 80.5,201.5C 80.8099,205.7 80.1432,209.7 78.5,213.5 Z"/></g>
<g><path style="opacity:1" fill="#e28e9c" d="M 89.5,187.5 C 88.1667,209.833 88.1667,232.167 89.5,254.5C 88.8826,254.389 88.3826,254.056 88,253.5C 87.3333,231.833 87.3333,210.167 88,188.5C 88.3826,187.944 88.8826,187.611 89.5,187.5 Z"/></g>
<g><path style="opacity:1" fill="#eee2e3" d="M 62.5,209.5 C 63.1667,210.167 63.8333,210.833 64.5,211.5C 64.5861,213.677 65.2528,215.677 66.5,217.5C 65.3112,218.429 63.9778,218.762 62.5,218.5C 62.5,215.5 62.5,212.5 62.5,209.5 Z"/></g>
<g><path style="opacity:1" fill="#f0988f" d="M 64.5,196.5 C 63.5206,200.817 63.6872,205.15 65,209.5C 68.732,212.638 72.8986,214.971 77.5,216.5C 77.2627,215.209 77.596,214.209 78.5,213.5C 78.2148,215.288 78.5481,216.955 79.5,218.5C 80.2807,217.263 81.2807,216.263 82.5,215.5C 83.8003,218.309 83.8003,220.976 82.5,223.5C 82.631,222.761 82.4643,222.094 82,221.5C 80.8118,222.563 80.3118,223.897 80.5,225.5C 77.7374,225.744 75.5707,227.077 74,229.5C 72.1667,228.333 70.3333,227.167 68.5,226C 69.7932,225.51 71.1266,225.343 72.5,225.5C 72.297,223.362 71.297,221.695 69.5,220.5C 70.6808,218.802 70.6808,217.135 69.5,215.5C 67.1853,214.84 65.5186,213.507 64.5,211.5C 63.8333,210.833 63.1667,210.167 62.5,209.5C 62.5,205.5 62.5,201.5 62.5,197.5C 63.1667,197.167 63.8333,196.833 64.5,196.5 Z"/></g>
<g><path style="opacity:1" fill="#e96789" d="M 169.5,193.5 C 169.833,193.5 170.167,193.5 170.5,193.5C 178.281,195.154 186.281,196.154 194.5,196.5C 186.826,196.334 179.159,196.5 171.5,197C 175.167,197.333 178.833,197.667 182.5,198C 180.782,199.037 178.949,199.537 177,199.5C 176.799,202.515 177.132,205.515 178,208.5C 178.718,209.451 179.551,209.617 180.5,209C 179.62,207.644 179.286,206.144 179.5,204.5C 180.5,204.5 181.5,204.5 182.5,204.5C 182.896,207.044 182.229,209.211 180.5,211C 185.364,214.533 189.698,218.699 193.5,223.5C 194.833,224.167 196.167,224.833 197.5,225.5C 198.203,229.87 199.036,234.204 200,238.5C 200.5,226.505 200.667,214.505 200.5,202.5C 201.495,214.989 201.829,227.656 201.5,240.5C 198.376,240.943 196.043,242.61 194.5,245.5C 182.852,246.499 171.186,246.832 159.5,246.5C 159.941,237.501 160.441,228.501 161,219.5C 162.039,218.756 162.539,217.756 162.5,216.5C 165.439,214.658 167.439,211.991 168.5,208.5C 169.487,203.695 169.821,198.695 169.5,193.5 Z"/></g>
<g><path style="opacity:1" fill="#ea7493" d="M 150.5,193.5 C 151.754,201.7 151.587,210.033 150,218.5C 145.708,225.745 142.541,233.412 140.5,241.5C 139.833,241.833 139.167,242.167 138.5,242.5C 138.794,236.97 140.461,231.97 143.5,227.5C 141.392,224.736 141.059,221.736 142.5,218.5C 143.167,218.833 143.833,219.167 144.5,219.5C 145.167,217.5 145.833,215.5 146.5,213.5C 147.167,214.5 147.833,215.5 148.5,216.5C 149.497,209.866 149.83,203.2 149.5,196.5C 150.11,195.609 150.443,194.609 150.5,193.5 Z"/></g>
<g><path style="opacity:1" fill="#f5be9e" d="M 233.5,218.5 C 234.833,218.5 236.167,218.5 237.5,218.5C 237.5,221.167 237.5,223.833 237.5,226.5C 236.167,226.5 234.833,226.5 233.5,226.5C 233.5,224.167 233.5,221.833 233.5,219.5C 233.5,219.167 233.5,218.833 233.5,218.5 Z"/></g>
<g><path style="opacity:1" fill="#f99f81" d="M 206.5,218.5 C 207.167,218.833 207.833,219.167 208.5,219.5C 208.5,231.5 208.5,243.5 208.5,255.5C 209.833,255.5 211.167,255.5 212.5,255.5C 219.833,255.5 227.167,255.5 234.5,255.5C 239.695,255.179 244.695,255.513 249.5,256.5C 234.5,256.5 219.5,256.5 204.5,256.5C 206.408,245.016 207.074,233.349 206.5,221.5C 206.5,220.5 206.5,219.5 206.5,218.5 Z"/></g>
<g><path style="opacity:1" fill="#ec808e" d="M 64.5,211.5 C 65.5186,213.507 67.1853,214.84 69.5,215.5C 70.6808,217.135 70.6808,218.802 69.5,220.5C 71.297,221.695 72.297,223.362 72.5,225.5C 71.1266,225.343 69.7932,225.51 68.5,226C 70.3333,227.167 72.1667,228.333 74,229.5C 75.5707,227.077 77.7374,225.744 80.5,225.5C 80.3118,223.897 80.8118,222.563 82,221.5C 82.4643,222.094 82.631,222.761 82.5,223.5C 81.6968,227.098 80.3634,230.431 78.5,233.5C 75.8333,233.5 73.1667,233.5 70.5,233.5C 68.0508,229.57 65.3841,225.904 62.5,222.5C 62.5,221.167 62.5,219.833 62.5,218.5C 63.9778,218.762 65.3112,218.429 66.5,217.5C 65.2528,215.677 64.5861,213.677 64.5,211.5 Z"/></g>
<g><path style="opacity:1" fill="#f0853b" d="M 212.5,218.5 C 214.5,218.5 216.5,218.5 218.5,218.5C 218.5,218.833 218.5,219.167 218.5,219.5C 217.779,230.833 216.945,242.166 216,253.5C 214.698,254.085 213.531,254.751 212.5,255.5C 211.167,255.5 209.833,255.5 208.5,255.5C 208.5,243.5 208.5,231.5 208.5,219.5C 209.959,219.567 211.292,219.234 212.5,218.5 Z"/></g>
<g><path style="opacity:1" fill="#e89253" d="M 218.5,219.5 C 218.5,219.167 218.5,218.833 218.5,218.5C 219.833,218.5 221.167,218.5 222.5,218.5C 226.167,218.5 229.833,218.5 233.5,218.5C 233.5,218.833 233.5,219.167 233.5,219.5C 229.798,222.526 229.798,225.86 233.5,229.5C 235.059,230.074 236.559,230.74 238,231.5C 239.248,234.579 241.081,237.246 243.5,239.5C 244.667,244.523 246.334,249.356 248.5,254C 247.906,254.464 247.239,254.631 246.5,254.5C 243.775,253.704 241.609,252.037 240,249.5C 237.302,246.225 235.469,242.558 234.5,238.5C 228.236,237.144 225.236,233.144 225.5,226.5C 224.5,226.5 223.5,226.5 222.5,226.5C 222.5,225.5 222.5,224.5 222.5,223.5C 221.5,223.5 220.5,223.5 219.5,223.5C 219.768,221.901 219.434,220.568 218.5,219.5 Z"/></g>
<g><path style="opacity:1" fill="#dd835a" d="M 237.5,218.5 C 239.167,218.5 240.833,218.5 242.5,218.5C 243.568,219.434 244.901,219.768 246.5,219.5C 247.167,219.5 247.833,219.5 248.5,219.5C 249.833,219.5 251.167,219.5 252.5,219.5C 252.832,231.518 252.499,243.518 251.5,255.5C 250.817,255.863 250.15,256.196 249.5,256.5C 244.695,255.513 239.695,255.179 234.5,255.5C 238.298,254.517 242.298,254.183 246.5,254.5C 247.239,254.631 247.906,254.464 248.5,254C 246.334,249.356 244.667,244.523 243.5,239.5C 241.081,237.246 239.248,234.579 238,231.5C 236.559,230.74 235.059,230.074 233.5,229.5C 229.798,225.86 229.798,222.526 233.5,219.5C 233.5,221.833 233.5,224.167 233.5,226.5C 234.833,226.5 236.167,226.5 237.5,226.5C 237.5,223.833 237.5,221.167 237.5,218.5 Z"/></g>
<g><path style="opacity:1" fill="#d5779a" d="M 153.5,246.5 C 151.964,244.975 150.964,242.975 150.5,240.5C 149.354,241.145 148.354,241.978 147.5,243C 145.934,243.765 144.601,243.598 143.5,242.5C 145.017,242.489 146.184,241.823 147,240.5C 148.455,238.395 149.955,236.395 151.5,234.5C 153.145,238.32 153.811,242.32 153.5,246.5 Z"/></g>
<g><path style="opacity:1" fill="#fb9ba3" d="M 149.5,193.5 C 149.833,193.5 150.167,193.5 150.5,193.5C 150.443,194.609 150.11,195.609 149.5,196.5C 134.496,196.333 119.496,196.5 104.5,197C 103.234,197.309 102.067,197.809 101,198.5C 100.23,202.771 97.7303,204.437 93.5,203.5C 93.3335,215.838 93.5001,228.171 94,240.5C 96.3079,241.641 98.1413,243.308 99.5,245.5C 111.66,246.167 123.66,246.833 135.5,247.5C 135.5,247.833 135.5,248.167 135.5,248.5C 123.242,249.645 110.909,249.812 98.5,249C 96.5756,246.356 94.2423,244.19 91.5,242.5C 90.3339,228.846 90.1673,215.179 91,201.5C 94.6647,200.015 96.498,197.349 96.5,193.5C 114.167,193.5 131.833,193.5 149.5,193.5 Z"/></g>
<g><path style="opacity:1" fill="#ef9f50" d="M 218.5,219.5 C 219.434,220.568 219.768,221.901 219.5,223.5C 220.5,223.5 221.5,223.5 222.5,223.5C 222.5,224.5 222.5,225.5 222.5,226.5C 223.5,226.5 224.5,226.5 225.5,226.5C 225.236,233.144 228.236,237.144 234.5,238.5C 235.469,242.558 237.302,246.225 240,249.5C 241.609,252.037 243.775,253.704 246.5,254.5C 242.298,254.183 238.298,254.517 234.5,255.5C 227.167,255.5 219.833,255.5 212.5,255.5C 213.531,254.751 214.698,254.085 216,253.5C 216.945,242.166 217.779,230.833 218.5,219.5 Z"/></g>
<g><path style="opacity:1" fill="#f37b8f" d="M 89.5,187.5 C 109.5,187.5 129.5,187.5 149.5,187.5C 149.5,189.5 149.5,191.5 149.5,193.5C 131.833,193.5 114.167,193.5 96.5,193.5C 96.498,197.349 94.6647,200.015 91,201.5C 90.1673,215.179 90.3339,228.846 91.5,242.5C 94.2423,244.19 96.5756,246.356 98.5,249C 110.909,249.812 123.242,249.645 135.5,248.5C 138.731,253.449 143.397,255.782 149.5,255.5C 150.833,255.5 152.167,255.5 153.5,255.5C 153.5,255.833 153.5,256.167 153.5,256.5C 132.5,256.5 111.5,256.5 90.5,256.5C 90.1667,255.833 89.8333,255.167 89.5,254.5C 88.1667,232.167 88.1667,209.833 89.5,187.5 Z"/></g>
<g><path style="opacity:1" fill="#ab246f" d="M 70.5,233.5 C 70.4226,234.75 69.756,235.583 68.5,236C 69.9563,238.266 70.7896,240.766 71,243.5C 75.7034,244.548 77.7034,247.548 77,252.5C 79.0581,253.229 80.8914,254.229 82.5,255.5C 77.737,255.226 73.0704,255.559 68.5,256.5C 66.5349,249.24 65.8682,241.573 66.5,233.5C 67.8333,233.5 69.1667,233.5 70.5,233.5 Z"/></g>
<g><path style="opacity:1" fill="#be2861" d="M 70.5,233.5 C 73.1667,233.5 75.8333,233.5 78.5,233.5C 80.1667,233.5 81.8333,233.5 83.5,233.5C 83.825,241.019 83.4916,248.352 82.5,255.5C 80.8914,254.229 79.0581,253.229 77,252.5C 77.7034,247.548 75.7034,244.548 71,243.5C 70.7896,240.766 69.9563,238.266 68.5,236C 69.756,235.583 70.4226,234.75 70.5,233.5 Z"/></g>
<g><path style="opacity:1" fill="#fa9ea9" d="M 170.5,193.5 C 179.5,193.5 188.5,193.5 197.5,193.5C 197.833,195.5 198.167,197.5 198.5,199.5C 200.167,199.5 201.833,199.5 203.5,199.5C 203.5,213.833 203.5,228.167 203.5,242.5C 199.427,242.946 197.427,245.28 197.5,249.5C 184.829,249.333 172.162,249.5 159.5,250C 158.737,250.944 157.737,251.444 156.5,251.5C 153.092,249.779 149.425,249.112 145.5,249.5C 143.268,248.131 140.934,247.131 138.5,246.5C 138.5,245.167 138.5,243.833 138.5,242.5C 139.167,242.167 139.833,241.833 140.5,241.5C 141.391,242.11 142.391,242.443 143.5,242.5C 144.601,243.598 145.934,243.765 147.5,243C 148.354,241.978 149.354,241.145 150.5,240.5C 150.964,242.975 151.964,244.975 153.5,246.5C 155.5,247.833 157.5,247.833 159.5,246.5C 171.186,246.832 182.852,246.499 194.5,245.5C 196.043,242.61 198.376,240.943 201.5,240.5C 201.829,227.656 201.495,214.989 200.5,202.5C 197.614,201.404 195.614,199.404 194.5,196.5C 186.281,196.154 178.281,195.154 170.5,193.5 Z"/></g>
<g><path style="opacity:1" fill="#ed718a" d="M 203.5,199.5 C 204.329,207.323 204.829,215.323 205,223.5C 205.278,222.584 205.778,221.918 206.5,221.5C 207.074,233.349 206.408,245.016 204.5,256.5C 192.167,256.5 179.833,256.5 167.5,256.5C 167.737,255.209 167.404,254.209 166.5,253.5C 162.232,252.627 157.898,252.294 153.5,252.5C 153.5,253.5 153.5,254.5 153.5,255.5C 152.167,255.5 150.833,255.5 149.5,255.5C 148.525,253.205 147.192,251.205 145.5,249.5C 149.425,249.112 153.092,249.779 156.5,251.5C 157.737,251.444 158.737,250.944 159.5,250C 172.162,249.5 184.829,249.333 197.5,249.5C 197.427,245.28 199.427,242.946 203.5,242.5C 203.5,228.167 203.5,213.833 203.5,199.5 Z"/></g>
<g><path style="opacity:1" fill="#e33c3f" d="M 138.5,246.5 C 140.934,247.131 143.268,248.131 145.5,249.5C 147.192,251.205 148.525,253.205 149.5,255.5C 143.397,255.782 138.731,253.449 135.5,248.5C 135.5,248.167 135.5,247.833 135.5,247.5C 136.391,246.89 137.391,246.557 138.5,246.5 Z"/></g>
<g><path style="opacity:1" fill="#e13b44" d="M 166.5,253.5 C 166.119,254.931 165.119,255.764 163.5,256C 160.183,256.498 156.85,256.665 153.5,256.5C 153.5,256.167 153.5,255.833 153.5,255.5C 153.5,254.5 153.5,253.5 153.5,252.5C 157.898,252.294 162.232,252.627 166.5,253.5 Z"/></g>
<g><path style="opacity:1" fill="#a44175" d="M 83.5,233.5 C 84.492,240.982 84.8254,248.648 84.5,256.5C 86.5,256.5 88.5,256.5 90.5,256.5C 111.5,256.5 132.5,256.5 153.5,256.5C 153.5,257.167 153.5,257.833 153.5,258.5C 124.814,259.158 96.4803,258.492 68.5,256.5C 73.0704,255.559 77.737,255.226 82.5,255.5C 83.4916,248.352 83.825,241.019 83.5,233.5 Z"/></g>
<g><path style="opacity:1" fill="#b33657" d="M 166.5,253.5 C 167.404,254.209 167.737,255.209 167.5,256.5C 179.833,256.5 192.167,256.5 204.5,256.5C 204.5,257.167 204.5,257.833 204.5,258.5C 187.5,258.5 170.5,258.5 153.5,258.5C 153.5,257.833 153.5,257.167 153.5,256.5C 156.85,256.665 160.183,256.498 163.5,256C 165.119,255.764 166.119,254.931 166.5,253.5 Z"/></g>
<g><path style="opacity:1" fill="#cb4835" d="M 204.5,256.5 C 219.5,256.5 234.5,256.5 249.5,256.5C 234.871,258.484 219.871,259.15 204.5,258.5C 204.5,257.833 204.5,257.167 204.5,256.5 Z"/></g>
</svg>
